<svg width="32" height="32" viewBox="0 0 32 32" fill="none" xmlns="http://www.w3.org/2000/svg">
<path id="Vector" fill-rule="evenodd" clip-rule="evenodd" d="M6.94566 31.5011C12.9635 32.1663 19.0364 32.1663 25.0542 31.5011C28.3861 31.1283 31.0742 28.5089 31.4652 25.171C32.1783 19.0777 32.1783 12.9223 31.4652 6.82903C31.0742 3.49113 28.3861 0.871687 25.0542 0.498869C19.0364 -0.16629 12.9635 -0.16629 6.94566 0.498869C3.61376 0.871687 0.925675 3.49113 0.534716 6.82903C-0.178239 12.9216 -0.178239 19.0764 0.534716 25.169C0.732467 26.7907 1.47298 28.2981 2.63623 29.447C3.79948 30.596 5.31731 31.3191 6.94371 31.4992M15.9999 25.6952C16.3868 25.6952 16.7579 25.5418 17.0315 25.2687C17.305 24.9956 17.4587 24.6252 17.4587 24.2389V17.4563H24.2529C24.6398 17.4563 25.0108 17.3029 25.2844 17.0298C25.558 16.7567 25.7117 16.3862 25.7117 16C25.7117 15.6138 25.558 15.2433 25.2844 14.9702C25.0108 14.6971 24.6398 14.5437 24.2529 14.5437H17.4587V7.76108C17.4587 7.37484 17.305 7.00442 17.0315 6.7313C16.7579 6.45819 16.3868 6.30475 15.9999 6.30475C15.613 6.30475 15.242 6.45819 14.9684 6.7313C14.6948 7.00442 14.5411 7.37484 14.5411 7.76108V14.5437H7.74702C7.36013 14.5437 6.98907 14.6971 6.7155 14.9702C6.44192 15.2433 6.28822 15.6138 6.28822 16C6.28822 16.3862 6.44192 16.7567 6.7155 17.0298C6.98907 17.3029 7.36013 17.4563 7.74702 17.4563H14.5411V24.2389C14.5411 24.6252 14.6948 24.9956 14.9684 25.2687C15.242 25.5418 15.613 25.6952 15.9999 25.6952Z" fill="#F5F5F4"/>
</svg>
