<svg width="308" height="346" viewBox="0 0 308 346" fill="none" xmlns="http://www.w3.org/2000/svg">
<path fill-rule="evenodd" clip-rule="evenodd" d="M172.229 50.5064C182.84 47.5291 194.266 45.9082 206.172 45.9082C218.008 45.9082 229.37 47.5102 239.928 50.4543C248.671 30.6513 268.348 13.8648 282.015 4.76306C283.105 4.03684 284.157 3.35954 285.163 2.73354C286.302 2.02403 287.381 1.38042 288.388 0.806152C288.756 1.90964 289.109 3.01323 289.447 4.11655L289.528 4.3815C298.506 33.8431 297.193 63.0866 293.132 84.8259C302.235 96.8178 307.468 110.849 307.468 125.845C307.468 152.198 291.308 175.572 266.383 190.134L266.432 190.917C268.533 224.029 273.848 255.07 278.738 283.606L278.801 283.973C284.896 319.547 290.374 351.521 287.682 378.195C286.323 391.654 282.877 403.915 276.297 414.705C269.705 425.515 260.068 434.683 246.58 442.09L245.879 442.475H166.268L165.567 442.09C152.079 434.683 142.442 425.515 135.85 414.705C132.658 409.472 130.204 403.892 128.367 397.997C128.311 397.999 128.254 398.002 128.197 398.004C115.383 398.454 97.8577 394.09 82.328 381.316C66.3537 368.176 53.6438 347.122 49.2418 316.223C42.4514 268.56 18.4501 256.143 14.5231 255.132C4.17811 252.467 -2.04836 241.921 0.615899 231.576C3.28015 221.231 13.8262 215.005 24.1712 217.669C46.6006 223.446 79.0793 251.379 87.5401 310.767C90.7647 333.402 99.3515 345.228 106.903 351.44C113.152 356.58 119.541 358.592 123.808 359.164C124.3 336.769 128.639 311.445 133.346 283.973L133.409 283.606C138.298 255.07 143.614 224.029 145.715 190.917L145.771 190.023C120.953 175.453 104.876 152.131 104.876 125.845C104.876 110.941 110.044 96.9906 119.044 85.0476C114.95 63.2857 113.598 33.9434 122.606 4.3815C122.969 3.18991 123.349 1.99797 123.747 0.806152C124.753 1.38042 125.832 2.02403 126.972 2.73354C140.588 11.2121 162.802 29.1002 172.229 50.5064ZM84.4248 378.766C99.0401 390.788 115.434 394.975 127.419 394.723L127.419 394.724C115.435 394.976 99.04 390.789 84.4245 378.767C69.1694 366.219 56.8107 345.953 52.5089 315.758C45.5744 267.083 20.842 253.351 15.3462 251.936C6.7662 249.726 1.60206 240.979 3.81175 232.399C3.88081 232.131 3.95624 231.867 4.03786 231.605C3.95638 231.866 3.88106 232.131 3.8121 232.398C1.60241 240.978 6.76654 249.725 15.3465 251.935C20.8424 253.35 45.5748 267.082 52.5093 315.757C56.811 345.952 69.1697 366.218 84.4248 378.766Z" fill="#007FFF"/>
</svg>
