<svg width="351" height="351" viewBox="0 0 351 351" fill="none" xmlns="http://www.w3.org/2000/svg">
<mask id="mask0_843_1704" style="mask-type:alpha" maskUnits="userSpaceOnUse" x="0" y="0" width="351" height="351">
<circle cx="175.5" cy="175.5" r="175.5" fill="#002952"/>
</mask>
<g mask="url(#mask0_843_1704)">
<path fill-rule="evenodd" clip-rule="evenodd" d="M105.94 55.4806C105.625 56.4253 105.323 57.3701 105.033 58.3146L104.964 58.5414C97.2515 83.8497 98.4094 108.97 101.914 127.6C94.2098 137.825 89.7855 149.768 89.7855 162.526C89.7855 185.03 103.55 204.996 124.797 217.469L124.749 218.234C122.951 246.581 118.4 273.155 114.214 297.585L114.16 297.899L114.16 297.899L114.16 297.899C110.13 321.418 106.416 343.098 105.994 362.27C102.341 361.781 96.8703 360.058 91.5195 355.657C85.0546 350.339 77.7034 340.215 74.9428 320.838C67.6996 269.995 39.8947 246.082 20.6929 241.136C11.8366 238.856 2.80813 244.186 0.527269 253.042C-1.75359 261.899 3.57687 270.927 12.4332 273.208C15.7951 274.074 36.3426 284.704 42.1558 325.509C45.9243 351.961 56.8052 369.985 70.4808 381.234C83.7757 392.17 98.7795 395.906 109.749 395.52C109.799 395.519 109.848 395.517 109.898 395.515C111.47 400.561 113.571 405.338 116.304 409.819C121.947 419.072 130.197 426.921 141.744 433.263L142.344 433.592H210.499L211.099 433.263C222.646 426.921 230.896 419.072 236.54 409.819C242.173 400.581 245.123 390.085 246.286 378.562C248.591 355.727 243.901 328.354 238.683 297.899L238.629 297.585C234.444 273.155 229.893 246.581 228.095 218.234L228.052 217.563C249.39 205.097 263.224 185.086 263.224 162.526C263.224 149.687 258.743 137.674 250.949 127.407C254.425 108.796 255.548 83.7621 247.863 58.5414L247.794 58.3146C247.504 57.3701 247.202 56.4253 246.887 55.4806C246.025 55.9722 245.101 56.5232 244.126 57.1306C243.265 57.6666 242.364 58.2464 241.431 58.8681C229.731 66.66 212.885 81.0306 205.401 97.9836C196.362 95.4636 186.636 94.0925 176.505 94.0925C166.312 94.0925 156.53 95.4802 147.446 98.0292C139.971 81.0563 123.106 66.6669 111.396 58.8681C110.462 58.2464 109.562 57.6665 108.701 57.1306C107.725 56.5232 106.801 55.9722 105.94 55.4806ZM176.406 230.96L176.422 231.33L176.437 230.96C176.427 230.96 176.416 230.96 176.406 230.96ZM220.919 221.315L225.632 221.39L225.609 221.071C225.562 220.386 225.515 219.701 225.471 219.014C223.986 219.817 222.468 220.585 220.919 221.315ZM72.2776 379.052C84.7901 389.344 98.8258 392.928 109.086 392.712L109.086 392.713C98.8257 392.929 84.789 389.345 72.2756 379.052C59.2158 368.31 48.6355 350.96 44.9528 325.11C39.0162 283.44 17.8428 271.684 13.1378 270.472C5.79252 268.58 1.37152 261.092 3.26323 253.747C4.17533 250.205 6.38853 247.344 9.25933 245.542C6.3894 247.344 4.1771 250.206 3.26519 253.746C1.37348 261.092 5.79448 268.58 13.1398 270.471C17.8447 271.683 39.0181 283.439 44.9547 325.109C48.6374 350.959 59.2177 368.309 72.2776 379.052Z" fill="#7C20BE"/>
</g>
</svg>
