<svg width="64" height="64" viewBox="0 0 64 64" fill="none" xmlns="http://www.w3.org/2000/svg">
<g id="Perfil do usu&#195;&#161;rio">
<circle id="Ellipse 27" cx="32" cy="32" r="32" fill="#4F2170"/>
<g id="Group 26">
<g id="Mask group">
<mask id="mask0_1181_1821" style="mask-type:alpha" maskUnits="userSpaceOnUse" x="0" y="0" width="64" height="64">
<circle id="Ellipse 28" cx="32" cy="32" r="32" fill="#002952"/>
</mask>
<g mask="url(#mask0_1181_1821)">
<path id="Union" fill-rule="evenodd" clip-rule="evenodd" d="M45.1818 10.6329C45.1289 10.4606 45.0738 10.2884 45.0164 10.1161C44.8593 10.2058 44.6909 10.3062 44.513 10.417C44.3561 10.5147 44.1918 10.6204 44.0216 10.7338C41.8882 12.1545 38.8167 14.7748 37.452 17.866C35.8039 17.4065 34.0305 17.1565 32.183 17.1565C30.3245 17.1565 28.5409 17.4095 26.8845 17.8743C25.5216 14.7795 22.4465 12.1558 20.3113 10.7338C20.1411 10.6205 19.9768 10.5147 19.8199 10.417C19.642 10.3063 19.4735 10.2058 19.3164 10.1161C19.259 10.2884 19.2039 10.4607 19.1511 10.6329L19.1384 10.6743C17.7322 15.2889 17.9434 19.8693 18.5824 23.2663C17.1777 25.1305 16.371 27.3081 16.371 29.6344C16.371 33.7375 18.8806 37.3781 22.7546 39.6524L22.7458 39.792C22.4179 44.9607 21.5881 49.8061 20.8249 54.2606L20.8151 54.3178C20.0804 58.6061 19.4031 62.5592 19.3262 66.0549C18.6601 65.9657 17.6628 65.6516 16.6873 64.8492C15.5085 63.8796 14.1681 62.0335 13.6648 58.5003C12.3441 49.23 7.27424 44.8696 3.77307 43.9679C2.15824 43.552 0.512024 44.524 0.0961403 46.1388C-0.319744 47.7536 0.652193 49.3999 2.26702 49.8157C2.88001 49.9736 6.62656 51.9119 7.68652 59.352C8.37367 64.1753 10.3576 67.4617 12.8512 69.5128C15.2753 71.5068 18.0111 72.188 20.0113 72.1177L20.0379 72.1167C20.3246 73.0368 20.7077 73.9078 21.206 74.7248C22.2349 76.4121 23.7392 77.8432 25.8447 78.9995L25.9541 79.0596H38.3812L38.4906 78.9995C40.5961 77.8432 42.1004 76.4121 43.1293 74.7248C44.1565 73.0405 44.6944 71.1266 44.9065 69.0256C45.3268 64.8618 44.4716 59.8708 43.5202 54.3178L43.5104 54.2606C42.7472 49.8061 41.9174 44.9607 41.5895 39.792L41.5818 39.6697C45.4726 37.3967 47.9951 33.748 47.9951 29.6344C47.9951 27.2935 47.1782 25.1031 45.7571 23.2311C46.3909 19.8377 46.5958 15.273 45.1944 10.6742L45.1818 10.6329ZM13.1785 69.1148C15.46 70.9915 18.0191 71.6449 19.8899 71.6057L19.8899 71.6058C18.0191 71.6451 15.4599 70.9916 13.1785 69.115C10.7972 67.1562 8.86801 63.9927 8.19652 59.2794C7.11406 51.6813 3.25339 49.5378 2.3955 49.3169C1.05619 48.972 0.250078 47.6066 0.595006 46.2673C0.601997 46.2401 0.609407 46.2132 0.617228 46.1865C0.609422 46.2132 0.602039 46.2401 0.59506 46.2672C0.250132 47.6065 1.05624 48.9718 2.39555 49.3167C3.25344 49.5377 7.11411 51.6812 8.19657 59.2792C8.86806 63.9926 10.7972 67.1561 13.1785 69.1148ZM43.0293 54.334L43.0308 54.3426L43.0308 54.3427C42.9548 53.899 42.878 53.451 42.8012 52.9991C42.8775 53.4481 42.9538 53.8931 43.0293 54.334Z" fill="#7C20BE"/>
</g>
</g>
</g>
</g>
</svg>
