<svg width="108" height="108" viewBox="0 0 108 108" fill="none" xmlns="http://www.w3.org/2000/svg">
<path d="M34.875 11.25C34.875 10.3549 34.5194 9.49645 33.8865 8.86351C33.2535 8.23058 32.3951 7.875 31.5 7.875C30.6049 7.875 29.7464 8.23058 29.1135 8.86351C28.4805 9.49645 28.125 10.3549 28.125 11.25V18.36C21.645 18.8775 17.397 20.1465 14.274 23.274C11.1465 26.397 9.87747 30.6495 9.35547 37.125H98.6445C98.1225 30.645 96.8535 26.397 93.726 23.274C90.603 20.1465 86.3505 18.8775 79.875 18.3555V11.25C79.875 10.3549 79.5194 9.49645 78.8865 8.86351C78.2535 8.23058 77.3951 7.875 76.5 7.875C75.6049 7.875 74.7464 8.23058 74.1135 8.86351C73.4805 9.49645 73.125 10.3549 73.125 11.25V18.0585C70.1325 18 66.7755 18 63 18H45C41.2245 18 37.8675 18 34.875 18.0585V11.25Z" fill="#8D8D8D"/>
<path fill-rule="evenodd" clip-rule="evenodd" d="M9 54C9 50.2245 9 46.8675 9.0585 43.875H98.9415C99 46.8675 99 50.2245 99 54V63C99 79.9695 99 88.4565 93.726 93.726C88.452 98.9955 79.9695 99 63 99H45C28.0305 99 19.5435 99 14.274 93.726C9.0045 88.452 9 79.9695 9 63V54ZM76.5 63C77.6935 63 78.8381 62.5259 79.682 61.682C80.5259 60.8381 81 59.6935 81 58.5C81 57.3065 80.5259 56.1619 79.682 55.318C78.8381 54.4741 77.6935 54 76.5 54C75.3065 54 74.1619 54.4741 73.318 55.318C72.4741 56.1619 72 57.3065 72 58.5C72 59.6935 72.4741 60.8381 73.318 61.682C74.1619 62.5259 75.3065 63 76.5 63ZM76.5 81C77.6935 81 78.8381 80.5259 79.682 79.682C80.5259 78.8381 81 77.6935 81 76.5C81 75.3065 80.5259 74.1619 79.682 73.318C78.8381 72.4741 77.6935 72 76.5 72C75.3065 72 74.1619 72.4741 73.318 73.318C72.4741 74.1619 72 75.3065 72 76.5C72 77.6935 72.4741 78.8381 73.318 79.682C74.1619 80.5259 75.3065 81 76.5 81ZM58.5 58.5C58.5 59.6935 58.0259 60.8381 57.182 61.682C56.3381 62.5259 55.1935 63 54 63C52.8065 63 51.6619 62.5259 50.818 61.682C49.9741 60.8381 49.5 59.6935 49.5 58.5C49.5 57.3065 49.9741 56.1619 50.818 55.318C51.6619 54.4741 52.8065 54 54 54C55.1935 54 56.3381 54.4741 57.182 55.318C58.0259 56.1619 58.5 57.3065 58.5 58.5ZM58.5 76.5C58.5 77.6935 58.0259 78.8381 57.182 79.682C56.3381 80.5259 55.1935 81 54 81C52.8065 81 51.6619 80.5259 50.818 79.682C49.9741 78.8381 49.5 77.6935 49.5 76.5C49.5 75.3065 49.9741 74.1619 50.818 73.318C51.6619 72.4741 52.8065 72 54 72C55.1935 72 56.3381 72.4741 57.182 73.318C58.0259 74.1619 58.5 75.3065 58.5 76.5ZM31.5 63C32.6935 63 33.8381 62.5259 34.682 61.682C35.5259 60.8381 36 59.6935 36 58.5C36 57.3065 35.5259 56.1619 34.682 55.318C33.8381 54.4741 32.6935 54 31.5 54C30.3065 54 29.1619 54.4741 28.318 55.318C27.4741 56.1619 27 57.3065 27 58.5C27 59.6935 27.4741 60.8381 28.318 61.682C29.1619 62.5259 30.3065 63 31.5 63ZM31.5 81C32.6935 81 33.8381 80.5259 34.682 79.682C35.5259 78.8381 36 77.6935 36 76.5C36 75.3065 35.5259 74.1619 34.682 73.318C33.8381 72.4741 32.6935 72 31.5 72C30.3065 72 29.1619 72.4741 28.318 73.318C27.4741 74.1619 27 75.3065 27 76.5C27 77.6935 27.4741 78.8381 28.318 79.682C29.1619 80.5259 30.3065 81 31.5 81Z" fill="#8D8D8D"/>
</svg>
