<svg width="669" height="568" viewBox="0 0 669 568" fill="none" xmlns="http://www.w3.org/2000/svg">
<path d="M553 306C553 393.813 456.741 465 338 465C219.259 465 123 393.813 123 306C123 218.187 219.259 147 338 147C456.741 147 553 218.187 553 306Z" fill="#3D3D3D"/>
<path fill-rule="evenodd" clip-rule="evenodd" d="M487.64 415.183C525.789 386.971 548.977 348.323 548.977 306C548.977 263.677 525.789 225.029 487.64 196.817C449.493 168.605 396.6 151.034 338 151.034C279.4 151.034 226.507 168.605 188.36 196.817C150.211 225.029 127.023 263.677 127.023 306C127.023 348.323 150.211 386.971 188.36 415.183C226.507 443.395 279.4 460.966 338 460.966C396.6 460.966 449.493 443.395 487.64 415.183ZM338 465C456.741 465 553 393.813 553 306C553 218.187 456.741 147 338 147C219.259 147 123 218.187 123 306C123 393.813 219.259 465 338 465Z" fill="#202020"/>
<path d="M313.47 307.794C299.87 364.625 256.6 402.979 216.824 393.46C177.049 383.941 155.83 330.154 169.431 273.323C183.032 216.492 226.301 178.138 266.077 187.657C305.852 197.176 327.071 250.963 313.47 307.794Z" fill="#D9D9D9"/>
<path fill-rule="evenodd" clip-rule="evenodd" d="M270.562 370.543C286.914 356.048 300.495 333.504 307.017 306.25C313.54 278.996 311.636 252.746 303.617 232.418C295.589 212.067 281.736 198.227 264.533 194.11C247.329 189.992 228.711 196.062 212.34 210.574C195.987 225.069 182.406 247.613 175.884 274.867C169.361 302.121 171.265 328.371 179.284 348.699C187.312 369.05 201.165 382.89 218.369 387.007C235.572 391.125 254.19 385.055 270.562 370.543ZM216.824 393.46C256.6 402.979 299.87 364.625 313.47 307.794C327.071 250.963 305.852 197.176 266.077 187.657C226.301 178.138 183.032 216.492 169.431 273.323C155.83 330.154 177.049 383.941 216.824 393.46Z" fill="#202020"/>
<path d="M362.799 307.794C376.4 364.625 419.67 402.979 459.445 393.46C499.221 383.941 520.439 330.154 506.839 273.323C493.238 216.492 449.968 178.138 410.193 187.657C370.417 197.176 349.198 250.963 362.799 307.794Z" fill="#D9D9D9"/>
<path fill-rule="evenodd" clip-rule="evenodd" d="M405.708 370.543C389.355 356.048 375.775 333.504 369.252 306.25C362.73 278.996 364.633 252.746 372.652 232.418C380.681 212.067 394.533 198.227 411.737 194.11C428.941 189.992 447.558 196.062 463.93 210.574C480.283 225.069 493.863 247.613 500.386 274.867C506.908 302.121 505.005 328.371 496.986 348.699C488.957 369.05 475.105 382.89 457.901 387.007C440.697 391.125 422.08 385.055 405.708 370.543ZM459.445 393.46C419.67 402.979 376.4 364.625 362.799 307.794C349.198 250.963 370.417 197.176 410.193 187.657C449.968 178.138 493.238 216.492 506.839 273.323C520.439 330.154 499.221 383.941 459.445 393.46Z" fill="#202020"/>
<path fill-rule="evenodd" clip-rule="evenodd" d="M410.896 357.392C397.251 345.297 385.871 326.437 380.402 303.582C374.932 280.726 376.541 258.758 383.232 241.796C389.933 224.81 401.425 213.42 415.55 210.04C429.675 206.659 445.078 211.613 458.742 223.725C472.388 235.82 483.767 254.68 489.237 277.535C494.707 300.391 493.098 322.359 486.407 339.321C479.706 356.307 468.214 367.697 454.089 371.077C439.964 374.458 424.561 369.504 410.896 357.392ZM455.633 377.53C422.016 385.576 385.444 353.159 373.949 305.126C362.454 257.093 380.387 211.632 414.005 203.587C447.623 195.541 484.195 227.958 495.69 275.991C507.185 324.024 489.251 369.485 455.633 377.53Z" fill="black"/>
<path fill-rule="evenodd" clip-rule="evenodd" d="M410.896 357.392C397.251 345.297 385.871 326.437 380.402 303.582C374.932 280.726 376.541 258.758 383.232 241.796C389.933 224.81 401.425 213.42 415.55 210.04C429.675 206.659 445.078 211.613 458.742 223.725C472.388 235.82 483.767 254.68 489.237 277.535C494.707 300.391 493.098 322.359 486.407 339.321C479.706 356.307 468.214 367.697 454.089 371.077C439.964 374.458 424.561 369.504 410.896 357.392ZM455.633 377.53C422.016 385.576 385.444 353.159 373.949 305.126C362.454 257.093 380.387 211.632 414.005 203.587C447.623 195.541 484.195 227.958 495.69 275.991C507.185 324.024 489.251 369.485 455.633 377.53Z" fill="black"/>
<path d="M351.34 360H334.661C329.809 360 327.214 365.794 330.405 369.501L339.476 380.038C341.857 382.804 346.151 382.617 348.29 379.655L355.898 369.117C358.632 365.332 355.966 360 351.34 360Z" fill="#202020"/>
<path fill-rule="evenodd" clip-rule="evenodd" d="M329.662 369.745C325.888 365.553 328.957 359 334.695 359H351.306C356.777 359 359.93 365.03 356.697 369.312L349.12 379.348C346.59 382.698 341.512 382.909 338.696 379.782L329.662 369.745ZM334.695 361.047C330.769 361.047 328.669 365.53 331.251 368.399L340.286 378.435C342.212 380.575 345.687 380.431 347.417 378.139L354.995 368.102C357.206 365.173 355.05 361.047 351.306 361.047H334.695Z" fill="#202020"/>
<path d="M270.644 560.299C225.646 533.394 211.047 466.554 209.003 432.914C208.923 431.599 210.535 430.97 211.408 431.956C211.499 432.059 211.605 432.148 211.722 432.22L215.192 434.362C215.451 434.521 215.721 434.66 216.002 434.776L221.87 437.21L229.821 440.294L233.78 442.004C234.067 442.128 234.344 442.276 234.607 442.446L237.33 444.201C237.703 444.441 238.102 444.637 238.519 444.785L259.37 452.152L281.799 457.251L293.191 459.385L307.669 461.046L336.15 462.706H353.476L369.853 461.046L388.128 458.318L407.353 454.523L426.916 449.55C427.243 449.466 427.563 449.354 427.871 449.214L442.005 442.784L461.013 435.14C461.315 435.018 461.606 434.871 461.883 434.7L475.47 426.301C478.358 424.324 484.181 420.348 484.371 420.253C484.608 420.134 486.388 418 486.507 418C487.835 418 488.933 419.042 488.967 420.369C490.376 476.453 446.829 534.743 435.478 547.255C423.967 559.944 380.415 578.917 395.249 544.646C407.116 517.23 400.193 505.791 395.249 503.498C364.513 490.335 320.486 497.925 302.685 503.498C288.747 507.862 296.409 535.228 302.305 549.212C302.556 549.807 302.713 550.454 302.742 551.099C303.779 574.464 281.879 567.043 270.644 560.299Z" fill="#3D3D3D"/>
<path fill-rule="evenodd" clip-rule="evenodd" d="M484.849 421.245C484.843 421.25 484.829 421.259 484.805 421.274C484.757 421.305 484.687 421.351 484.597 421.411C484.418 421.53 484.168 421.699 483.861 421.907C483.247 422.323 482.416 422.889 481.5 423.515C479.668 424.766 477.5 426.252 476.062 427.239L476.042 427.253L462.488 435.658C462.161 435.861 461.816 436.036 461.459 436.18L442.55 443.808L428.495 450.223C428.13 450.389 427.752 450.522 427.364 450.621L407.853 455.598L388.653 459.399L370.401 462.132L354.012 463.799H336.671L308.244 462.136L293.758 460.47L282.354 458.327L259.935 453.214L239.11 445.832C238.616 445.657 238.144 445.425 237.704 445.14L234.992 443.386C234.779 443.249 234.555 443.129 234.322 443.028L230.398 441.327L222.486 438.249L216.63 435.813C216.298 435.675 215.978 435.51 215.673 435.321L212.217 433.181C212.011 433.054 211.826 432.898 211.666 432.716C211.599 432.64 211.535 432.612 211.485 432.601C211.427 432.588 211.362 432.593 211.3 432.618C211.238 432.642 211.194 432.68 211.169 432.719C211.147 432.751 211.123 432.805 211.129 432.902C212.141 449.616 216.267 474.602 225.711 498.737C235.16 522.885 249.882 546.054 272.006 559.324L272.008 559.325C277.552 562.663 285.584 566.07 291.993 565.858C295.157 565.753 297.806 564.774 299.628 562.594C301.466 560.395 302.618 556.787 302.366 551.094C302.344 550.588 302.219 550.066 302.013 549.575C299.055 542.539 295.637 532.1 294.716 522.826C294.256 518.195 294.408 513.759 295.623 510.158C296.852 506.514 299.192 503.684 303.054 502.471C312.002 499.66 327.484 496.357 344.577 495.404C361.657 494.452 380.46 495.84 395.981 502.508L395.996 502.515L396.01 502.521C398.896 503.863 402.002 507.678 402.896 514.492C403.792 521.316 402.494 531.222 396.539 545.023C394.718 549.244 393.826 552.571 393.633 555.143C393.44 557.708 393.946 559.438 394.823 560.587C395.697 561.732 397.059 562.454 398.9 562.762C400.751 563.072 403.016 562.948 405.553 562.451C410.623 561.457 416.551 559.021 421.94 556.03C427.334 553.034 432.084 549.539 434.842 546.49C440.434 540.307 454.051 522.697 466.09 499.65C478.134 476.593 488.535 448.215 487.84 420.46C487.824 419.855 487.407 419.342 486.831 419.183C486.67 419.359 486.472 419.582 486.262 419.818L486.227 419.857C485.986 420.129 485.73 420.416 485.519 420.642C485.415 420.755 485.312 420.863 485.222 420.95C485.178 420.994 485.127 421.041 485.075 421.085L485.074 421.086C485.045 421.111 484.962 421.182 484.849 421.245ZM485.899 417.152C485.93 417.134 486.149 417 486.453 417C488.337 417 489.918 418.486 489.966 420.407C490.675 448.686 480.092 477.443 467.975 500.639C455.852 523.846 442.131 541.605 436.418 547.923C433.443 551.212 428.472 554.841 422.97 557.895C417.463 560.953 411.32 563.493 405.961 564.544C403.282 565.068 400.742 565.233 398.549 564.866C396.347 564.497 394.427 563.578 393.133 561.883C391.842 560.192 391.293 557.885 391.511 554.982C391.729 552.086 392.714 548.516 394.586 544.177C400.45 530.586 401.615 521.082 400.787 514.77C399.959 508.463 397.166 505.417 395.128 504.462C380.04 497.985 361.619 496.59 344.695 497.533C327.778 498.476 312.47 501.748 303.69 504.506C300.611 505.473 298.699 507.696 297.638 510.841C296.563 514.03 296.387 518.119 296.833 522.615C297.725 531.595 301.059 541.813 303.973 548.747C304.267 549.446 304.457 550.216 304.491 551C304.756 556.979 303.569 561.199 301.258 563.964C298.931 566.749 295.622 567.872 292.063 567.989C285.027 568.222 276.558 564.553 270.912 561.153C248.22 547.541 233.264 523.88 223.73 499.516C214.191 475.138 210.029 449.928 209.005 433.031C208.86 430.637 211.766 429.611 213.259 431.303C213.281 431.328 213.306 431.349 213.334 431.367L216.791 433.507C217 433.636 217.219 433.748 217.446 433.843L223.279 436.27L231.205 439.353L235.167 441.071C235.507 441.218 235.834 441.393 236.145 441.594L238.857 443.348C239.158 443.543 239.481 443.702 239.819 443.822L260.528 451.162L282.786 456.238L294.075 458.36L308.428 460.011L336.733 461.666H353.905L370.137 460.015L388.289 457.298L407.384 453.517L426.84 448.555C427.105 448.487 427.364 448.396 427.613 448.282L441.711 441.848L460.665 434.202C460.909 434.103 461.145 433.984 461.369 433.845L474.88 425.466C476.319 424.478 478.477 422.999 480.302 421.752C481.219 421.126 482.053 420.558 482.67 420.14C482.978 419.931 483.233 419.759 483.419 419.635C483.511 419.574 483.589 419.523 483.648 419.484L483.655 419.479C483.67 419.47 483.696 419.453 483.725 419.435C483.729 419.431 483.733 419.427 483.738 419.423C483.791 419.371 483.866 419.293 483.963 419.189C484.155 418.982 484.394 418.714 484.64 418.438L484.68 418.393C484.908 418.136 485.139 417.876 485.324 417.677C485.42 417.573 485.515 417.472 485.597 417.393C485.635 417.355 485.689 417.305 485.748 417.257C485.776 417.235 485.828 417.194 485.896 417.154L485.899 417.152Z" fill="#202020"/>
<path d="M112.756 66C81.5464 131.092 110.661 234.455 129.119 278C145.53 207.886 215.878 172.671 249 163.828C220.542 92.6717 146.313 68.9609 112.756 66Z" fill="#3D3D3D"/>
<path fill-rule="evenodd" clip-rule="evenodd" d="M112.226 65L112.965 65.0652C146.824 68.0491 221.787 91.9237 250.553 163.762L251 164.88L249.835 165.19C233.349 169.587 207.531 180.562 183.798 199.178C160.071 217.788 138.492 243.983 130.33 278.809L129.583 282L128.302 278.982C119.011 257.091 107.052 220.2 101.334 180.597C95.6201 141.022 96.113 98.5666 111.905 65.6678L112.226 65ZM113.518 67.2611C98.311 99.4969 97.7998 141.135 103.453 180.292C108.889 217.941 120 253.136 129.028 275.162C137.865 241.305 159.208 215.748 182.474 197.499C205.902 179.122 231.341 168.105 248.114 163.445C219.663 94.0541 147.151 70.4744 113.518 67.2611Z" fill="black"/>
<path d="M563.244 66C594.454 131.092 565.339 234.455 546.881 278C530.47 207.886 460.122 172.671 427 163.828C455.458 92.6717 529.687 68.9609 563.244 66Z" fill="#3D3D3D"/>
<path fill-rule="evenodd" clip-rule="evenodd" d="M563.774 65L563.035 65.0652C529.176 68.0491 454.213 91.9237 425.447 163.762L425 164.88L426.165 165.19C442.651 169.587 468.469 180.562 492.202 199.178C515.929 217.788 537.508 243.983 545.67 278.809L546.417 282L547.698 278.982C556.989 257.091 568.948 220.2 574.666 180.597C580.38 141.022 579.887 98.5666 564.095 65.6678L563.774 65ZM562.482 67.2611C577.689 99.4969 578.2 141.135 572.547 180.292C567.111 217.941 556 253.136 546.972 275.162C538.135 241.305 516.792 215.748 493.526 197.499C470.098 179.122 444.659 168.105 427.886 163.445C456.337 94.0541 528.849 70.4744 562.482 67.2611Z" fill="#202020"/>
<path opacity="0.5" fill-rule="evenodd" clip-rule="evenodd" d="M575.978 8.85564C576.096 9.43427 575.724 9.9991 575.148 10.1172C538.868 17.5579 501.452 46.5602 469.349 79.9881C437.279 113.381 410.664 151.026 395.976 175.483C395.672 175.989 395.018 176.151 394.515 175.846C394.011 175.541 393.85 174.884 394.153 174.378C408.911 149.806 435.619 112.029 467.817 78.5031C499.981 45.0124 537.777 15.5989 574.723 8.02182C575.299 7.9037 575.861 8.27702 575.978 8.85564Z" fill="#F5F5F4" fill-opacity="0.5"/>
<path opacity="0.5" fill-rule="evenodd" clip-rule="evenodd" d="M76.0217 8.85564C75.9041 9.43427 76.2757 9.9991 76.8517 10.1172C113.132 17.5579 150.548 46.5602 182.651 79.9881C214.721 113.381 241.336 151.026 256.024 175.483C256.328 175.989 256.982 176.151 257.485 175.846C257.989 175.541 258.15 174.884 257.847 174.378C243.089 149.806 216.381 112.029 184.183 78.5031C152.019 45.0124 114.223 15.5989 77.2774 8.02182C76.7015 7.9037 76.1393 8.27702 76.0217 8.85564Z" fill="#F5F5F4" fill-opacity="0.5"/>
<path opacity="0.5" fill-rule="evenodd" clip-rule="evenodd" d="M517.936 0.701409C518.136 1.2534 517.85 1.86286 517.298 2.06269C488.504 12.4735 461.784 41.8897 440.038 74.6712C418.325 107.405 401.71 143.282 393.061 166.31C392.855 166.86 392.241 167.138 391.691 166.932C391.14 166.726 390.862 166.113 391.068 165.563C399.763 142.413 416.447 106.388 438.264 73.4971C460.05 40.654 487.093 10.7228 516.573 0.0637652C517.126 -0.136062 517.736 0.149421 517.936 0.701409Z" fill="#F5F5F4" fill-opacity="0.5"/>
<path opacity="0.5" fill-rule="evenodd" clip-rule="evenodd" d="M134.064 0.701409C133.864 1.2534 134.15 1.86286 134.702 2.06269C163.496 12.4735 190.216 41.8897 211.962 74.6712C233.675 107.405 250.29 143.282 258.939 166.31C259.145 166.86 259.759 167.138 260.309 166.932C260.86 166.726 261.138 166.113 260.932 165.563C252.237 142.413 235.553 106.388 213.736 73.4971C191.95 40.654 164.907 10.7228 135.427 0.0637652C134.874 -0.136062 134.264 0.149421 134.064 0.701409Z" fill="#F5F5F4" fill-opacity="0.5"/>
<path opacity="0.5" fill-rule="evenodd" clip-rule="evenodd" d="M565.356 37.7724C565.43 38.3566 565.016 38.8903 564.432 38.9645C533.993 42.8271 501.398 65.7478 472.927 93.0558C444.497 120.324 420.361 151.789 406.839 172.429C406.516 172.921 405.855 173.059 405.363 172.736C404.87 172.414 404.732 171.753 405.055 171.26C418.649 150.511 442.885 118.915 471.451 91.5166C499.975 64.1573 532.999 40.8034 564.164 36.8487C564.748 36.7746 565.282 37.1881 565.356 37.7724Z" fill="#F5F5F4" fill-opacity="0.5"/>
<path opacity="0.5" fill-rule="evenodd" clip-rule="evenodd" d="M86.5823 37.7724C86.5082 38.3566 86.9217 38.8903 87.506 38.9645C117.945 42.8271 150.54 65.7478 179.011 93.0558C207.441 120.324 231.577 151.789 245.099 172.429C245.422 172.921 246.083 173.059 246.575 172.736C247.068 172.414 247.206 171.753 246.883 171.26C233.289 150.511 209.053 118.915 180.487 91.5166C151.962 64.1573 118.939 40.8034 87.7745 36.8487C87.1902 36.7746 86.6565 37.1881 86.5823 37.7724Z" fill="#F5F5F4" fill-opacity="0.5"/>
<path fill-rule="evenodd" clip-rule="evenodd" d="M537.234 390.882C490.857 393.506 446.883 402.506 420.582 410L420 407.952C446.434 400.42 490.564 391.39 537.114 388.755C583.633 386.123 632.735 389.867 669 408.023L668.049 409.928C632.289 392.024 583.642 388.255 537.234 390.882Z" fill="#F5F5F4" fill-opacity="0.5"/>
<path fill-rule="evenodd" clip-rule="evenodd" d="M524.705 369.236C482.918 377.931 444.481 391.843 421.88 402L421 400.073C443.728 389.859 482.313 375.896 524.268 367.166C566.195 358.442 611.637 354.913 648 365.707L647.389 367.734C611.54 357.092 566.52 360.536 524.705 369.236Z" fill="#F5F5F4" fill-opacity="0.5"/>
<path fill-rule="evenodd" clip-rule="evenodd" d="M532.245 418.056C493.205 413.467 452.59 413.574 427.125 415.086L427 412.938C452.562 411.421 493.303 411.313 532.491 415.919C552.085 418.223 571.318 421.708 588.082 426.796C604.829 431.879 619.202 438.588 629 447.392L627.585 449C618.123 440.497 604.091 433.901 587.469 428.856C570.865 423.816 551.765 420.351 532.245 418.056Z" fill="#F5F5F4" fill-opacity="0.5"/>
<path fill-rule="evenodd" clip-rule="evenodd" d="M131.766 390.882C178.143 393.506 222.117 402.506 248.418 410L249 407.952C222.566 400.42 178.436 391.39 131.886 388.755C85.3669 386.123 36.2646 389.867 0 408.023L0.95108 409.928C36.7108 392.024 85.358 388.255 131.766 390.882Z" fill="#F5F5F4" fill-opacity="0.5"/>
<path fill-rule="evenodd" clip-rule="evenodd" d="M144.295 369.236C186.082 377.931 224.519 391.843 247.12 402L248 400.073C225.272 389.859 186.687 375.896 144.732 367.166C102.805 358.442 57.3627 354.913 21 365.707L21.6112 367.734C57.4605 357.092 102.48 360.536 144.295 369.236Z" fill="#F5F5F4" fill-opacity="0.5"/>
<path fill-rule="evenodd" clip-rule="evenodd" d="M136.755 418.056C175.795 413.467 216.41 413.574 241.875 415.086L242 412.938C216.438 411.421 175.697 411.313 136.509 415.919C116.915 418.223 97.6821 421.708 80.9179 426.796C64.1707 431.879 49.7976 438.588 40 447.392L41.4152 449C50.877 440.497 64.909 433.901 81.5305 428.856C98.1351 423.816 117.235 420.351 136.755 418.056Z" fill="#F5F5F4" fill-opacity="0.5"/>
<path d="M373.949 305.126C385.444 353.159 422.016 385.576 455.633 377.53C489.251 369.485 507.185 324.024 495.69 275.991C484.195 227.958 447.623 195.541 414.005 203.587C380.387 211.632 362.454 257.093 373.949 305.126Z" fill="#007FFF"/>
<path fill-rule="evenodd" clip-rule="evenodd" d="M410.896 357.392C397.251 345.297 385.871 326.437 380.402 303.582C374.932 280.726 376.541 258.758 383.232 241.796C389.933 224.81 401.425 213.42 415.55 210.04C429.675 206.659 445.078 211.613 458.742 223.725C472.388 235.82 483.767 254.68 489.237 277.535C494.707 300.391 493.098 322.359 486.407 339.321C479.706 356.307 468.214 367.697 454.089 371.077C439.964 374.458 424.561 369.504 410.896 357.392ZM455.633 377.53C422.016 385.576 385.444 353.159 373.949 305.126C362.454 257.093 380.387 211.632 414.005 203.587C447.623 195.541 484.195 227.958 495.69 275.991C507.185 324.024 489.251 369.485 455.633 377.53Z" fill="#202020"/>
<mask id="mask0_1604_6327" style="mask-type:alpha" maskUnits="userSpaceOnUse" x="370" y="202" width="130" height="177">
<path d="M373.948 305.126C385.444 353.159 422.015 385.576 455.633 377.53C489.251 369.485 507.185 324.024 495.689 275.991C484.194 227.958 447.623 195.541 414.005 203.587C380.387 211.632 362.453 257.093 373.948 305.126Z" fill="#D9D9D9"/>
</mask>
<g mask="url(#mask0_1604_6327)">
<path d="M403.023 281.949C406.998 297.346 400.976 312.214 389.571 315.159C378.166 318.104 365.698 308.01 361.722 292.614C357.747 277.217 363.769 262.349 375.174 259.404C386.579 256.459 399.047 266.553 403.023 281.949Z" fill="#D9D9D9"/>
<path d="M497.608 230.291C509.379 253.392 505.049 279.187 487.937 287.906C470.826 296.625 447.412 284.966 435.642 261.866C423.871 238.765 428.201 212.97 445.312 204.251C462.424 195.532 485.838 207.191 497.608 230.291Z" fill="#D9D9D9"/>
</g>
<path d="M302.289 305.126C290.794 353.159 254.222 385.576 220.604 377.53C186.986 369.485 169.053 324.024 180.548 275.991C192.043 227.958 228.615 195.541 262.232 203.587C295.85 211.632 313.784 257.093 302.289 305.126Z" fill="#7C20BE"/>
<path fill-rule="evenodd" clip-rule="evenodd" d="M265.341 357.392C278.987 345.297 290.366 326.437 295.836 303.582C301.306 280.726 299.697 258.758 293.006 241.796C286.305 224.81 274.813 213.42 260.688 210.04C246.563 206.659 231.16 211.613 217.495 223.725C203.85 235.82 192.47 254.68 187.001 277.535C181.531 300.391 183.14 322.359 189.831 339.321C196.532 356.307 208.024 367.697 222.149 371.077C236.274 374.458 251.677 369.504 265.341 357.392ZM220.604 377.53C254.222 385.576 290.794 353.159 302.289 305.126C313.784 257.093 295.85 211.632 262.232 203.587C228.615 195.541 192.043 227.958 180.548 275.991C169.053 324.024 186.986 369.485 220.604 377.53Z" fill="#202020"/>
<mask id="mask1_1604_6327" style="mask-type:alpha" maskUnits="userSpaceOnUse" x="177" y="202" width="129" height="177">
<path d="M302.288 305.126C290.793 353.159 254.222 385.576 220.604 377.53C186.986 369.485 169.052 324.024 180.547 275.991C192.043 227.958 228.614 195.541 262.232 203.587C295.85 211.632 313.784 257.093 302.288 305.126Z" fill="#D9D9D9"/>
</mask>
<g mask="url(#mask1_1604_6327)">
<path d="M215.341 281.949C219.316 297.346 213.294 312.214 201.889 315.159C190.484 318.104 178.016 308.01 174.041 292.614C170.065 277.217 176.088 262.349 187.492 259.404C198.897 256.459 211.365 266.553 215.341 281.949Z" fill="#D9D9D9"/>
<path d="M309.926 230.291C321.697 253.392 317.367 279.187 300.256 287.906C283.144 296.625 259.731 284.966 247.96 261.866C236.189 238.765 240.519 212.97 257.631 204.251C274.742 195.532 298.156 207.191 309.926 230.291Z" fill="#D9D9D9"/>
</g>
</svg>
