<svg width="466" height="440" viewBox="0 0 466 440" fill="none" xmlns="http://www.w3.org/2000/svg">
<path fill-rule="evenodd" clip-rule="evenodd" d="M4.7368 288.001C7.4847 277.331 18.3619 270.909 29.0317 273.657C54.9529 280.333 94.45 313.416 104.796 386.036C108.931 415.062 120.048 430.747 130.331 439.205C141.072 448.041 152.287 450.161 157.874 449.965C168.886 449.578 178.125 458.191 178.512 469.202C178.899 480.214 170.286 489.453 159.275 489.84C144.305 490.366 123.497 485.247 104.984 470.02C86.0136 454.415 70.6446 429.213 65.2951 391.663C56.6716 331.133 25.9151 314.056 19.0806 312.296C8.41085 309.548 1.98889 298.671 4.7368 288.001Z" fill="white"/>
<path fill-rule="evenodd" clip-rule="evenodd" d="M0.765913 286.977C4.0791 274.113 17.1939 266.37 30.0586 269.683C57.9511 276.866 98.3406 311.603 108.862 385.457C112.872 413.604 123.551 428.311 132.941 436.036C142.884 444.214 153.112 446.026 157.734 445.864C171.01 445.397 182.151 455.782 182.617 469.058C183.083 482.335 172.699 493.475 159.422 493.941C143.487 494.501 121.693 489.075 102.381 473.189C82.5154 456.849 66.7098 430.667 61.2356 392.242C52.7913 332.97 22.9439 317.528 18.0605 316.27C5.19577 312.957 -2.54727 299.842 0.765913 286.977ZM29.0351 273.657C18.3653 270.909 7.48809 277.331 4.74018 288.001C1.99228 298.671 8.41424 309.548 19.084 312.296C25.9185 314.056 56.675 331.133 65.2985 391.663C70.648 429.213 86.0169 454.415 104.988 470.02C123.5 485.247 144.308 490.366 159.278 489.84C170.289 489.453 178.902 480.214 178.516 469.202C178.129 458.191 168.889 449.578 157.878 449.965C152.29 450.161 141.076 448.041 130.334 439.205C120.051 430.747 108.934 415.062 104.799 386.036C94.4534 313.416 54.9562 280.333 29.0351 273.657Z" fill="#A0A0A0"/>
<path d="M153.889 0C134.372 58.5497 148.493 117.343 157.993 139.42C169.392 99.9313 203.25 80.8631 218.754 76.2651C212.097 41.0623 172.737 10.7539 153.889 0Z" fill="white"/>
<path fill-rule="evenodd" clip-rule="evenodd" d="M155.371 132.674C156.264 135.196 157.147 137.454 157.993 139.42C158.661 137.105 159.407 134.859 160.222 132.683C173.3 97.7447 204.159 80.5935 218.754 76.2651C212.539 43.4001 177.82 14.8009 157.899 2.39684C156.483 1.51452 155.14 0.714141 153.889 0C153.395 1.48211 152.922 2.96437 152.471 4.4462C136.673 56.289 146.498 107.589 155.371 132.674ZM157.983 126.085C171.396 95.6001 197.708 79.1871 213.403 73.267C209.474 58.3522 199.389 44.174 187.633 32.1525C177.016 21.2968 165.349 12.5192 156.494 6.89947C142.501 53.9395 149.964 100.466 157.983 126.085Z" fill="#A0A0A0"/>
<path d="M358.627 0C378.143 58.5497 364.023 117.343 354.523 139.42C343.123 99.9313 309.265 80.8631 293.761 76.2651C300.419 41.0623 339.779 10.7539 358.627 0Z" fill="white"/>
<path fill-rule="evenodd" clip-rule="evenodd" d="M357.144 132.674C356.252 135.196 355.369 137.454 354.523 139.42C353.854 137.105 353.109 134.859 352.294 132.683C339.215 97.7447 308.356 80.5935 293.761 76.2651C299.977 43.4001 334.696 14.8009 354.616 2.39684C356.033 1.51452 357.375 0.714141 358.627 0C359.121 1.48211 359.593 2.96437 360.045 4.4462C375.843 56.289 366.018 107.589 357.144 132.674ZM354.532 126.085C341.119 95.6001 314.808 79.1871 299.113 73.267C303.042 58.3522 313.126 44.174 324.883 32.1525C335.499 21.2968 347.166 12.5192 356.021 6.89947C370.014 53.9395 362.552 100.466 354.532 126.085Z" fill="#A0A0A0"/>
<path fill-rule="evenodd" clip-rule="evenodd" d="M169.725 352.336C154.441 441.541 142.767 509.675 207.761 545.37H243.899H268.637H304.774C369.768 509.675 358.095 441.541 342.811 352.336C336.734 316.87 330.087 278.074 327.46 236.661C305.663 250.067 270.955 253.875 256.325 254.103L256.268 255.439L256.211 254.103C241.581 253.875 206.872 250.067 185.075 236.661C182.449 278.074 175.801 316.87 169.725 352.336Z" fill="white"/>
<path fill-rule="evenodd" clip-rule="evenodd" d="M206.766 549.246L205.895 548.767C189.121 539.555 177.137 528.154 168.939 514.712C160.756 501.294 156.471 486.047 154.781 469.309C151.433 436.138 158.246 396.376 165.826 352.137L165.904 351.681C171.984 316.194 178.595 277.593 181.206 236.416L181.615 229.983L187.105 233.36C197.44 239.716 211.054 243.906 224.093 246.524C237.083 249.132 249.18 250.117 256.267 250.228C263.353 250.117 275.451 249.132 288.441 246.524C301.48 243.906 315.094 239.716 325.429 233.36L330.919 229.983L331.327 236.416C333.939 277.593 340.55 316.194 346.63 351.681L346.708 352.138C354.288 396.376 361.101 436.138 357.752 469.309C356.063 486.047 351.778 501.294 343.594 514.712C335.397 528.154 323.413 539.555 306.639 548.767L305.768 549.246H206.766ZM260.084 253.982C258.72 254.046 257.461 254.085 256.324 254.103L256.267 255.439L256.21 254.103C255.073 254.085 253.814 254.046 252.45 253.982C237.236 253.271 208.866 249.519 188.819 238.807C187.535 238.121 186.285 237.406 185.075 236.661C184.983 238.11 184.886 239.556 184.784 240.999C181.983 280.785 175.588 318.111 169.724 352.336C154.44 441.541 142.766 509.675 207.76 545.37H304.773C369.768 509.675 358.094 441.541 342.81 352.336L342.81 352.335C336.946 318.111 330.55 280.785 327.749 240.999C327.648 239.556 327.551 238.11 327.459 236.661C326.249 237.406 324.999 238.121 323.714 238.807C303.668 249.519 275.297 253.271 260.084 253.982Z" fill="#A0A0A0"/>
<path d="M382.359 155.494C382.359 210.395 325.961 254.901 256.39 254.901C186.82 254.901 130.422 210.395 130.422 155.494C130.422 100.593 186.82 56.0874 256.39 56.0874C325.961 56.0874 382.359 100.593 382.359 155.494Z" fill="white"/>
<path fill-rule="evenodd" clip-rule="evenodd" d="M256.39 251.709C324.944 251.709 379.167 207.969 379.167 155.494C379.167 103.019 324.944 59.2794 256.39 59.2794C187.837 59.2794 133.614 103.019 133.614 155.494C133.614 207.969 187.837 251.709 256.39 251.709ZM256.39 254.901C325.961 254.901 382.359 210.395 382.359 155.494C382.359 100.593 325.961 56.0874 256.39 56.0874C186.82 56.0874 130.422 100.593 130.422 155.494C130.422 210.395 186.82 254.901 256.39 254.901Z" fill="#A0A0A0"/>
<path d="M238.406 144.664C238.406 164.245 223.418 180.118 204.93 180.118C186.441 180.118 171.453 164.245 171.453 144.664C171.453 125.084 186.441 109.211 204.93 109.211C223.418 109.211 238.406 125.084 238.406 144.664Z" fill="#DDDDDD"/>
<path fill-rule="evenodd" clip-rule="evenodd" d="M241.602 144.664C241.602 165.833 225.356 183.31 204.934 183.31C184.513 183.31 168.266 165.833 168.266 144.664C168.266 123.496 184.513 106.019 204.934 106.019C225.356 106.019 241.602 123.496 241.602 144.664ZM204.934 180.118C223.423 180.118 238.411 164.245 238.411 144.664C238.411 125.084 223.423 109.211 204.934 109.211C186.446 109.211 171.458 125.084 171.458 144.664C171.458 164.245 186.446 180.118 204.934 180.118Z" fill="#A0A0A0"/>
<path d="M341.312 144.664C341.312 164.245 326.324 180.118 307.836 180.118C289.347 180.118 274.359 164.245 274.359 144.664C274.359 125.084 289.347 109.211 307.836 109.211C326.324 109.211 341.312 125.084 341.312 144.664Z" fill="#DDDDDD"/>
<path fill-rule="evenodd" clip-rule="evenodd" d="M344.509 144.664C344.509 165.833 328.262 183.31 307.84 183.31C287.419 183.31 271.172 165.833 271.172 144.664C271.172 123.496 287.419 106.019 307.84 106.019C328.262 106.019 344.509 123.496 344.509 144.664ZM307.84 180.118C326.329 180.118 341.317 164.245 341.317 144.664C341.317 125.084 326.329 109.211 307.84 109.211C289.352 109.211 274.364 125.084 274.364 144.664C274.364 164.245 289.352 180.118 307.84 180.118Z" fill="#A0A0A0"/>
<path fill-rule="evenodd" clip-rule="evenodd" d="M178.632 263.902C179.547 263.526 180.577 263.401 181.619 263.591C198.821 266.732 226.276 270.155 256.258 270.663C286.24 270.155 313.695 266.732 330.897 263.591C331.939 263.401 332.969 263.526 333.884 263.902C336.19 264.172 338.165 265.91 338.553 268.333L340.55 280.815C340.952 283.329 339.518 285.769 337.081 286.503C321.042 291.336 292.122 296.641 256.258 296.375C220.394 296.641 191.474 291.336 175.435 286.503C172.997 285.769 171.563 283.329 171.966 280.815L173.963 268.333C174.351 265.91 176.326 264.172 178.632 263.902Z" fill="#002952"/>
<path fill-rule="evenodd" clip-rule="evenodd" d="M270.028 534.852C269.928 534.866 269.837 534.799 269.823 534.699C261.781 475.854 268.734 381.336 273.293 340.622C273.342 340.184 273.734 339.895 274.172 339.944C274.61 339.994 274.928 340.364 274.879 340.802C270.468 380.197 263.835 469.84 270.677 528.72C270.886 530.513 273.405 531.353 275.009 530.524C276.539 529.734 278.423 529.082 280.714 528.611C281.207 528.509 281.689 528.827 281.791 529.32C281.892 529.814 281.575 530.296 281.081 530.397C274.525 531.746 272.088 534.508 271.419 537.141C270.756 539.752 271.726 542.589 272.961 544.537C273.026 544.64 273.135 544.704 273.249 544.748C276.262 545.918 281.659 547.344 287.954 547.759C294.248 548.174 301.377 547.576 307.896 544.761C308.359 544.561 308.896 544.774 309.095 545.236C309.295 545.699 309.082 546.235 308.62 546.435C301.753 549.401 294.312 550.007 287.834 549.579C281.356 549.152 275.777 547.686 272.588 546.448C272.357 546.358 272.123 546.242 271.912 546.111C271.807 546.045 271.713 545.957 271.639 545.848C270.168 543.677 268.775 540.141 269.652 536.692C269.788 536.156 269.976 535.632 270.221 535.122C270.285 534.988 270.176 534.832 270.028 534.852ZM214.596 528.855C214.596 529.359 214.188 529.767 213.684 529.767C210.82 529.767 208.716 530.377 207.198 531.308C205.685 532.235 204.7 533.511 204.12 534.94C202.941 537.84 203.424 541.382 204.663 543.728C204.898 544.173 204.727 544.725 204.282 544.96C203.836 545.195 203.285 545.024 203.049 544.579C201.603 541.839 201.016 537.732 202.43 534.254C203.145 532.494 204.373 530.899 206.245 529.753C206.456 529.623 206.675 529.5 206.901 529.383C206.947 529.359 206.932 529.29 206.881 529.287C206.853 529.286 206.832 529.263 206.834 529.235C209.532 478.466 194.137 398.768 185.912 364.446C185.81 364.018 186.079 363.61 186.507 363.507C186.936 363.404 187.361 363.644 187.464 364.072C195.5 397.609 210.426 474.616 208.587 525.721C208.535 527.17 209.966 528.243 211.405 528.072C212.121 527.987 212.881 527.943 213.684 527.943C214.188 527.943 214.596 528.351 214.596 528.855ZM241.56 546.071C241.352 546.224 241.114 546.355 240.873 546.448C237.684 547.686 232.105 549.152 225.627 549.579C219.149 550.007 211.709 549.401 204.842 546.435C204.379 546.235 204.166 545.699 204.366 545.236C204.566 544.774 205.102 544.561 205.565 544.761C212.084 547.576 219.213 548.174 225.507 547.759C231.802 547.344 237.199 545.918 240.213 544.748C240.236 544.739 240.259 544.731 240.283 544.724C240.292 544.721 240.302 544.718 240.312 544.715C240.332 544.71 240.349 544.699 240.36 544.682C241.638 542.731 242.675 539.817 241.995 537.141C241.325 534.508 238.889 531.746 232.333 530.397C231.839 530.296 231.522 529.814 231.623 529.32C231.724 528.827 232.207 528.509 232.7 528.611C234.782 529.039 236.528 529.616 237.978 530.311C239.5 531.042 241.653 530.229 241.847 528.551C248.657 469.67 242.033 380.159 237.626 340.802C237.577 340.364 237.895 339.994 238.333 339.944C238.771 339.895 239.163 340.184 239.212 340.622C243.741 381.076 250.635 474.652 242.834 533.569C242.771 534.045 242.885 534.514 243.103 534.941C243.393 535.508 243.61 536.093 243.762 536.692C244.639 540.141 243.246 543.677 241.775 545.848C241.715 545.936 241.642 546.011 241.56 546.071ZM298.818 528.855C298.818 529.359 299.226 529.767 299.73 529.767C302.593 529.767 304.698 530.377 306.216 531.308C307.729 532.235 308.713 533.511 309.294 534.94C310.473 537.84 309.99 541.382 308.751 543.728C308.516 544.173 308.687 544.725 309.132 544.96C309.578 545.195 310.129 545.024 310.364 544.579C311.811 541.839 312.398 537.732 310.984 534.254C310.269 532.494 309.041 530.899 307.169 529.753C307.057 529.684 306.942 529.617 306.826 529.551C306.134 529.164 305.632 528.498 305.596 527.707C303.279 476.88 318.45 398.426 326.592 364.447C326.695 364.018 326.426 363.61 325.997 363.507C325.569 363.404 325.144 363.644 325.041 364.072C317.007 397.6 302.087 474.574 303.916 525.679C303.966 527.062 302.663 528.108 301.283 528.001C300.785 527.963 300.267 527.943 299.73 527.943C299.226 527.943 298.818 528.351 298.818 528.855Z" fill="#A0A0A0"/>
<path fill-rule="evenodd" clip-rule="evenodd" d="M274.085 340.737C274.086 340.729 274.087 340.721 274.087 340.713L274.085 340.737ZM272.502 340.533C272.604 339.623 273.422 339.056 274.264 339.151C275.106 339.247 275.775 339.983 275.674 340.891C271.264 380.277 264.641 469.844 271.472 528.628C271.531 529.136 271.929 529.598 272.609 529.861C273.29 530.123 274.079 530.107 274.645 529.815C276.252 528.985 278.208 528.312 280.555 527.829C281.48 527.639 282.384 528.234 282.574 529.16C282.765 530.085 282.169 530.989 281.244 531.179C274.86 532.492 272.761 535.109 272.195 537.337C271.616 539.614 272.436 542.174 273.58 544.02C276.526 545.158 281.822 546.554 288.009 546.963C294.222 547.373 301.214 546.778 307.582 544.028C307.675 543.988 307.769 543.957 307.864 543.934C307.889 543.737 307.949 543.541 308.048 543.355C309.195 541.182 309.633 537.887 308.557 535.241C308.035 533.957 307.158 532.819 305.801 531.988C304.435 531.151 302.483 530.565 299.732 530.565C298.787 530.565 298.022 529.799 298.022 528.855C298.022 527.91 298.787 527.145 299.732 527.145C300.289 527.145 300.827 527.165 301.346 527.206C302.344 527.283 303.15 526.526 303.121 525.708C301.288 474.486 316.231 397.422 324.267 363.886C324.48 362.997 325.362 362.532 326.187 362.731C327.012 362.93 327.583 363.746 327.37 364.632C319.229 398.606 304.084 476.965 306.395 527.67C306.416 528.127 306.71 528.57 307.218 528.855C307.343 528.925 307.467 528.998 307.588 529.072C309.616 530.315 310.951 532.048 311.725 533.953C313.242 537.685 312.609 542.039 311.072 544.951C310.833 545.405 310.419 545.706 309.956 545.817C309.881 546.395 309.512 546.92 308.938 547.168C301.919 550.199 294.342 550.808 287.783 550.375C281.226 549.942 275.566 548.46 272.301 547.192C272.024 547.084 271.746 546.946 271.493 546.788C271.294 546.665 271.119 546.499 270.98 546.295C269.444 544.028 267.924 540.254 268.88 536.495C268.981 536.097 269.109 535.703 269.265 535.316C269.145 535.18 269.062 535.006 269.034 534.807C260.978 475.856 267.943 381.251 272.502 340.533ZM238.245 339.151C239.087 339.056 239.905 339.624 240.007 340.534C244.537 380.993 251.442 474.652 243.627 533.674C243.59 533.953 243.652 534.257 243.816 534.578C244.133 535.199 244.371 535.84 244.538 536.495C245.493 540.254 243.974 544.028 242.437 546.295C242.326 546.46 242.189 546.601 242.035 546.714C241.77 546.909 241.469 547.073 241.164 547.192C237.899 548.46 232.239 549.942 225.682 550.375C219.123 550.808 211.546 550.199 204.527 547.168C203.957 546.921 203.589 546.401 203.51 545.828C203.028 545.727 202.593 545.421 202.346 544.951C200.809 542.039 200.175 537.685 201.693 533.953C202.467 532.048 203.801 530.315 205.83 529.072C205.903 529.027 205.977 528.983 206.052 528.939C208.679 478.284 193.348 398.893 185.138 364.632C184.926 363.746 185.497 362.93 186.322 362.731C187.147 362.532 188.029 362.997 188.242 363.886C196.28 397.431 211.229 474.528 209.387 525.75C209.356 526.605 210.25 527.406 211.313 527.28C212.063 527.191 212.853 527.145 213.686 527.145C214.63 527.145 215.396 527.91 215.396 528.855C215.396 529.799 214.63 530.565 213.686 530.565C210.935 530.565 208.983 531.151 207.616 531.988C206.26 532.819 205.383 533.957 204.861 535.241C203.785 537.887 204.223 541.182 205.37 543.355C205.467 543.538 205.527 543.73 205.553 543.923C205.664 543.946 205.775 543.981 205.883 544.028C212.251 546.778 219.243 547.373 225.456 546.963C231.6 546.557 236.866 545.177 239.823 544.044C240.972 542.2 241.805 539.626 241.223 537.337C240.657 535.109 238.558 532.492 232.174 531.179C231.249 530.989 230.653 530.085 230.843 529.16C231.034 528.234 231.938 527.639 232.863 527.829C234.996 528.268 236.806 528.864 238.324 529.592C238.857 529.847 239.535 529.842 240.099 529.6C240.657 529.362 241 528.947 241.056 528.46C247.856 469.673 241.241 380.239 236.835 340.891C236.734 339.983 237.402 339.247 238.245 339.151ZM240.057 543.96C240.075 543.954 240.093 543.948 240.111 543.944L240.314 544.715L240.516 545.487L240.514 545.488L240.513 545.488C240.51 545.489 240.507 545.49 240.503 545.492L240.215 544.748L240.13 544.53M240.517 545.487L240.314 544.715L240.112 543.943C240.112 543.944 240.111 543.944 240.111 543.944C240.102 543.946 240.092 543.949 240.083 543.951M240.517 545.487C240.71 545.436 240.9 545.316 241.029 545.119C242.371 543.072 243.527 539.923 242.77 536.944C241.998 533.907 239.224 530.999 232.495 529.616C232.434 529.603 232.394 529.543 232.407 529.481C232.419 529.419 232.48 529.38 232.541 529.392C234.572 529.81 236.254 530.369 237.634 531.031C238.625 531.506 239.785 531.47 240.726 531.068C241.669 530.665 242.497 529.841 242.64 528.658C242.452 530.284 242.253 531.887 242.044 533.465C241.955 534.138 242.122 534.77 242.395 535.304C242.656 535.816 242.853 536.345 242.991 536.888C243.789 540.028 242.522 543.326 241.116 545.4C241.108 545.412 241.099 545.421 241.089 545.428C240.939 545.539 240.762 545.636 240.586 545.704C237.474 546.913 231.974 548.36 225.577 548.783C219.179 549.205 211.875 548.602 205.16 545.703C205.102 545.678 205.075 545.61 205.1 545.553C205.125 545.495 205.192 545.468 205.25 545.493C211.922 548.374 219.187 548.976 225.562 548.555C231.936 548.134 237.413 546.692 240.503 545.492L240.215 544.748M240.516 545.487C240.517 545.487 240.517 545.487 240.517 545.487L240.516 545.487ZM270.561 534.188C270.975 534.439 271.171 534.992 270.942 535.468C270.72 535.928 270.55 536.403 270.427 536.888C269.629 540.028 270.896 543.326 272.302 545.4C272.312 545.415 272.323 545.425 272.335 545.433C272.504 545.538 272.693 545.632 272.879 545.704C275.991 546.913 281.491 548.36 287.888 548.783C294.286 549.205 301.59 548.602 308.305 545.703C308.363 545.678 308.39 545.61 308.365 545.553C308.34 545.495 308.273 545.468 308.215 545.493C301.543 548.374 294.278 548.976 287.903 548.555C281.529 548.134 276.052 546.692 272.962 545.492C272.786 545.424 272.488 545.279 272.289 544.964C270.993 542.919 269.909 539.852 270.648 536.944C271.42 533.907 274.194 530.999 280.922 529.616C280.984 529.603 281.024 529.543 281.011 529.481C280.999 529.419 280.938 529.38 280.877 529.392C278.642 529.852 276.829 530.483 275.377 531.233C274.339 531.769 273.066 531.748 272.035 531.35C271.005 530.952 270.042 530.102 269.888 528.823C270.099 530.641 270.324 532.431 270.561 534.188ZM325.813 364.283C317.779 397.818 302.891 474.679 304.715 525.651C304.716 525.655 304.716 525.659 304.716 525.663C304.778 527.604 302.981 528.933 301.223 528.797C300.746 528.76 300.25 528.741 299.732 528.741C299.669 528.741 299.618 528.792 299.618 528.855C299.618 528.918 299.669 528.969 299.732 528.969C302.708 528.969 304.965 529.604 306.635 530.627C308.305 531.65 309.396 533.066 310.036 534.64C311.317 537.792 310.788 541.582 309.459 544.1C309.43 544.156 309.451 544.225 309.507 544.254C309.562 544.283 309.631 544.262 309.661 544.206C311.016 541.639 311.558 537.779 310.247 534.554C309.59 532.939 308.469 531.483 306.754 530.433C306.651 530.369 306.545 530.308 306.438 530.247C305.563 529.757 304.852 528.87 304.8 527.743C304.769 527.055 304.741 526.361 304.716 525.663C304.716 525.659 304.716 525.655 304.715 525.651C302.891 474.674 317.779 397.815 325.813 364.283ZM207.649 528.972C207.822 529.354 207.716 529.861 207.269 530.092C207.06 530.2 206.858 530.314 206.664 530.433C204.949 531.483 203.828 532.939 203.171 534.554C201.86 537.779 202.402 541.639 203.757 544.206C203.787 544.262 203.855 544.283 203.911 544.254C203.967 544.225 203.988 544.156 203.959 544.1C202.629 541.582 202.101 537.792 203.382 534.64C204.022 533.066 205.113 531.65 206.783 530.627C208.453 529.604 210.71 528.969 213.686 528.969C213.749 528.969 213.8 528.918 213.8 528.855C213.8 528.792 213.749 528.741 213.686 528.741C212.912 528.741 212.184 528.783 211.501 528.865C209.689 529.08 207.725 527.74 207.791 525.703C207.752 526.805 207.704 527.895 207.649 528.972Z" fill="#A0A0A0"/>
<path fill-rule="evenodd" clip-rule="evenodd" d="M235.516 213.737C235.836 212.849 236.816 212.389 237.705 212.709C241.031 213.909 246.954 215.38 253.737 215.809C260.525 216.238 268.037 215.613 274.633 212.749C275.499 212.373 276.506 212.77 276.883 213.637C277.259 214.503 276.861 215.51 275.995 215.886C268.729 219.041 260.623 219.671 253.521 219.222C246.413 218.773 240.172 217.234 236.544 215.926C235.656 215.606 235.196 214.626 235.516 213.737Z" fill="#1D1D1D"/>
<path d="M263.569 176.242H249.968C246.83 176.242 245.156 179.94 247.227 182.298L254.564 190.651C256.093 192.391 258.834 192.285 260.224 190.432L266.487 182.079C268.291 179.674 266.575 176.242 263.569 176.242Z" fill="#1B1B1B"/>
<path d="M251.711 271.773C251.711 269.255 253.752 267.213 256.271 267.213C258.789 267.213 260.831 269.255 260.831 271.773V294.345C260.831 296.863 258.789 298.905 256.271 298.905C253.752 298.905 251.711 296.863 251.711 294.345V271.773Z" fill="#A5A5A5"/>
<path d="M238.719 316.821C238.642 316.816 238.566 316.81 238.492 316.802C238.567 316.808 238.643 316.814 238.719 316.821C243.611 317.153 256.39 313.277 256.39 298.905C256.39 313.277 269.169 317.153 274.061 316.821C274.137 316.814 274.213 316.808 274.288 316.802C274.214 316.81 274.138 316.816 274.061 316.821C268.061 317.361 256.745 321.411 256.39 333.517C256.401 333.903 256.401 334.297 256.39 334.7C256.378 334.297 256.379 333.903 256.39 333.517C256.035 321.411 244.719 317.361 238.719 316.821Z" fill="#FFE72F"/>
<g opacity="0.5">
<path fill-rule="evenodd" clip-rule="evenodd" d="M115.271 10.2745C115.379 9.78256 115.865 9.47156 116.357 9.57982C143.548 15.5643 161.344 28.3147 173.28 42.9586C185.203 57.5848 191.245 74.0558 195.018 87.4353C195.154 87.9201 194.872 88.4239 194.387 88.5606C193.903 88.6973 193.399 88.4151 193.262 87.9303C189.518 74.652 183.56 58.4567 171.867 44.1111C160.187 29.7833 142.751 17.2565 115.965 11.3612C115.473 11.2529 115.162 10.7664 115.271 10.2745Z" fill="#02020B"/>
<path fill-rule="evenodd" clip-rule="evenodd" d="M106.708 52.7983C106.762 52.2974 107.212 51.935 107.712 51.9887C148.847 56.3984 175.71 80.7653 184.053 92.4944C184.345 92.9048 184.249 93.4742 183.839 93.7662C183.429 94.0581 182.859 93.9621 182.567 93.5516C174.476 82.177 148.053 58.1477 107.518 53.8023C107.017 53.7486 106.655 53.2991 106.708 52.7983Z" fill="#02020B"/>
<path fill-rule="evenodd" clip-rule="evenodd" d="M54.8383 22.5073C54.8741 22.0049 55.3103 21.6266 55.8127 21.6624C144.422 27.972 181.347 68.7499 188.728 88.7171C188.903 89.1895 188.661 89.7141 188.189 89.8887C187.716 90.0634 187.192 89.822 187.017 89.3495C179.958 70.2532 143.817 29.7576 55.6832 23.4817C55.1808 23.446 54.8025 23.0097 54.8383 22.5073Z" fill="#02020B"/>
</g>
<g opacity="0.5">
<path fill-rule="evenodd" clip-rule="evenodd" d="M396.425 10.2745C396.317 9.78256 395.83 9.47156 395.338 9.57982C368.147 15.5643 350.352 28.3147 338.415 42.9586C326.493 57.5848 320.45 74.0558 316.678 87.4353C316.541 87.9201 316.823 88.4239 317.308 88.5606C317.793 88.6973 318.297 88.4151 318.433 87.9303C322.177 74.652 328.135 58.4567 339.829 44.1111C351.508 29.7833 368.944 17.2565 395.73 11.3612C396.222 11.2529 396.533 10.7664 396.425 10.2745Z" fill="#02020B"/>
<path fill-rule="evenodd" clip-rule="evenodd" d="M404.987 52.7983C404.933 52.2974 404.484 51.935 403.983 51.9887C362.848 56.3984 335.985 80.7653 327.642 92.4944C327.35 92.9048 327.446 93.4742 327.856 93.7662C328.267 94.0581 328.836 93.9621 329.128 93.5516C337.219 82.177 363.642 58.1477 404.177 53.8023C404.678 53.7486 405.041 53.2991 404.987 52.7983Z" fill="#02020B"/>
<path fill-rule="evenodd" clip-rule="evenodd" d="M456.857 22.5073C456.821 22.0049 456.385 21.6266 455.883 21.6624C367.273 27.972 330.348 68.7499 322.967 88.7171C322.793 89.1895 323.034 89.7141 323.507 89.8887C323.979 90.0634 324.504 89.822 324.678 89.3495C331.737 70.2532 367.878 29.7576 456.012 23.4817C456.515 23.446 456.893 23.0097 456.857 22.5073Z" fill="#02020B"/>
</g>
<g opacity="0.5">
<path fill-rule="evenodd" clip-rule="evenodd" d="M387.211 179.072C366.714 184.386 348.913 191.746 338.767 196.917C338.318 197.146 338.14 197.695 338.368 198.143C338.597 198.592 339.146 198.771 339.595 198.542C349.625 193.43 367.302 186.118 387.669 180.837C408.043 175.554 431.034 172.325 451.723 175.312C452.222 175.384 452.684 175.039 452.756 174.54C452.828 174.042 452.482 173.579 451.984 173.507C430.957 170.471 407.7 173.759 387.211 179.072Z" fill="black"/>
<path fill-rule="evenodd" clip-rule="evenodd" d="M336.528 211.781C336.513 212.285 336.908 212.706 337.411 212.721C348.946 213.082 367.718 214.095 386.529 215.963C405.364 217.834 424.152 220.554 435.768 224.305C436.248 224.46 436.762 224.197 436.917 223.718C437.071 223.239 436.808 222.725 436.329 222.57C424.507 218.752 405.543 216.019 386.709 214.148C367.851 212.275 349.038 211.26 337.468 210.898C336.965 210.882 336.544 211.278 336.528 211.781Z" fill="black"/>
<path fill-rule="evenodd" clip-rule="evenodd" d="M396.261 199.507C372.317 200.179 349.699 202.485 336.178 204.409C335.679 204.48 335.332 204.941 335.403 205.44C335.474 205.939 335.936 206.286 336.435 206.215C349.893 204.3 372.442 202.001 396.312 201.33C420.2 200.659 445.331 201.622 463.996 206.197C464.485 206.317 464.979 206.018 465.099 205.529C465.218 205.04 464.919 204.546 464.43 204.426C445.52 199.79 420.188 198.834 396.261 199.507Z" fill="black"/>
</g>
<g opacity="0.5">
<path fill-rule="evenodd" clip-rule="evenodd" d="M125.336 179.072C145.833 184.386 163.634 191.746 173.78 196.917C174.229 197.146 174.407 197.695 174.179 198.143C173.95 198.592 173.401 198.771 172.952 198.542C162.922 193.43 145.245 186.118 124.878 180.837C104.504 175.554 81.5125 172.325 60.8236 175.312C60.3251 175.384 59.8626 175.039 59.7907 174.54C59.7187 174.042 60.0644 173.579 60.5629 173.507C81.5898 170.471 104.847 173.759 125.336 179.072Z" fill="black"/>
<path fill-rule="evenodd" clip-rule="evenodd" d="M176.019 211.781C176.034 212.285 175.639 212.706 175.136 212.721C163.601 213.082 144.829 214.095 126.018 215.963C107.183 217.834 88.3947 220.554 76.7785 224.305C76.2992 224.46 75.7851 224.197 75.6303 223.718C75.4755 223.239 75.7386 222.725 76.2179 222.57C88.0397 218.752 107.004 216.019 125.838 214.148C144.696 212.275 163.509 211.26 175.079 210.898C175.582 210.882 176.003 211.278 176.019 211.781Z" fill="black"/>
<path fill-rule="evenodd" clip-rule="evenodd" d="M116.286 199.507C140.23 200.179 162.848 202.485 176.369 204.409C176.868 204.48 177.214 204.941 177.144 205.44C177.073 205.939 176.611 206.286 176.112 206.215C162.654 204.3 140.105 202.001 116.235 201.33C92.3471 200.659 67.2154 201.622 48.5512 206.197C48.062 206.317 47.5682 206.018 47.4483 205.529C47.3284 205.04 47.6277 204.546 48.1169 204.426C67.0267 199.79 92.3585 198.834 116.286 199.507Z" fill="black"/>
</g>
<path d="M325.809 150.364C325.809 165.538 314.835 177.838 301.299 177.838C287.762 177.838 276.789 165.538 276.789 150.364C276.789 135.191 287.762 122.891 301.299 122.891C314.835 122.891 325.809 135.191 325.809 150.364Z" fill="#007FFF"/>
<path d="M186.957 150.364C186.957 165.538 197.93 177.838 211.467 177.838C225.003 177.838 235.977 165.538 235.977 150.364C235.977 135.191 225.003 122.891 211.467 122.891C197.93 122.891 186.957 135.191 186.957 150.364Z" fill="#7C20BE"/>
<path d="M204.418 113.543C208.007 117.58 204.682 126.395 196.991 133.23C189.301 140.065 180.157 142.333 176.568 138.295C172.98 134.257 176.305 125.443 183.995 118.608C191.686 111.773 200.829 109.505 204.418 113.543Z" fill="white"/>
<path d="M307.949 113.543C311.538 117.58 308.213 126.395 300.523 133.23C292.832 140.065 283.688 142.333 280.1 138.295C276.511 134.257 279.836 125.443 287.526 118.608C295.217 111.773 304.361 109.505 307.949 113.543Z" fill="white"/>
</svg>
