<svg width="543" height="460" viewBox="0 0 543 460" fill="none" xmlns="http://www.w3.org/2000/svg">
<path d="M138.734 0C113.403 75.9924 131.731 152.3 144.061 180.955C158.857 129.702 202.801 104.953 222.924 98.9854C214.283 53.2953 163.197 13.9576 138.734 0Z" fill="#3D3D3D"/>
<path fill-rule="evenodd" clip-rule="evenodd" d="M140.659 172.199C141.817 175.473 142.963 178.403 144.061 180.955C144.928 177.95 145.896 175.035 146.954 172.21C163.929 126.864 203.981 104.603 222.924 98.9854C214.857 56.3294 169.795 19.2102 143.94 3.11088C142.101 1.96571 140.359 0.926891 138.734 0C138.093 1.92365 137.48 3.84749 136.894 5.77077C116.389 73.0582 129.142 139.641 140.659 172.199ZM144.048 163.647C161.458 124.08 195.607 102.778 215.978 95.094C210.878 75.736 197.79 57.3339 182.531 41.7311C168.752 27.6413 153.609 16.2488 142.116 8.95489C123.954 70.0087 133.64 130.396 144.048 163.647Z" fill="#202020"/>
<path d="M404.469 0C429.8 75.9924 411.472 152.3 399.142 180.955C384.347 129.702 340.402 104.953 320.279 98.9854C328.92 53.2953 380.006 13.9576 404.469 0Z" fill="#3D3D3D"/>
<path fill-rule="evenodd" clip-rule="evenodd" d="M402.545 172.199C401.386 175.473 400.241 178.403 399.142 180.955C398.275 177.95 397.307 175.035 396.249 172.21C379.275 126.864 339.222 104.603 320.279 98.9854C328.346 56.3294 373.408 19.2102 399.263 3.11088C401.103 1.96571 402.844 0.926891 404.469 0C405.11 1.92365 405.723 3.84749 406.309 5.77077C426.814 73.0582 414.062 139.641 402.545 172.199ZM399.155 163.647C381.746 124.08 347.596 102.778 327.225 95.094C332.325 75.736 345.413 57.3339 360.672 41.7311C374.451 27.6413 389.594 16.2488 401.087 8.95489C419.249 70.0087 409.563 130.396 399.155 163.647Z" fill="#202020"/>
<path fill-rule="evenodd" clip-rule="evenodd" d="M159.283 457.301C139.446 573.081 124.294 661.513 208.651 707.842H255.554H287.662H334.565C418.922 661.513 403.77 573.081 383.933 457.301C376.046 411.269 367.418 360.915 364.009 307.165C335.719 324.566 290.67 329.507 271.682 329.803L271.608 331.538L271.534 329.803C252.546 329.507 207.497 324.566 179.207 307.165C175.797 360.915 167.17 411.269 159.283 457.301Z" fill="#3D3D3D"/>
<path fill-rule="evenodd" clip-rule="evenodd" d="M207.365 712.872L206.234 712.251C184.463 700.295 168.909 685.497 158.269 668.051C147.648 650.635 142.087 630.845 139.894 609.121C135.548 566.068 144.39 514.461 154.228 457.043L154.33 456.451C162.221 410.392 170.801 360.291 174.191 306.847L174.721 298.497L181.847 302.88C195.261 311.131 212.931 316.569 229.854 319.966C246.714 323.351 262.415 324.629 271.613 324.773C280.81 324.629 296.512 323.351 313.372 319.966C330.295 316.569 347.965 311.131 361.378 302.88L368.505 298.497L369.035 306.847C372.425 360.291 381.004 410.392 388.896 456.451L388.998 457.043C398.835 514.461 407.678 566.068 403.332 609.121C401.139 630.845 395.577 650.635 384.956 668.051C374.317 685.497 358.762 700.295 336.992 712.251L335.86 712.872H207.365ZM276.567 329.646C274.796 329.729 273.163 329.78 271.687 329.803L271.613 331.537L271.539 329.803C270.063 329.78 268.429 329.729 266.658 329.646C246.913 328.723 210.091 323.853 184.072 309.95C182.405 309.059 180.783 308.132 179.212 307.165C179.092 309.046 178.967 310.923 178.835 312.796C175.199 364.434 166.899 412.88 159.288 457.301C139.45 573.081 124.299 661.513 208.656 707.842H334.57C418.927 661.513 403.775 573.081 383.938 457.301L383.938 457.3C376.327 412.88 368.026 364.434 364.391 312.796C364.259 310.923 364.133 309.046 364.014 307.165C362.443 308.132 360.821 309.059 359.154 309.95C333.135 323.853 296.313 328.723 276.567 329.646Z" fill="#202020"/>
<path d="M435.266 201.818C435.266 273.074 362.066 330.839 271.769 330.839C181.473 330.839 108.273 273.074 108.273 201.818C108.273 130.561 181.473 72.7964 271.769 72.7964C362.066 72.7964 435.266 130.561 435.266 201.818Z" fill="#3D3D3D"/>
<path fill-rule="evenodd" clip-rule="evenodd" d="M271.769 326.696C360.746 326.696 431.123 269.925 431.123 201.818C431.123 133.71 360.746 76.9393 271.769 76.9393C182.793 76.9393 112.416 133.71 112.416 201.818C112.416 269.925 182.793 326.696 271.769 326.696ZM271.769 330.839C362.066 330.839 435.266 273.074 435.266 201.818C435.266 130.561 362.066 72.7964 271.769 72.7964C181.473 72.7964 108.273 130.561 108.273 201.818C108.273 273.074 181.473 330.839 271.769 330.839Z" fill="#202020"/>
<path d="M248.446 187.762C248.446 213.175 228.993 233.777 204.996 233.777C181 233.777 161.547 213.175 161.547 187.762C161.547 162.348 181 141.746 204.996 141.746C228.993 141.746 248.446 162.348 248.446 187.762Z" fill="#EDCFF2"/>
<path fill-rule="evenodd" clip-rule="evenodd" d="M252.583 187.762C252.583 215.236 231.496 237.92 204.991 237.92C178.485 237.92 157.398 215.236 157.398 187.762C157.398 160.287 178.485 137.603 204.991 137.603C231.496 137.603 252.583 160.287 252.583 187.762ZM204.991 233.777C228.987 233.777 248.44 213.175 248.44 187.762C248.44 162.348 228.987 141.746 204.991 141.746C180.994 141.746 161.541 162.348 161.541 187.762C161.541 213.175 180.994 233.777 204.991 233.777Z" fill="#202020"/>
<path d="M382.001 187.762C382.001 213.175 362.548 233.777 338.551 233.777C314.555 233.777 295.102 213.175 295.102 187.762C295.102 162.348 314.555 141.746 338.551 141.746C362.548 141.746 382.001 162.348 382.001 187.762Z" fill="#EDCFF2"/>
<path fill-rule="evenodd" clip-rule="evenodd" d="M386.146 187.762C386.146 215.236 365.059 237.92 338.553 237.92C312.048 237.92 290.961 215.236 290.961 187.762C290.961 160.287 312.048 137.603 338.553 137.603C365.059 137.603 386.146 160.287 386.146 187.762ZM338.553 233.777C362.55 233.777 382.003 213.175 382.003 187.762C382.003 162.348 362.55 141.746 338.553 141.746C314.557 141.746 295.104 162.348 295.104 187.762C295.104 213.175 314.557 233.777 338.553 233.777Z" fill="#202020"/>
<path d="M207.311 185.242C199.556 183.226 197.061 181.142 197.061 177.896C197.061 174.172 200.512 171.575 206.286 171.575C211.138 171.575 213.564 173.42 214.452 176.358C214.862 177.725 215.99 178.75 217.425 178.75H218.45C220.705 178.75 222.311 176.529 221.525 174.411C220.09 170.379 216.741 167.031 211.411 165.733V163.375C211.411 160.539 209.122 158.25 206.286 158.25C203.451 158.25 201.161 160.539 201.161 163.375V165.63C194.533 167.065 189.203 171.37 189.203 177.964C189.203 185.857 195.729 189.786 205.261 192.075C213.803 194.125 215.511 197.132 215.511 200.309C215.511 202.667 213.837 206.425 206.286 206.425C200.649 206.425 197.745 204.409 196.617 201.539C196.105 200.207 194.943 199.25 193.542 199.25H192.586C190.296 199.25 188.691 201.573 189.545 203.692C191.492 208.441 196.036 211.243 201.161 212.336V214.625C201.161 217.461 203.451 219.75 206.286 219.75C209.122 219.75 211.411 217.461 211.411 214.625V212.404C218.074 211.14 223.37 207.279 223.37 200.275C223.37 190.572 215.067 187.257 207.311 185.242Z" fill="#7C20BE"/>
<path d="M338.319 185.242C330.563 183.226 328.069 181.142 328.069 177.896C328.069 174.172 331.52 171.575 337.294 171.575C342.146 171.575 344.572 173.42 345.46 176.358C345.87 177.725 346.998 178.75 348.433 178.75H349.458C351.713 178.75 353.318 176.529 352.533 174.411C351.098 170.379 347.749 167.031 342.419 165.733V163.375C342.419 160.539 340.13 158.25 337.294 158.25C334.458 158.25 332.169 160.539 332.169 163.375V165.63C325.541 167.065 320.211 171.37 320.211 177.964C320.211 185.857 326.737 189.786 336.269 192.075C344.811 194.125 346.519 197.132 346.519 200.309C346.519 202.667 344.845 206.425 337.294 206.425C331.657 206.425 328.753 204.409 327.625 201.539C327.113 200.207 325.951 199.25 324.55 199.25H323.593C321.304 199.25 319.698 201.573 320.553 203.692C322.5 208.441 327.044 211.243 332.169 212.336V214.625C332.169 217.461 334.458 219.75 337.294 219.75C340.13 219.75 342.419 217.461 342.419 214.625V212.404C349.082 211.14 354.378 207.279 354.378 200.275C354.378 190.572 346.075 187.257 338.319 185.242Z" fill="#7C20BE"/>
<path fill-rule="evenodd" clip-rule="evenodd" d="M170.849 342.522C172.036 342.034 173.373 341.871 174.726 342.118C197.053 346.194 232.686 350.637 271.6 351.296C310.515 350.637 346.148 346.194 368.475 342.118C369.828 341.871 371.165 342.034 372.352 342.522C375.345 342.872 377.909 345.128 378.412 348.273L381.004 364.474C381.526 367.736 379.665 370.903 376.502 371.856C355.684 378.128 318.149 385.014 271.6 384.669C225.052 385.014 187.517 378.128 166.699 371.856C163.536 370.903 161.675 367.736 162.197 364.474L164.789 348.273C165.292 345.128 167.856 342.872 170.849 342.522Z" fill="#002952"/>
<path fill-rule="evenodd" clip-rule="evenodd" d="M289.469 694.19C289.339 694.208 289.22 694.121 289.203 693.992C278.765 617.617 287.79 494.94 293.706 442.097C293.769 441.529 294.279 441.153 294.847 441.217C295.415 441.282 295.828 441.762 295.764 442.331C290.04 493.461 281.43 609.811 290.311 686.232C290.582 688.559 293.852 689.648 295.933 688.573C297.919 687.547 300.365 686.701 303.338 686.09C303.978 685.958 304.604 686.37 304.736 687.011C304.867 687.651 304.455 688.277 303.815 688.409C295.305 690.158 292.143 693.744 291.274 697.161C290.413 700.549 291.673 704.232 293.275 706.761C293.36 706.894 293.501 706.977 293.648 707.034C297.56 708.553 304.565 710.403 312.735 710.942C320.904 711.482 330.156 710.705 338.618 707.051C339.218 706.792 339.915 707.068 340.174 707.668C340.433 708.268 340.157 708.965 339.557 709.224C330.644 713.073 320.987 713.86 312.579 713.305C304.172 712.75 296.93 710.848 292.791 709.241C292.491 709.124 292.188 708.973 291.914 708.803C291.777 708.718 291.656 708.604 291.56 708.462C289.65 705.644 287.842 701.055 288.98 696.578C289.156 695.883 289.401 695.203 289.719 694.541C289.802 694.367 289.66 694.164 289.469 694.19ZM217.523 686.407C217.523 687.06 216.993 687.59 216.339 687.59C212.622 687.59 209.891 688.382 207.92 689.59C205.956 690.793 204.679 692.45 203.925 694.305C202.395 698.068 203.023 702.665 204.63 705.71C204.935 706.288 204.714 707.004 204.136 707.309C203.557 707.615 202.841 707.393 202.536 706.815C200.659 703.259 199.897 697.928 201.732 693.414C202.661 691.129 204.254 689.06 206.683 687.572C206.957 687.404 207.241 687.244 207.535 687.092C207.594 687.061 207.575 686.971 207.509 686.967C207.473 686.965 207.446 686.936 207.448 686.901C210.95 621.006 190.969 517.566 180.294 473.019C180.161 472.463 180.51 471.934 181.066 471.8C181.622 471.666 182.174 471.977 182.308 472.533C192.738 516.061 212.11 616.009 209.724 682.339C209.656 684.22 211.513 685.613 213.381 685.391C214.311 685.28 215.296 685.223 216.339 685.223C216.993 685.223 217.523 685.753 217.523 686.407ZM252.52 708.752C252.25 708.95 251.94 709.12 251.628 709.241C247.489 710.848 240.248 712.75 231.84 713.305C223.432 713.86 213.775 713.073 204.862 709.224C204.262 708.965 203.986 708.268 204.245 707.668C204.504 707.068 205.201 706.792 205.801 707.051C214.263 710.705 223.515 711.482 231.684 710.942C239.855 710.403 246.859 708.553 250.771 707.034C250.801 707.022 250.831 707.012 250.862 707.003C250.874 706.999 250.887 706.996 250.9 706.992C250.925 706.986 250.947 706.971 250.962 706.949C252.62 704.417 253.967 700.635 253.084 697.161C252.215 693.744 249.053 690.158 240.543 688.409C239.903 688.277 239.491 687.651 239.622 687.011C239.754 686.37 240.38 685.958 241.02 686.09C243.722 686.645 245.989 687.395 247.87 688.297C249.846 689.245 252.64 688.19 252.892 686.013C261.731 609.589 253.133 493.413 247.414 442.331C247.35 441.762 247.763 441.282 248.331 441.217C248.899 441.153 249.409 441.529 249.472 442.098C255.351 494.603 264.298 616.056 254.173 692.526C254.091 693.143 254.239 693.751 254.523 694.306C254.898 695.041 255.181 695.801 255.378 696.578C256.516 701.055 254.707 705.644 252.798 708.462C252.72 708.577 252.626 708.674 252.52 708.752ZM326.835 686.407C326.835 687.06 327.365 687.59 328.019 687.59C331.736 687.59 334.467 688.382 336.438 689.59C338.401 690.793 339.679 692.45 340.433 694.305C341.962 698.068 341.335 702.665 339.728 705.71C339.423 706.288 339.644 707.004 340.222 707.309C340.8 707.615 341.516 707.393 341.822 706.815C343.699 703.259 344.461 697.928 342.626 693.414C341.697 691.129 340.103 689.06 337.675 687.572C337.529 687.482 337.38 687.395 337.229 687.31C336.331 686.808 335.679 685.944 335.632 684.917C332.626 618.948 352.316 517.121 362.884 473.019C363.017 472.463 362.668 471.934 362.112 471.8C361.556 471.666 361.004 471.977 360.87 472.533C350.443 516.049 331.079 615.954 333.452 682.285C333.516 684.08 331.825 685.437 330.034 685.299C329.388 685.249 328.716 685.223 328.019 685.223C327.365 685.223 326.835 685.753 326.835 686.407Z" fill="#202020"/>
<path fill-rule="evenodd" clip-rule="evenodd" d="M294.737 442.247C294.738 442.236 294.739 442.226 294.74 442.215ZM292.682 441.982C292.814 440.801 293.877 440.065 294.969 440.188C296.062 440.312 296.931 441.267 296.799 442.446C291.076 493.566 282.479 609.816 291.346 686.112C291.422 686.772 291.938 687.371 292.822 687.712C293.705 688.053 294.729 688.032 295.464 687.653C297.549 686.575 300.089 685.702 303.135 685.075C304.335 684.828 305.509 685.601 305.756 686.802C306.003 688.003 305.229 689.176 304.029 689.423C295.742 691.127 293.019 694.524 292.284 697.416C291.532 700.371 292.597 703.694 294.082 706.089C297.905 707.566 304.779 709.379 312.809 709.909C320.874 710.441 329.949 709.669 338.213 706.1C338.333 706.048 338.456 706.008 338.579 705.978C338.612 705.722 338.69 705.468 338.818 705.227C340.306 702.406 340.875 698.129 339.479 694.695C338.801 693.028 337.662 691.552 335.902 690.473C334.128 689.386 331.595 688.626 328.024 688.626C326.799 688.626 325.805 687.632 325.805 686.407C325.805 685.181 326.799 684.187 328.024 684.187C328.747 684.187 329.445 684.214 330.12 684.266C331.415 684.366 332.461 683.384 332.423 682.322C330.044 615.841 349.438 515.818 359.869 472.292C360.145 471.138 361.29 470.535 362.36 470.793C363.432 471.051 364.173 472.109 363.897 473.26C353.331 517.355 333.673 619.058 336.672 684.869C336.699 685.462 337.081 686.037 337.74 686.407C337.904 686.498 338.064 686.592 338.221 686.689C340.854 688.302 342.586 690.552 343.591 693.023C345.56 697.867 344.738 703.519 342.743 707.298C342.432 707.887 341.895 708.278 341.295 708.422C341.197 709.172 340.718 709.853 339.973 710.175C330.863 714.109 321.029 714.9 312.516 714.338C304.005 713.776 296.66 711.852 292.422 710.206C292.062 710.067 291.702 709.887 291.373 709.683C291.115 709.523 290.887 709.307 290.708 709.043C288.714 706.099 286.741 701.202 287.982 696.323C288.113 695.806 288.279 695.295 288.481 694.793C288.326 694.616 288.217 694.391 288.182 694.132C277.725 617.619 286.765 494.83 292.682 441.982ZM248.22 440.188C249.313 440.065 250.375 440.801 250.507 441.982C256.386 494.494 265.348 616.056 255.205 692.662C255.157 693.023 255.238 693.418 255.451 693.835C255.862 694.641 256.171 695.473 256.387 696.323C257.628 701.202 255.655 706.099 253.661 709.043C253.516 709.257 253.339 709.439 253.139 709.586C252.795 709.839 252.404 710.052 252.008 710.206C247.77 711.852 240.425 713.776 231.914 714.338C223.401 714.9 213.567 714.109 204.457 710.175C203.717 709.855 203.239 709.18 203.137 708.436C202.512 708.305 201.947 707.908 201.626 707.298C199.631 703.519 198.809 697.867 200.778 693.023C201.783 690.552 203.515 688.302 206.148 686.689C206.243 686.63 206.339 686.573 206.437 686.516C209.846 620.77 189.948 517.727 179.292 473.26C179.017 472.109 179.757 471.051 180.829 470.793C181.899 470.535 183.044 471.138 183.32 472.292C193.753 515.83 213.156 615.895 210.765 682.376C210.725 683.486 211.884 684.526 213.265 684.362C214.238 684.247 215.264 684.187 216.345 684.187C217.57 684.187 218.564 685.181 218.564 686.407C218.564 687.632 217.57 688.626 216.345 688.626C212.774 688.626 210.241 689.386 208.467 690.473C206.707 691.552 205.568 693.028 204.89 694.695C203.494 698.129 204.063 702.406 205.551 705.227C205.677 705.464 205.754 705.713 205.788 705.964C205.933 705.994 206.076 706.039 206.217 706.1C214.482 709.669 223.557 710.441 231.622 709.909C239.595 709.383 246.43 707.591 250.268 706.12C251.759 703.728 252.841 700.387 252.085 697.416C251.35 694.524 248.627 691.127 240.34 689.423C239.14 689.176 238.366 688.003 238.613 686.802C238.86 685.601 240.034 684.828 241.234 685.075C244.003 685.644 246.352 686.418 248.323 687.363C249.014 687.694 249.894 687.687 250.626 687.374C251.351 687.065 251.796 686.526 251.869 685.894C260.694 609.594 252.108 493.517 246.39 442.446C246.258 441.268 247.126 440.312 248.22 440.188ZM250.571 706.012C250.595 706.004 250.618 705.997 250.642 705.991L250.906 706.992L251.168 707.994L251.164 707.995L251.163 707.995C251.16 707.997 251.156 707.998 251.151 708L250.776 707.034L250.667 706.752M251.169 707.994L250.906 706.992L250.643 705.99C250.643 705.99 250.642 705.99 250.642 705.991C250.63 705.994 250.618 705.997 250.606 706M251.169 707.994C251.419 707.928 251.666 707.771 251.834 707.516C253.575 704.859 255.076 700.772 254.093 696.906C253.091 692.964 249.49 689.19 240.757 687.394C240.677 687.378 240.626 687.299 240.642 687.219C240.659 687.139 240.737 687.088 240.817 687.104C243.452 687.646 245.636 688.372 247.428 689.231C248.713 689.847 250.219 689.801 251.44 689.279C252.664 688.756 253.739 687.686 253.924 686.151C253.68 688.262 253.423 690.342 253.151 692.39C253.036 693.264 253.252 694.083 253.606 694.777C253.945 695.441 254.201 696.129 254.38 696.833C255.416 700.908 253.771 705.188 251.946 707.881C251.936 707.897 251.924 707.908 251.912 707.917C251.716 708.061 251.487 708.187 251.258 708.275C247.219 709.844 240.081 711.723 231.777 712.271C223.474 712.819 213.994 712.037 205.278 708.273C205.203 708.241 205.169 708.154 205.201 708.079C205.234 708.004 205.321 707.969 205.396 708.002C214.055 711.741 223.484 712.522 231.758 711.976C240.032 711.43 247.141 709.557 251.151 708L250.776 707.034M251.168 707.994C251.169 707.994 251.169 707.994 251.169 707.994L251.168 707.994ZM290.163 693.329C290.701 693.655 290.954 694.372 290.658 694.989C290.37 695.587 290.149 696.203 289.989 696.833C288.953 700.908 290.598 705.188 292.423 707.881C292.436 707.9 292.451 707.914 292.466 707.923C292.685 708.059 292.93 708.182 293.172 708.275C297.211 709.844 304.349 711.723 312.653 712.271C320.957 712.819 330.436 712.037 339.152 708.273C339.227 708.241 339.261 708.154 339.229 708.079C339.197 708.004 339.109 707.969 339.034 708.002C330.375 711.741 320.946 712.522 312.672 711.976C304.398 711.43 297.29 709.557 293.279 708C293.052 707.911 292.665 707.724 292.406 707.315C290.724 704.661 289.317 700.679 290.276 696.906C291.278 692.964 294.879 689.19 303.612 687.394C303.692 687.378 303.743 687.299 303.727 687.219C303.71 687.139 303.632 687.088 303.552 687.104C300.652 687.701 298.299 688.52 296.414 689.493C295.067 690.189 293.415 690.161 292.076 689.645C290.74 689.129 289.489 688.025 289.29 686.365C289.564 688.725 289.855 691.048 290.163 693.329ZM361.875 472.807C351.447 516.332 332.124 616.091 334.493 682.248C334.493 682.253 334.493 682.259 334.493 682.264C334.573 684.783 332.242 686.508 329.96 686.331C329.341 686.283 328.696 686.259 328.024 686.259C327.943 686.259 327.876 686.325 327.876 686.407C327.876 686.488 327.943 686.555 328.024 686.555C331.888 686.555 334.816 687.379 336.984 688.707C339.152 690.035 340.567 691.872 341.398 693.915C343.061 698.007 342.375 702.925 340.649 706.193C340.611 706.266 340.639 706.355 340.711 706.393C340.784 706.432 340.873 706.404 340.911 706.332C342.67 702.999 343.373 697.989 341.672 693.804C340.82 691.707 339.364 689.818 337.139 688.455C337.005 688.372 336.868 688.292 336.728 688.214C335.592 687.578 334.67 686.426 334.603 684.964C334.562 684.07 334.526 683.17 334.493 682.264C334.493 682.259 334.493 682.253 334.493 682.248C332.125 616.084 351.448 516.329 361.875 472.807ZM208.509 686.558C208.734 687.055 208.595 687.713 208.016 688.012C207.744 688.152 207.482 688.3 207.23 688.455C205.005 689.818 203.549 691.707 202.697 693.804C200.996 697.989 201.699 702.999 203.458 706.332C203.496 706.404 203.585 706.432 203.658 706.393C203.73 706.355 203.758 706.266 203.719 706.193C201.994 702.925 201.308 698.007 202.971 693.915C203.802 691.872 205.217 690.035 207.385 688.707C209.553 687.379 212.481 686.555 216.345 686.555C216.426 686.555 216.492 686.488 216.492 686.407C216.492 686.325 216.426 686.259 216.345 686.259C215.34 686.259 214.395 686.314 213.509 686.419C211.156 686.699 208.608 684.959 208.694 682.316C208.642 683.746 208.581 685.161 208.509 686.558Z" fill="#202020"/>
<path d="M281.092 228.746H263.439C259.367 228.746 257.195 233.546 259.882 236.606L269.405 247.448C271.389 249.706 274.947 249.568 276.751 247.164L284.88 236.322C287.221 233.2 284.994 228.746 281.092 228.746Z" fill="#1B1B1B"/>
<path d="M265.703 352.737C265.703 349.468 268.353 346.819 271.622 346.819C274.89 346.819 277.54 349.468 277.54 352.737V382.033C277.54 385.302 274.89 387.952 271.622 387.952C268.353 387.952 265.703 385.302 265.703 382.033V352.737Z" fill="#A5A5A5"/>
<path d="M248.834 411.206C248.733 411.199 248.635 411.191 248.539 411.181C248.636 411.189 248.734 411.197 248.834 411.206C255.183 411.636 271.769 406.606 271.769 387.952C271.769 406.606 288.354 411.636 294.704 411.206C294.803 411.197 294.901 411.189 294.999 411.181C294.903 411.191 294.805 411.199 294.704 411.206C286.917 411.907 272.23 417.164 271.769 432.875C271.784 433.377 271.784 433.888 271.769 434.411C271.754 433.888 271.754 433.377 271.769 432.875C271.308 417.164 256.621 411.907 248.834 411.206Z" fill="#FFE72F"/>
<g opacity="0.5">
<path fill-rule="evenodd" clip-rule="evenodd" d="M88.6144 13.3351C88.7549 12.6967 89.3864 12.293 90.0249 12.4335C125.317 20.2008 148.413 36.7497 163.906 55.7563C179.38 74.7397 187.223 96.1176 192.119 113.483C192.296 114.112 191.93 114.766 191.301 114.944C190.672 115.121 190.018 114.755 189.84 114.126C184.981 96.8915 177.248 75.8714 162.071 57.252C146.913 38.6558 124.282 22.3971 89.516 14.7456C88.8776 14.6051 88.4739 13.9736 88.6144 13.3351Z" fill="#02020B"/>
<path fill-rule="evenodd" clip-rule="evenodd" d="M77.499 68.5274C77.5687 67.8774 78.1521 67.407 78.8021 67.4767C132.191 73.2 167.057 104.826 177.886 120.049C178.265 120.582 178.14 121.321 177.608 121.7C177.075 122.079 176.336 121.954 175.957 121.422C165.455 106.658 131.161 75.4705 78.5498 69.8305C77.8998 69.7609 77.4293 69.1774 77.499 68.5274Z" fill="#02020B"/>
<path fill-rule="evenodd" clip-rule="evenodd" d="M10.1749 29.2121C10.2213 28.56 10.7876 28.0691 11.4397 28.1155C126.447 36.3049 174.372 89.2309 183.952 115.147C184.178 115.76 183.865 116.441 183.252 116.667C182.639 116.894 181.958 116.581 181.731 115.967C172.569 91.182 125.662 38.6223 11.2715 30.4769C10.6195 30.4304 10.1285 29.8642 10.1749 29.2121Z" fill="#02020B"/>
</g>
<g opacity="0.5">
<path fill-rule="evenodd" clip-rule="evenodd" d="M453.518 13.3351C453.378 12.6967 452.746 12.293 452.108 12.4335C416.816 20.2008 393.72 36.7497 378.227 55.7563C362.753 74.7397 354.91 96.1176 350.014 113.483C349.836 114.112 350.203 114.766 350.832 114.944C351.461 115.121 352.115 114.755 352.292 114.126C357.151 96.8915 364.885 75.8714 380.062 57.252C395.22 38.6558 417.851 22.3971 452.617 14.7456C453.255 14.6051 453.659 13.9736 453.518 13.3351Z" fill="#02020B"/>
<path fill-rule="evenodd" clip-rule="evenodd" d="M464.634 68.5274C464.564 67.8774 463.981 67.407 463.331 67.4767C409.942 73.2 375.076 104.826 364.247 120.049C363.868 120.582 363.992 121.321 364.525 121.7C365.058 122.079 365.797 121.954 366.176 121.422C376.677 106.658 410.972 75.4705 463.583 69.8305C464.233 69.7609 464.703 69.1774 464.634 68.5274Z" fill="#02020B"/>
<path fill-rule="evenodd" clip-rule="evenodd" d="M531.958 29.2121C531.911 28.56 531.345 28.0691 530.693 28.1155C415.686 36.3049 367.761 89.2309 358.181 115.147C357.954 115.76 358.268 116.441 358.881 116.667C359.494 116.894 360.175 116.581 360.402 115.967C369.563 91.182 416.471 38.6223 530.861 30.4769C531.513 30.4304 532.004 29.8642 531.958 29.2121Z" fill="#02020B"/>
</g>
<g opacity="0.5">
<path fill-rule="evenodd" clip-rule="evenodd" d="M441.571 232.419C414.967 239.317 391.863 248.869 378.694 255.581C378.112 255.877 377.881 256.59 378.177 257.173C378.474 257.755 379.187 257.987 379.77 257.69C392.788 251.055 415.731 241.564 442.165 234.711C468.609 227.854 498.45 223.662 525.302 227.54C525.949 227.633 526.549 227.185 526.643 226.538C526.736 225.891 526.287 225.29 525.64 225.197C498.349 221.256 468.163 225.524 441.571 232.419Z" fill="black"/>
<path fill-rule="evenodd" clip-rule="evenodd" d="M375.788 274.873C375.768 275.527 376.281 276.073 376.934 276.093C391.905 276.561 416.269 277.876 440.684 280.301C465.131 282.729 489.516 286.259 504.593 291.128C505.215 291.329 505.882 290.988 506.083 290.366C506.284 289.744 505.942 289.077 505.32 288.876C489.977 283.92 465.363 280.373 440.918 277.945C416.442 275.515 392.024 274.196 377.008 273.727C376.355 273.707 375.808 274.22 375.788 274.873Z" fill="black"/>
<path fill-rule="evenodd" clip-rule="evenodd" d="M453.308 258.942C422.23 259.815 392.875 262.808 375.325 265.305C374.678 265.397 374.228 265.996 374.32 266.643C374.412 267.29 375.012 267.74 375.659 267.648C393.127 265.163 422.393 262.179 453.375 261.308C484.379 260.437 516.997 261.688 541.222 267.626C541.857 267.782 542.498 267.393 542.653 266.758C542.809 266.123 542.42 265.482 541.785 265.327C517.242 259.31 484.364 258.07 453.308 258.942Z" fill="black"/>
</g>
<g opacity="0.5">
<path fill-rule="evenodd" clip-rule="evenodd" d="M101.671 232.419C128.275 239.317 151.379 248.869 164.548 255.581C165.13 255.877 165.362 256.59 165.065 257.173C164.768 257.755 164.055 257.987 163.473 257.69C150.454 251.055 127.511 241.564 101.077 234.711C74.6327 227.854 44.7925 223.662 17.9401 227.54C17.2931 227.633 16.6929 227.185 16.5994 226.538C16.506 225.891 16.9548 225.29 17.6018 225.197C44.8928 221.256 75.0788 225.524 101.671 232.419Z" fill="black"/>
<path fill-rule="evenodd" clip-rule="evenodd" d="M167.454 274.873C167.475 275.527 166.962 276.073 166.308 276.093C151.337 276.561 126.973 277.876 102.558 280.301C78.1117 282.729 53.7262 286.259 38.6493 291.128C38.0272 291.329 37.3601 290.988 37.1592 290.366C36.9583 289.744 37.2997 289.077 37.9218 288.876C53.2655 283.92 77.8796 280.373 102.324 277.945C126.8 275.515 151.218 274.196 166.234 273.727C166.888 273.707 167.434 274.22 167.454 274.873Z" fill="black"/>
<path fill-rule="evenodd" clip-rule="evenodd" d="M89.934 258.942C121.012 259.815 150.367 262.808 167.917 265.305C168.564 265.397 169.014 265.996 168.922 266.643C168.83 267.29 168.231 267.74 167.583 267.648C150.115 265.163 120.849 262.179 89.8675 261.308C58.8636 260.437 26.2449 261.688 2.02047 267.626C1.38555 267.782 0.744654 267.393 0.589004 266.758C0.433354 266.123 0.821886 265.482 1.45682 265.327C26 259.31 58.8784 258.07 89.934 258.942Z" fill="black"/>
</g>
<g style="mix-blend-mode:overlay">
<path d="M204.315 147.368C208.973 152.609 204.657 164.049 194.676 172.921C184.694 181.792 172.826 184.736 168.168 179.495C163.51 174.254 167.826 162.814 177.808 153.942C187.789 145.071 199.657 142.128 204.315 147.368Z" fill="#EDCFF2"/>
</g>
<g style="mix-blend-mode:overlay">
<path d="M338.69 147.368C343.348 152.609 339.032 164.049 329.051 172.921C319.069 181.792 307.201 184.736 302.543 179.495C297.885 174.254 302.201 162.814 312.183 153.942C322.164 145.071 334.032 142.128 338.69 147.368Z" fill="#EDCFF2"/>
</g>
<ellipse cx="271.5" cy="285" rx="43.5" ry="28" fill="#1B1B1B"/>
<g filter="url(#filter0_f_1079_2868)">
<path fill-rule="evenodd" clip-rule="evenodd" d="M234.553 275.786C239.246 266.662 254.01 260 271.496 260C288.554 260 303.021 266.339 308.076 275.12C338.529 320.859 396.554 436.244 380.04 540.877C363.511 645.602 359.378 685.261 359.378 692H177.753C166.084 607.257 160.829 407.21 234.553 275.786Z" fill="#7C20BE"/>
</g>
<path fill-rule="evenodd" clip-rule="evenodd" d="M234.553 275.786C239.246 266.662 254.01 260 271.496 260C288.554 260 303.021 266.339 308.076 275.12C338.529 320.859 396.554 436.244 380.04 540.877C363.511 645.602 359.378 685.261 359.378 692H177.753C166.084 607.257 160.829 407.21 234.553 275.786Z" fill="url(#paint0_linear_1079_2868)"/>
<g style="mix-blend-mode:darken" opacity="0.4">
<path d="M247.512 234.155C244.452 235.654 243.019 235.761 242.003 234.913C240.836 233.941 241.104 232.363 242.912 230.855C244.431 229.589 245.768 229.437 246.966 229.972C247.523 230.222 248.197 230.195 248.646 229.821L248.967 229.553C249.673 228.965 249.48 227.966 248.571 227.618C246.859 226.94 244.763 226.94 242.687 227.992L241.949 227.377C241.061 226.637 239.628 226.637 238.74 227.377C237.852 228.117 237.852 229.312 238.74 230.053L239.446 230.641C237.82 232.746 237.499 235.261 239.563 236.983C242.035 239.043 245.308 238.365 249.01 236.474C252.326 234.78 253.802 235.119 254.797 235.948C255.536 236.563 256.188 237.982 253.824 239.953C252.059 241.424 250.518 241.656 249.267 241.201C248.689 240.987 248.026 241.041 247.587 241.406L247.287 241.656C246.571 242.254 246.795 243.279 247.726 243.609C249.823 244.341 252.123 243.886 254.07 242.833L254.787 243.431C255.675 244.171 257.108 244.171 257.996 243.431C258.884 242.691 258.884 241.496 257.996 240.755L257.301 240.176C258.991 238.106 259.44 235.716 257.247 233.888C254.209 231.355 250.572 232.657 247.512 234.155Z" fill="#7C20BE"/>
</g>
<g style="mix-blend-mode:darken" opacity="0.3">
<path d="M290.891 202.421C289.138 200.752 288.843 199.887 289.449 199.144C290.145 198.292 291.577 198.235 293.162 199.134C294.494 199.889 294.816 200.689 294.511 201.5C294.368 201.877 294.486 202.287 294.88 202.51L295.162 202.67C295.781 203.021 296.636 202.763 296.816 202.156C297.175 201.009 296.881 199.722 295.66 198.595L296.101 198.055C296.63 197.406 296.43 196.526 295.651 196.084C294.872 195.642 293.816 195.81 293.287 196.459L292.866 196.975C290.778 196.271 288.511 196.427 287.279 197.936C285.805 199.743 286.863 201.658 289.052 203.666C291.014 205.465 290.922 206.42 290.328 207.147C289.888 207.686 288.726 208.286 286.653 207.11C285.106 206.232 284.685 205.319 284.911 204.486C285.02 204.102 284.879 203.702 284.495 203.484L284.232 203.335C283.604 202.978 282.729 203.26 282.568 203.878C282.215 205.268 282.94 206.617 284.142 207.665L283.715 208.189C283.185 208.838 283.386 209.719 284.165 210.16C284.943 210.602 285.999 210.434 286.529 209.785L286.944 209.277C289.009 210.025 291.184 209.966 292.492 208.363C294.304 206.142 292.644 204.09 290.891 202.421Z" fill="#7C20BE"/>
</g>
<g style="mix-blend-mode:darken" opacity="0.32">
<path d="M309.998 252.959C307.202 250.296 306.73 248.916 307.697 247.73C308.807 246.371 311.092 246.28 313.621 247.714C315.746 248.919 316.259 250.196 315.773 251.489C315.545 252.09 315.734 252.744 316.362 253.101L316.811 253.355C317.799 253.916 319.164 253.504 319.451 252.535C320.024 250.706 319.555 248.652 317.607 246.854L318.309 245.993C319.154 244.957 318.834 243.553 317.592 242.848C316.35 242.144 314.665 242.411 313.82 243.447L313.148 244.27C309.817 243.147 306.2 243.395 304.235 245.803C301.883 248.685 303.571 251.741 307.064 254.945C310.195 257.815 310.047 259.338 309.1 260.498C308.398 261.359 306.544 262.315 303.237 260.44C300.768 259.039 300.097 257.582 300.458 256.254C300.631 255.64 300.407 255.002 299.793 254.654L299.374 254.416C298.372 253.848 296.976 254.297 296.719 255.283C296.157 257.501 297.312 259.653 299.231 261.325L298.549 262.161C297.704 263.196 298.025 264.601 299.267 265.305C300.509 266.01 302.194 265.743 303.039 264.707L303.7 263.896C306.995 265.089 310.465 264.995 312.552 262.438C315.443 258.894 312.795 255.622 309.998 252.959Z" fill="#7C20BE"/>
</g>
<g style="mix-blend-mode:darken" opacity="0.41">
<path d="M234.694 280.923C229.08 282.986 226.592 282.93 225.05 281.305C223.281 279.441 224.12 276.775 227.587 274.488C230.5 272.567 232.833 272.53 234.762 273.649C235.658 274.171 236.822 274.237 237.683 273.669L238.299 273.263C239.653 272.37 239.562 270.622 238.084 269.873C235.307 268.423 231.706 268.073 227.889 269.534L226.769 268.354C225.422 266.934 222.96 266.695 221.258 267.818C219.555 268.941 219.268 270.993 220.615 272.413L221.686 273.542C218.388 276.885 217.232 281.15 220.364 284.451C224.113 288.402 229.898 287.785 236.709 285.156C242.812 282.8 245.266 283.628 246.775 285.219C247.895 286.399 248.675 288.943 244.141 291.934C240.756 294.166 238.055 294.307 236.014 293.317C235.074 292.853 233.922 292.834 233.081 293.389L232.506 293.767C231.132 294.674 231.271 296.473 232.79 297.195C236.215 298.801 240.275 298.404 243.871 296.922L244.959 298.068C246.306 299.487 248.768 299.727 250.47 298.604C252.173 297.481 252.46 295.428 251.113 294.009L250.058 292.897C253.458 289.626 254.804 285.596 251.477 282.09C246.868 277.232 240.309 278.861 234.694 280.923Z" fill="#7C20BE"/>
</g>
<g style="mix-blend-mode:darken" opacity="0.5">
<path d="M310.253 308.461C308.081 301.9 308.649 299.18 311.513 297.802C314.799 296.22 318.848 297.656 321.789 301.903C324.261 305.472 323.869 308.04 321.729 309.941C320.732 310.823 320.402 312.088 321.133 313.143L321.655 313.897C322.803 315.556 325.581 315.794 327.05 314.316C329.876 311.549 331.124 307.664 329.555 303.192L331.635 302.191C334.137 300.986 334.991 298.33 333.546 296.244C332.101 294.158 328.916 293.447 326.414 294.651L324.424 295.609C319.781 291.343 313.268 289.25 307.45 292.051C300.486 295.402 300.344 301.871 303.18 309.855C305.722 317.009 303.94 319.542 301.136 320.892C299.056 321.893 294.887 322.258 291.041 316.703C288.169 312.557 288.468 309.564 290.426 307.516C291.341 306.573 291.593 305.313 290.88 304.282L290.392 303.578C289.226 301.895 286.358 301.7 284.924 303.228C281.726 306.677 281.569 311.21 283.215 315.444L281.195 316.416C278.693 317.62 277.84 320.276 279.284 322.362C280.729 324.448 283.915 325.16 286.417 323.956L288.376 323.012C292.885 327.376 298.99 329.632 305.169 326.658C313.731 322.537 312.425 315.022 310.253 308.461Z" fill="#7C20BE"/>
</g>
<defs>
<filter id="filter0_f_1079_2868" x="144.398" y="233.5" width="265.039" height="485" filterUnits="userSpaceOnUse" color-interpolation-filters="sRGB">
<feFlood flood-opacity="0" result="BackgroundImageFix"/>
<feBlend mode="normal" in="SourceGraphic" in2="BackgroundImageFix" result="shape"/>
<feGaussianBlur stdDeviation="13.25" result="effect1_foregroundBlur_1079_2868"/>
</filter>
<linearGradient id="paint0_linear_1079_2868" x1="276.996" y1="233.5" x2="276.996" y2="362" gradientUnits="userSpaceOnUse">
<stop stop-color="#7C20BE"/>
<stop offset="1" stop-color="#EDCFF2"/>
</linearGradient>
</defs>
</svg>
