<svg width="166" height="168" viewBox="0 0 166 168" fill="none" xmlns="http://www.w3.org/2000/svg">
<rect width="166" height="168" rx="50" fill="#FFB515" fill-opacity="0.3"/>
<path d="M108 40.6995C115.601 45.0879 121.913 51.3998 126.301 59.0009C130.69 66.6019 133 75.2242 133 84.001C133 92.7779 130.69 101.4 126.301 109.001C121.913 116.602 115.601 122.914 107.999 127.302C100.398 131.691 91.7761 134.001 82.9992 134.001C74.2223 134.001 65.6001 131.69 57.9992 127.302C50.3983 122.913 44.0864 116.601 39.6982 109C35.3099 101.399 32.9998 92.7763 33 83.9995L33.025 82.3795C33.305 73.7444 35.8177 65.3293 40.3182 57.9544C44.8187 50.5796 51.1533 44.4967 58.7045 40.2989C66.2557 36.101 74.7657 33.9314 83.405 34.0017C92.0443 34.0719 100.518 36.3795 108 40.6995ZM83 53.9995C81.6739 53.9995 80.4021 54.5262 79.4645 55.4639C78.5268 56.4016 78 57.6734 78 58.9995C74.0218 58.9995 70.2064 60.5798 67.3934 63.3929C64.5804 66.2059 63 70.0212 63 73.9995C63 77.9777 64.5804 81.793 67.3934 84.6061C70.2064 87.4191 74.0218 88.9995 78 88.9995V98.9995C77.1708 99.0454 76.3429 98.8881 75.5883 98.5413C74.8337 98.1945 74.1752 97.6686 73.67 97.0095L73.33 96.5045C72.6459 95.4012 71.5596 94.6073 70.3007 94.2905C69.0418 93.9738 67.7091 94.159 66.5843 94.8071C65.4596 95.4552 64.6309 96.5154 64.2737 97.7633C63.9164 99.0113 64.0586 100.349 64.67 101.494C65.9462 103.708 67.7666 105.558 69.9585 106.871C72.1505 108.184 74.6414 108.914 77.195 108.994H78C77.9989 110.22 78.448 111.403 79.2619 112.319C80.0758 113.236 81.1979 113.821 82.415 113.964L83 113.999C84.3261 113.999 85.5979 113.473 86.5355 112.535C87.4732 111.597 88 110.326 88 108.999L88.88 108.974C92.778 108.749 96.4346 107.013 99.0727 104.134C101.711 101.256 103.123 97.4621 103.008 93.5593C102.893 89.6564 101.262 85.9521 98.4591 83.2333C95.6566 80.5146 91.9045 78.9957 88 78.9995V68.9995C89.79 68.9395 91.355 69.6995 92.33 70.9895L92.67 71.4945C93.3541 72.5977 94.4404 73.3917 95.6993 73.7084C96.9582 74.0252 98.2909 73.8399 99.4157 73.1918C100.54 72.5437 101.369 71.4836 101.726 70.2356C102.084 68.9876 101.941 67.6496 101.33 66.5045C100.054 64.2902 98.2343 62.4385 96.0423 61.1251C93.8503 59.8116 91.3591 59.08 88.805 58.9995H88C88 57.6734 87.4732 56.4016 86.5355 55.4639C85.5979 54.5262 84.3261 53.9995 83 53.9995ZM88 88.9995C89.3261 88.9995 90.5979 89.5262 91.5355 90.4639C92.4732 91.4016 93 92.6734 93 93.9995C93 95.3255 92.4732 96.5973 91.5355 97.535C90.5979 98.4727 89.3261 98.9995 88 98.9995V88.9995ZM78 68.9995V78.9995C76.6739 78.9995 75.4021 78.4727 74.4645 77.535C73.5268 76.5973 73 75.3255 73 73.9995C73 72.6734 73.5268 71.4016 74.4645 70.4639C75.4021 69.5262 76.6739 68.9995 78 68.9995Z" fill="#FFB515"/>
</svg>
