<svg width="108" height="108" viewBox="0 0 108 108" fill="none" xmlns="http://www.w3.org/2000/svg">
<path d="M90 81.0001C90 90.9451 73.881 99.0001 54 99.0001C34.119 99.0001 18 90.9451 18 81.0001V62.8831C20.259 65.6596 23.4675 67.9636 27.036 69.7456C34.11 73.2826 43.65 75.3751 54 75.3751C64.35 75.3751 73.89 73.2826 80.964 69.7501C84.5325 67.9636 87.741 65.6551 90 62.8831V81.0001Z" fill="#8D8D8D"/>
<path d="M54 48.3751C64.35 48.3751 73.89 46.2826 80.964 42.7501C84.5325 40.9636 87.741 38.6551 90 35.8831V54.0001C90 56.2501 81.963 61.1596 77.9445 63.7111C71.991 66.6856 63.531 68.6251 54 68.6251C44.469 68.6251 36.009 66.6901 30.0555 63.7111C24.75 61.0561 18 56.2501 18 54.0001V35.8831C20.259 38.6596 23.4675 40.9636 27.036 42.7456C34.11 46.2826 43.65 48.3751 54 48.3751Z" fill="#8D8D8D"/>
<path d="M77.9445 36.711C71.991 39.6855 63.531 41.625 54 41.625C44.469 41.625 36.009 39.69 30.0555 36.711C27.738 35.802 22.527 32.9175 18.909 28.2555C18.6012 27.8653 18.3775 27.4155 18.252 26.9346C18.1265 26.4536 18.102 25.9519 18.18 25.461C18.2835 24.795 18.4275 24.1065 18.612 23.679C21.726 15.327 36.387 9 54 9C71.613 9 86.274 15.327 89.388 23.679C89.5725 24.1065 89.7165 24.795 89.82 25.461C89.898 25.9519 89.8735 26.4536 89.748 26.9346C89.6226 27.4155 89.3988 27.8653 89.091 28.2555C85.473 32.9175 80.262 35.802 77.9445 36.711Z" fill="#8D8D8D"/>
</svg>
