<svg width="164" height="214" viewBox="0 0 164 214" fill="none" xmlns="http://www.w3.org/2000/svg">
<path d="M70.291 159.565C70.291 158.432 70.1805 157.322 69.9687 156.246L66.5346 156.922C66.1847 155.144 65.4887 153.491 64.52 152.037L67.433 150.096C66.1939 148.236 64.6 146.634 62.7466 145.387L60.7925 148.29C59.3411 147.314 57.6907 146.612 55.9152 146.258L56.5978 142.826C55.5196 142.611 54.4073 142.499 53.2725 142.499H50.8404V145.999H45.9763V142.499H41.1121V145.999H36.248V142.499H31.3838V145.999H26.5197V142.499H21.6555V145.999H16.7914V142.499H14.3593C13.7443 142.499 13.154 142.447 12.5898 142.35L11.9943 145.799C10.3797 145.52 8.88919 144.96 7.55805 144.181L9.32563 141.161C8.30915 140.566 7.41184 139.793 6.66656 138.889L3.96547 141.114C2.95817 139.892 2.16555 138.499 1.62797 137.008L4.92067 135.821C4.52332 134.719 4.31524 133.55 4.32041 132.369L0.82044 132.353C0.827183 130.811 1.1015 129.243 1.67827 127.71L4.95427 128.941C5.15646 128.404 5.41063 127.867 5.72184 127.335L6.95987 125.218L3.93876 123.451L6.41482 119.218L9.43594 120.985L11.912 116.752L8.89089 114.985L11.367 110.752L14.3881 112.519L16.8641 108.286L13.843 106.519L16.3191 102.286L19.3402 104.053L21.8163 99.8198L18.7952 98.0526L21.2712 93.8196L24.2923 95.5867L26.7684 91.3537L23.7473 89.5865L26.2234 85.3534L29.2445 87.1206L31.7205 82.8876L28.6994 81.1204L31.1755 76.8873L34.1966 78.6545L36.6727 74.4214L33.6515 72.6543L36.1276 68.4212L39.1487 70.1884L41.6248 65.9553L38.6037 64.1882L41.0797 59.9551L44.1009 61.7223L46.5769 57.4892L43.5558 55.7221L46.0319 51.489L49.053 53.2562L51.5291 49.0231L48.5079 47.2559L50.984 43.0229L54.0051 44.7901L56.4812 40.557L53.4601 38.7898L55.9361 34.5568L58.9573 36.3239L61.4333 32.0909L58.4122 30.3237L60.8883 26.0907L63.9094 27.8578L66.3855 23.6248L63.3643 21.8576L65.8404 17.6246L68.8615 19.3917L71.3376 15.1587L68.3165 13.3915L70.7925 9.15847L73.8137 10.9256L75.0517 8.80909C75.3517 8.29623 75.6736 7.83181 76.0119 7.41227L73.2874 5.21517C74.2635 4.00485 75.3779 3.03166 76.5798 2.2817L78.4326 5.25102C79.3616 4.67132 80.3667 4.27293 81.4088 4.04635L80.6653 0.626244C82.1167 0.310696 83.6074 0.243151 85.0713 0.405567L84.6854 3.88422C85.7898 4.00676 86.876 4.30381 87.8901 4.76088L89.3282 1.57C90.6703 2.17491 91.9195 2.99123 93.0097 4.00098L90.6313 6.56878C91.4148 7.2944 92.0798 8.14927 92.5881 9.1219L95.6901 7.50088C96.3463 8.75668 96.8151 10.1601 97.0456 11.6972L93.5844 12.2164C93.6644 12.7502 93.7077 13.3142 93.7077 13.9086V16.4415H97.2077V21.5072H93.7077V26.5729H97.2077V31.6386H93.7077V36.7043H97.2077V41.77H93.7077V46.8357H97.2077V51.9014H93.7077V54.4342C93.7077 55.5667 93.8182 56.6768 94.03 57.7531L97.4641 57.0772C97.814 58.8549 98.51 60.5078 99.4787 61.9623L96.5657 63.9025C97.8048 65.7629 99.3987 67.365 101.252 68.6123L103.206 65.7085C104.658 66.6853 106.308 67.3873 108.084 67.7403L107.401 71.1731C108.479 71.3875 109.591 71.4994 110.726 71.4994H113.158V67.9994H118.022V71.4994H122.887V67.9994H127.751V71.4994H132.615V67.9994H137.479V71.4994H142.343V67.9994H147.207V71.4994H149.639C150.254 71.4994 150.845 71.5516 151.409 71.649L152.004 68.2C153.619 68.4788 155.11 69.0385 156.441 69.8174L154.673 72.8382C155.69 73.433 156.587 74.2059 157.332 75.1103L160.033 72.8845C161.041 74.1069 161.833 75.4994 162.371 76.9911L159.078 78.1777C159.475 79.2803 159.683 80.4484 159.678 81.6302L163.178 81.6455C163.172 83.1873 162.897 84.7556 162.32 86.2893L159.044 85.0573C158.842 85.5949 158.588 86.1321 158.277 86.6642L157.039 88.7807L160.06 90.5479L157.584 94.7809L154.563 93.0138L152.087 97.2468L155.108 99.014L152.632 103.247L149.611 101.48L147.135 105.713L150.156 107.48L147.68 111.713L144.659 109.946L142.182 114.179L145.204 115.946L142.727 120.179L139.706 118.412L137.23 122.645L140.251 124.412L137.775 128.645L134.754 126.878L132.278 131.111L135.299 132.878L132.823 137.111L129.802 135.344L127.326 139.577L130.347 141.345L127.871 145.578L124.85 143.81L122.374 148.043L125.395 149.811L122.919 154.044L119.898 152.277L117.422 156.51L120.443 158.277L117.967 162.51L114.946 160.743L112.47 164.976L115.491 166.743L113.015 170.976L109.994 169.209L107.518 173.442L110.539 175.209L108.063 179.442L105.041 177.675L102.565 181.908L105.586 183.675L103.11 187.908L100.089 186.141L97.6132 190.374L100.634 192.141L98.1583 196.374L95.1372 194.607L92.6611 198.84L95.6822 200.607L93.2062 204.84L90.1851 203.073L88.947 205.19C88.647 205.703 88.3251 206.167 87.9868 206.587L90.7113 208.784C89.7352 209.994 88.6208 210.967 87.419 211.717L85.5661 208.748C84.6371 209.327 83.632 209.726 82.5899 209.952L83.3334 213.373C81.882 213.688 80.3913 213.756 78.9274 213.593L79.3133 210.115C78.2089 209.992 77.1227 209.695 76.1086 209.238L74.6705 212.429C73.3284 211.824 72.0792 211.008 70.989 209.998L73.3674 207.43C72.5839 206.704 71.9189 205.85 71.4106 204.877L68.3086 206.498C67.6524 205.242 67.1836 203.839 66.9531 202.302L70.4143 201.782C70.3343 201.249 70.291 200.685 70.291 200.09V197.557H66.791V192.492H70.291V187.426H66.791V182.36H70.291V177.295H66.791V172.229H70.291V167.163H66.791V162.097H70.291V159.565Z" stroke="#E30000" stroke-width="7" stroke-dasharray="5 5"/>
</svg>
