<svg width="110" height="49" viewBox="0 0 110 49" fill="none" xmlns="http://www.w3.org/2000/svg">
<path d="M43.8983 24.8567C43.8983 36.9637 34.631 46.7783 23.1991 46.7783C11.7673 46.7783 2.5 36.9637 2.5 24.8567C2.5 12.7497 11.7673 2.93506 23.1991 2.93506C34.631 2.93506 43.8983 12.7497 43.8983 24.8567Z" fill="#DDDDDD"/>
<path fill-rule="evenodd" clip-rule="evenodd" d="M45.8729 24.8567C45.8729 37.9455 35.8272 48.752 23.2001 48.752C10.5731 48.752 0.527344 37.9455 0.527344 24.8567C0.527344 11.7679 10.5731 0.961426 23.2001 0.961426C35.8272 0.961426 45.8729 11.7679 45.8729 24.8567ZM23.2001 46.7784C34.632 46.7784 43.8993 36.9637 43.8993 24.8567C43.8993 12.7497 34.632 2.93508 23.2001 2.93508C11.7683 2.93508 2.501 12.7497 2.501 24.8567C2.501 36.9637 11.7683 46.7784 23.2001 46.7784Z" fill="#919191"/>
<path d="M107.527 24.8567C107.527 36.9637 98.2599 46.7783 86.8281 46.7783C75.3962 46.7783 66.1289 36.9637 66.1289 24.8567C66.1289 12.7497 75.3962 2.93506 86.8281 2.93506C98.2599 2.93506 107.527 12.7497 107.527 24.8567Z" fill="#DDDDDD"/>
<path fill-rule="evenodd" clip-rule="evenodd" d="M109.502 24.8567C109.502 37.9455 99.4561 48.752 86.829 48.752C74.202 48.752 64.1562 37.9455 64.1562 24.8567C64.1562 11.7679 74.202 0.961426 86.829 0.961426C99.4561 0.961426 109.502 11.7679 109.502 24.8567ZM86.829 46.7784C98.2609 46.7784 107.528 36.9637 107.528 24.8567C107.528 12.7497 98.2609 2.93508 86.829 2.93508C75.3972 2.93508 66.1299 12.7497 66.1299 24.8567C66.1299 36.9637 75.3972 46.7784 86.829 46.7784Z" fill="#919191"/>
<path d="M97.9415 28.3811C97.9415 37.763 91.1565 45.3686 82.7867 45.3686C74.4169 45.3686 67.6318 37.763 67.6318 28.3811C67.6318 18.9991 74.4169 11.3936 82.7867 11.3936C91.1565 11.3936 97.9415 18.9991 97.9415 28.3811Z" fill="#8B4A00"/>
<path d="M12.0839 28.3811C12.0839 37.763 18.8689 45.3686 27.2387 45.3686C35.6085 45.3686 42.3936 37.763 42.3936 28.3811C42.3936 18.9991 35.6085 11.3936 27.2387 11.3936C18.8689 11.3936 12.0839 18.9991 12.0839 28.3811Z" fill="#8B4A00"/>
<path d="M22.8776 5.61349C25.0966 8.11016 23.0406 13.5603 18.2855 17.7866C13.5303 22.013 7.87657 23.4152 5.65754 20.9186C3.43852 18.4219 5.49448 12.9718 10.2497 8.74541C15.0048 4.51904 20.6586 3.11682 22.8776 5.61349Z" fill="white"/>
<path d="M86.8932 5.61349C89.1122 8.11016 87.0563 13.5603 82.3011 17.7866C77.5459 22.013 71.8922 23.4152 69.6732 20.9186C67.4541 18.4219 69.5101 12.9718 74.2653 8.74541C79.0205 4.51904 84.6742 3.11682 86.8932 5.61349Z" fill="white"/>
</svg>
