<svg width="202" height="89" viewBox="0 0 202 89" fill="none" xmlns="http://www.w3.org/2000/svg">
<path d="M80.1525 44.1585C80.1525 66.5323 63.0265 84.6697 41.9005 84.6697C20.7745 84.6697 3.64844 66.5323 3.64844 44.1585C3.64844 21.7848 20.7745 3.64734 41.9005 3.64734C63.0265 3.64734 80.1525 21.7848 80.1525 44.1585Z" fill="#DDDDDD"/>
<path fill-rule="evenodd" clip-rule="evenodd" d="M83.7987 44.1585C83.7987 68.3466 65.234 88.317 41.8993 88.317C18.5646 88.317 0 68.3466 0 44.1585C0 19.9705 18.5646 0 41.8993 0C65.234 0 83.7987 19.9705 83.7987 44.1585ZM41.8993 84.6697C63.0253 84.6697 80.1514 66.5322 80.1514 44.1585C80.1514 21.7848 63.0253 3.64731 41.8993 3.64731C20.7733 3.64731 3.64731 21.7848 3.64731 44.1585C3.64731 66.5322 20.7733 84.6697 41.8993 84.6697Z" fill="#919191"/>
<path d="M197.738 44.1585C197.738 66.5323 180.612 84.6697 159.486 84.6697C138.36 84.6697 121.234 66.5323 121.234 44.1585C121.234 21.7848 138.36 3.64734 159.486 3.64734C180.612 3.64734 197.738 21.7848 197.738 44.1585Z" fill="#DDDDDD"/>
<path fill-rule="evenodd" clip-rule="evenodd" d="M201.385 44.1585C201.385 68.3466 182.82 88.317 159.485 88.317C136.151 88.317 117.586 68.3466 117.586 44.1585C117.586 19.9705 136.151 0 159.485 0C182.82 0 201.385 19.9705 201.385 44.1585ZM159.485 84.6697C180.611 84.6697 197.737 66.5322 197.737 44.1585C197.737 21.7848 180.611 3.64731 159.485 3.64731C138.359 3.64731 121.233 21.7848 121.233 44.1585C121.233 66.5322 138.359 84.6697 159.485 84.6697Z" fill="#919191"/>
<path d="M180.02 50.6715C180.02 68.0093 167.481 82.0644 152.014 82.0644C136.547 82.0644 124.008 68.0093 124.008 50.6715C124.008 33.3337 136.547 19.2786 152.014 19.2786C167.481 19.2786 180.02 33.3337 180.02 50.6715Z" fill="#FFB515"/>
<path d="M21.3549 50.6715C21.3549 68.0093 33.8937 82.0644 49.3611 82.0644C64.8284 82.0644 77.3672 68.0093 77.3672 50.6715C77.3672 33.3337 64.8284 19.2786 49.3611 19.2786C33.8937 19.2786 21.3549 33.3337 21.3549 50.6715Z" fill="#FFB515"/>
<path d="M41.3024 8.59705C45.4031 13.2109 41.6037 23.2827 32.8161 31.093C24.0286 38.9034 13.5805 41.4947 9.47976 36.8808C5.37901 32.267 9.17842 22.1952 17.966 14.3848C26.7536 6.5745 37.2016 3.98321 41.3024 8.59705Z" fill="white"/>
<path d="M159.607 8.59705C163.708 13.2109 159.908 23.2827 151.121 31.093C142.333 38.9034 131.885 41.4947 127.784 36.8808C123.684 32.267 127.483 22.1952 136.271 14.3848C145.058 6.5745 155.506 3.98321 159.607 8.59705Z" fill="white"/>
</svg>
