<svg width="140" height="140" viewBox="0 0 140 140" fill="none" xmlns="http://www.w3.org/2000/svg">
<path opacity="0.5" d="M20.2067 119.793C28.7583 128.333 42.5017 128.333 70 128.333C97.4983 128.333 111.247 128.333 119.787 119.787C128.333 111.253 128.333 97.4983 128.333 70C128.333 42.5016 128.333 28.7525 119.787 20.2066C111.253 11.6666 97.4983 11.6666 70 11.6666C42.5017 11.6666 28.7525 11.6666 20.2067 20.2066C11.6667 28.7583 11.6667 42.5016 11.6667 70C11.6667 97.4983 11.6667 111.253 20.2067 119.793Z" fill="#FF8800"/>
<path d="M99.1667 73.8908C99.1667 98.7758 78.4233 105 68.0575 105C58.975 105 40.8333 98.7758 40.8333 73.8908C40.8333 63.0583 47.0342 56.1924 52.2433 52.7333C54.6233 51.1524 57.5867 52.1616 57.7383 55.0141C58.0767 61.2616 62.8892 66.2783 66.6225 61.2558C70.0292 56.6591 71.715 50.4174 71.715 46.6666C71.715 41.1424 77.3033 37.6366 81.6725 41.0199C90.1775 47.6116 99.1667 58.6599 99.1667 73.8908Z" fill="#FF8800"/>
</svg>
