<svg width="323" height="54" viewBox="0 0 323 54" fill="none" xmlns="http://www.w3.org/2000/svg">
<path d="M120.861 24.4808L109.695 34.0984L113.097 48.4814C113.285 49.2622 113.237 50.081 112.958 50.8344C112.68 51.5878 112.184 52.2419 111.534 52.7143C110.883 53.1866 110.107 53.4558 109.304 53.488C108.5 53.5202 107.705 53.3139 107.018 52.8952L94.4876 45.1971L81.9497 52.8952C81.2634 53.3115 80.4691 53.5158 79.6667 53.4825C78.8644 53.4491 78.0898 53.1795 77.4407 52.7076C76.7915 52.2357 76.2967 51.5826 76.0187 50.8305C75.7406 50.0785 75.6916 49.2612 75.878 48.4814L79.2922 34.0984L68.1264 24.4808C67.5192 23.957 67.0801 23.2662 66.8639 22.4947C66.6476 21.7233 66.6639 20.9053 66.9106 20.143C67.1573 19.3807 67.6235 18.7079 68.251 18.2085C68.8785 17.7091 69.6395 17.4053 70.439 17.3351L85.0786 16.1561L90.726 2.51365C91.0317 1.77015 91.552 1.13417 92.2207 0.68658C92.8894 0.238988 93.6763 0 94.4814 0C95.2866 0 96.0735 0.238988 96.7422 0.68658C97.4109 1.13417 97.9312 1.77015 98.2369 2.51365L103.882 16.1561L118.521 17.3351C119.322 17.4027 120.086 17.7048 120.715 18.2035C121.345 18.7022 121.814 19.3753 122.062 20.1385C122.31 20.9018 122.327 21.7211 122.111 22.494C121.895 23.2669 121.455 23.9589 120.846 24.4833L120.861 24.4808Z" fill="#773F00"/>
<path d="M54.1485 24.4808L42.9827 34.0984L46.3845 48.4814C46.5722 49.2622 46.5239 50.081 46.2456 50.8344C45.9674 51.5878 45.4717 52.2419 44.8211 52.7143C44.1706 53.1866 43.3945 53.4558 42.5907 53.488C41.787 53.5202 40.9917 53.3139 40.3054 52.8952L27.7748 45.1971L15.2368 52.8952C14.5506 53.3115 13.7563 53.5158 12.9539 53.4825C12.1515 53.4491 11.377 53.1795 10.7278 52.7076C10.0787 52.2357 9.58391 51.5826 9.30582 50.8305C9.02774 50.0785 8.97879 49.2612 9.16512 48.4814L12.5794 34.0984L1.41356 24.4808C0.806385 23.957 0.367263 23.2662 0.151037 22.4947C-0.0651893 21.7233 -0.0489362 20.9053 0.197766 20.143C0.444468 19.3807 0.910685 18.7079 1.53819 18.2085C2.1657 17.7091 2.92669 17.4053 3.72613 17.3351L18.3658 16.1561L24.0132 2.51365C24.3189 1.77015 24.8391 1.13417 25.5078 0.68658C26.1765 0.238988 26.9635 0 27.7686 0C28.5737 0 29.3607 0.238988 30.0294 0.68658C30.6981 1.13417 31.2184 1.77015 31.5241 2.51365L37.169 16.1561L51.8086 17.3351C52.6096 17.4027 53.3729 17.7048 54.0027 18.2035C54.6324 18.7022 55.1008 19.3753 55.349 20.1385C55.5973 20.9018 55.6144 21.7211 55.3982 22.494C55.1819 23.2669 54.7421 23.9589 54.1336 24.4833L54.1485 24.4808Z" fill="#773F00"/>
<path d="M187.574 24.4808L176.408 34.0984L179.81 48.4814C179.998 49.2622 179.95 50.081 179.671 50.8344C179.393 51.5878 178.897 52.2419 178.247 52.7143C177.596 53.1866 176.82 53.4558 176.016 53.488C175.213 53.5202 174.417 53.3139 173.731 52.8952L161.2 45.1971L148.663 52.8952C147.976 53.3115 147.182 53.5158 146.38 53.4825C145.577 53.4491 144.803 53.1795 144.154 52.7076C143.504 52.2357 143.01 51.5826 142.731 50.8305C142.453 50.0785 142.404 49.2612 142.591 48.4814L146.005 34.0984L134.839 24.4808C134.232 23.957 133.793 23.2662 133.577 22.4947C133.36 21.7233 133.377 20.9053 133.623 20.143C133.87 19.3807 134.336 18.7079 134.964 18.2085C135.591 17.7091 136.352 17.4053 137.152 17.3351L151.791 16.1561L157.439 2.51365C157.745 1.77015 158.265 1.13417 158.933 0.68658C159.602 0.238988 160.389 0 161.194 0C161.999 0 162.786 0.238988 163.455 0.68658C164.124 1.13417 164.644 1.77015 164.95 2.51365L170.595 16.1561L185.234 17.3351C186.035 17.4027 186.799 17.7048 187.428 18.2035C188.058 18.7022 188.526 19.3753 188.775 20.1385C189.023 20.9018 189.04 21.7211 188.824 22.494C188.608 23.2669 188.168 23.9589 187.559 24.4833L187.574 24.4808Z" fill="#773F00"/>
<path d="M254.287 24.4808L243.121 34.0984L246.523 48.4814C246.711 49.2622 246.662 50.081 246.384 50.8344C246.106 51.5878 245.61 52.2419 244.96 52.7143C244.309 53.1866 243.533 53.4558 242.729 53.488C241.925 53.5202 241.13 53.3139 240.444 52.8952L227.913 45.1971L215.375 52.8952C214.689 53.3115 213.895 53.5158 213.092 53.4825C212.29 53.4491 211.516 53.1795 210.866 52.7076C210.217 52.2357 209.722 51.5826 209.444 50.8305C209.166 50.0785 209.117 49.2612 209.304 48.4814L212.718 34.0984L201.552 24.4808C200.945 23.957 200.506 23.2662 200.29 22.4947C200.073 21.7233 200.09 20.9053 200.336 20.143C200.583 19.3807 201.049 18.7079 201.677 18.2085C202.304 17.7091 203.065 17.4053 203.865 17.3351L218.504 16.1561L224.152 2.51365C224.457 1.77015 224.978 1.13417 225.646 0.68658C226.315 0.238988 227.102 0 227.907 0C228.712 0 229.499 0.238988 230.168 0.68658C230.837 1.13417 231.357 1.77015 231.663 2.51365L237.307 16.1561L251.947 17.3351C252.748 17.4027 253.511 17.7048 254.141 18.2035C254.771 18.7022 255.239 19.3753 255.488 20.1385C255.736 20.9018 255.753 21.7211 255.537 22.494C255.32 23.2669 254.881 23.9589 254.272 24.4833L254.287 24.4808Z" fill="#773F00"/>
<path d="M321 24.4808L309.834 34.0984L313.236 48.4814C313.424 49.2622 313.375 50.081 313.097 50.8344C312.819 51.5878 312.323 52.2419 311.672 52.7143C311.022 53.1866 310.246 53.4558 309.442 53.488C308.638 53.5202 307.843 53.3139 307.157 52.8952L294.626 45.1971L282.088 52.8952C281.402 53.3115 280.608 53.5158 279.805 53.4825C279.003 53.4491 278.228 53.1795 277.579 52.7076C276.93 52.2357 276.435 51.5826 276.157 50.8305C275.879 50.0785 275.83 49.2612 276.016 48.4814L279.431 34.0984L268.265 24.4808C267.658 23.957 267.219 23.2662 267.002 22.4947C266.786 21.7233 266.802 20.9053 267.049 20.143C267.296 19.3807 267.762 18.7079 268.39 18.2085C269.017 17.7091 269.778 17.4053 270.577 17.3351L285.217 16.1561L290.864 2.51365C291.17 1.77015 291.69 1.13417 292.359 0.68658C293.028 0.238988 293.815 0 294.62 0C295.425 0 296.212 0.238988 296.881 0.68658C297.549 1.13417 298.07 1.77015 298.375 2.51365L304.02 16.1561L318.66 17.3351C319.461 17.4027 320.224 17.7048 320.854 18.2035C321.484 18.7022 321.952 19.3753 322.2 20.1385C322.449 20.9018 322.466 21.7211 322.249 22.494C322.033 23.2669 321.593 23.9589 320.985 24.4833L321 24.4808Z" fill="#773F00"/>
</svg>
