<svg width="39" height="39" viewBox="0 0 39 39" fill="none" xmlns="http://www.w3.org/2000/svg">
<path fill-rule="evenodd" clip-rule="evenodd" d="M4.15092 1.27999C4.2131 1.07731 4.27794 0.874585 4.34551 0.671875C4.5304 0.777367 4.72866 0.8956 4.93797 1.02593C5.12266 1.14093 5.31595 1.26535 5.51627 1.39876C8.0298 3.07269 11.65 6.16161 13.2531 9.80496C15.2056 9.25601 17.3084 8.95712 19.4996 8.95712C21.6739 8.95712 23.7611 9.2514 25.7007 9.79224C27.3067 6.15442 30.9214 3.07074 33.432 1.39876C33.6323 1.26535 33.8256 1.14093 34.0103 1.02593C34.2196 0.8956 34.4179 0.777367 34.6028 0.671875C34.6703 0.874585 34.7352 1.07731 34.7974 1.27999L34.8122 1.32867C36.4614 6.74078 36.2203 12.1128 35.4743 16.1063C37.1465 18.3092 38.1077 20.8868 38.1077 23.6415C38.1077 31.7514 29.7766 38.3258 19.4996 38.3258C9.22271 38.3258 0.891602 31.7514 0.891602 23.6415C0.891602 20.9093 1.83716 18.3514 3.48412 16.1604C2.73021 12.1614 2.47937 6.76525 4.13604 1.32867L4.15092 1.27999Z" fill="#878787"/>
</svg>
