<svg width="72" height="73" viewBox="0 0 72 73" fill="none" xmlns="http://www.w3.org/2000/svg">
<rect y="0.0703125" width="72" height="72" rx="36" fill="#E30000"/>
<path d="M27.9812 46.2132C27.4429 46.2132 26.9045 46.0148 26.4795 45.5898C25.6579 44.7682 25.6579 43.4082 26.4795 42.5865L42.5162 26.5498C43.3379 25.7282 44.6979 25.7282 45.5195 26.5498C46.3412 27.3715 46.3412 28.7315 45.5195 29.5532L29.4829 45.5898C29.0862 46.0148 28.5195 46.2132 27.9812 46.2132Z" fill="#F5F5F4"/>
<path d="M44.0179 46.2132C43.4795 46.2132 42.9412 46.0148 42.5162 45.5898L26.4795 29.5532C25.6579 28.7315 25.6579 27.3715 26.4795 26.5498C27.3012 25.7282 28.6612 25.7282 29.4829 26.5498L45.5195 42.5865C46.3412 43.4082 46.3412 44.7682 45.5195 45.5898C45.0945 46.0148 44.5562 46.2132 44.0179 46.2132Z" fill="#F5F5F4"/>
</svg>
