<svg width="140" height="140" viewBox="0 0 140 140" fill="none" xmlns="http://www.w3.org/2000/svg">
<path opacity="0.5" d="M11.6667 70C11.6667 42.5016 11.6667 28.7525 20.2067 20.2066C28.7584 11.6666 42.5017 11.6666 70 11.6666C97.4984 11.6666 111.248 11.6666 119.788 20.2066C128.333 28.7583 128.333 42.5016 128.333 70C128.333 97.4983 128.333 111.247 119.788 119.787C111.253 128.333 97.4984 128.333 70 128.333C42.5017 128.333 28.7525 128.333 20.2067 119.787C11.6667 111.253 11.6667 97.4983 11.6667 70Z" fill="#14A900"/>
<path d="M84.5833 62.7084C83.423 62.7084 82.3102 62.2474 81.4897 61.427C80.6693 60.6065 80.2083 59.4937 80.2083 58.3334C80.2083 57.1731 80.6693 56.0603 81.4897 55.2398C82.3102 54.4193 83.423 53.9584 84.5833 53.9584H99.1666C100.327 53.9584 101.44 54.4193 102.26 55.2398C103.081 56.0603 103.542 57.1731 103.542 58.3334V72.9167C103.542 74.077 103.081 75.1898 102.26 76.0103C101.44 76.8308 100.327 77.2917 99.1666 77.2917C98.0063 77.2917 96.8935 76.8308 96.0731 76.0103C95.2526 75.1898 94.7916 74.077 94.7916 72.9167V68.8917L83.0491 80.6342C81.1349 82.5471 78.5395 83.6216 75.8333 83.6216C73.1271 83.6216 70.5317 82.5471 68.6175 80.6342L59.3658 71.3825C59.2303 71.2467 59.0694 71.139 58.8922 71.0655C58.7151 70.9919 58.5251 70.9541 58.3333 70.9541C58.1415 70.9541 57.9516 70.9919 57.7744 71.0655C57.5972 71.139 57.4363 71.2467 57.3008 71.3825L43.925 84.7584C43.0956 85.5312 41.9987 85.9519 40.8653 85.9319C39.7318 85.9119 38.6504 85.4527 37.8489 84.6512C37.0473 83.8496 36.5881 82.7682 36.5681 81.6348C36.5481 80.5013 36.9688 79.4044 37.7416 78.575L51.1175 65.1992C53.0317 63.2863 55.6271 62.2118 58.3333 62.2118C61.0395 62.2118 63.6349 63.2863 65.5491 65.1992L74.8008 74.4509C74.9363 74.5867 75.0972 74.6944 75.2744 74.768C75.4516 74.8415 75.6415 74.8793 75.8333 74.8793C76.0251 74.8793 76.2151 74.8415 76.3922 74.768C76.5694 74.6944 76.7303 74.5867 76.8658 74.4509L88.6025 62.7084H84.5833Z" fill="#14A900"/>
</svg>
