<svg width="134" height="134" viewBox="0 0 134 134" fill="none" xmlns="http://www.w3.org/2000/svg">
<path d="M40.6061 60.541C40.6061 73.7321 51.6245 80.7603 59.6883 87.0534C62.5334 89.2722 65.2743 91.3636 68.0152 91.3636C70.7561 91.3636 73.497 89.2749 76.3421 87.0507C84.4085 80.763 95.4243 73.7321 95.4243 60.5437C95.4243 47.3554 80.3493 37.9944 68.0152 50.6782C55.6811 37.9944 40.6061 47.3499 40.6061 60.541Z" fill="#FF0084"/>
<path opacity="0.5" d="M10.1515 68.0151C10.1515 40.7382 10.1515 27.0997 18.6227 18.6227C27.1055 10.1515 40.7382 10.1515 68.0151 10.1515C95.292 10.1515 108.931 10.1515 117.402 18.6227C125.879 27.1055 125.879 40.7382 125.879 68.0151C125.879 95.292 125.879 108.931 117.402 117.402C108.936 125.879 95.292 125.879 68.0151 125.879C40.7382 125.879 27.0997 125.879 18.6227 117.402C10.1515 108.936 10.1515 95.292 10.1515 68.0151Z" fill="#FF0084"/>
</svg>
