<svg width="500" height="500" viewBox="0 0 500 500" fill="none" xmlns="http://www.w3.org/2000/svg">
<g clip-path="url(#clip0_4361_30840)">
<circle cx="250" cy="250" r="250" fill="#002952"/>
<path fill-rule="evenodd" clip-rule="evenodd" d="M141.561 121.292C142.001 119.86 142.459 118.428 142.936 116.996C144.242 117.741 145.643 118.577 147.121 119.497C148.426 120.31 149.792 121.189 151.207 122.131C168.964 133.957 194.538 155.778 205.864 181.516C219.659 177.637 234.516 175.525 249.999 175.525C265.359 175.525 280.104 177.604 293.806 181.424C305.152 155.726 330.687 133.942 348.423 122.131C349.838 121.189 351.203 120.31 352.508 119.497C353.987 118.577 355.387 117.741 356.693 116.996C357.171 118.428 357.629 119.86 358.068 121.292C358.103 121.407 358.138 121.521 358.173 121.636C369.824 159.868 368.121 197.817 362.851 226.029C374.665 241.591 381.456 259.801 381.456 279.262C381.456 336.555 322.601 383 249.999 383C177.398 383 118.543 336.555 118.543 279.262C118.543 259.964 125.221 241.897 136.852 226.42C131.525 198.169 129.752 160.045 141.456 121.636C141.491 121.521 141.526 121.407 141.561 121.292Z" fill="#007FFF"/>
</g>
<defs>
<clipPath id="clip0_4361_30840">
<rect width="500" height="500" fill="white"/>
</clipPath>
</defs>
</svg>
