<svg width="48" height="48" viewBox="0 0 48 48" fill="none" xmlns="http://www.w3.org/2000/svg">
<path d="M0 6C0 4.4087 0.632141 2.88258 1.75736 1.75736C2.88258 0.632141 4.4087 0 6 0L42 0C43.5913 0 45.1174 0.632141 46.2426 1.75736C47.3679 2.88258 48 4.4087 48 6V42C48 43.5913 47.3679 45.1174 46.2426 46.2426C45.1174 47.3679 43.5913 48 42 48H6C4.4087 48 2.88258 47.3679 1.75736 46.2426C0.632141 45.1174 0 43.5913 0 42V6ZM26.79 19.764L19.92 20.625L19.674 21.765L21.024 22.014C21.906 22.224 22.08 22.542 21.888 23.421L19.674 33.825C19.092 36.516 19.989 37.782 22.098 37.782C23.733 37.782 25.632 37.026 26.493 35.988L26.757 34.74C26.157 35.268 25.281 35.478 24.699 35.478C23.874 35.478 23.574 34.899 23.787 33.879L26.79 19.764ZM24 16.5C24.7956 16.5 25.5587 16.1839 26.1213 15.6213C26.6839 15.0587 27 14.2956 27 13.5C27 12.7044 26.6839 11.9413 26.1213 11.3787C25.5587 10.8161 24.7956 10.5 24 10.5C23.2044 10.5 22.4413 10.8161 21.8787 11.3787C21.3161 11.9413 21 12.7044 21 13.5C21 14.2956 21.3161 15.0587 21.8787 15.6213C22.4413 16.1839 23.2044 16.5 24 16.5Z" fill="#280B3D"/>
</svg>
