<svg width="96" height="111" viewBox="0 0 96 111" fill="none" xmlns="http://www.w3.org/2000/svg">
<path d="M2.84766 2.83203V80.4681L48.0004 107.997L93.1531 80.4681V2.83203H2.84766Z" fill="white"/>
<path opacity="0.28" d="M2.84766 2.79688V80.4329L48.0004 107.962L93.1531 80.4329V2.79688H2.84766Z" fill="#1D1D1B"/>
<g opacity="0.5">
<path d="M2.84766 22.3242L5.1607 79.2779L48.0004 107.961C48.0004 107.961 11.0753 74.5318 2.84766 22.3242Z" fill="#1D1D1B"/>
<path d="M48 107.961L90.8397 79.2779L93.1527 22.3242C84.9251 74.5318 48 107.961 48 107.961Z" fill="#1D1D1B"/>
</g>
<path d="M47.9998 110.633L0.5 81.6729V0.542969H95.5V81.6729L48.0002 110.633H47.9998ZM5.1941 79.1945L47.9998 105.293L90.8059 79.1945V5.05186H5.19365V79.1941L5.1941 79.1945Z" fill="#4C4C4C"/>
<path d="M48.0485 21.3832C39.6231 21.3832 34.1657 24.6992 29.8814 30.6125C29.1043 31.6851 29.3437 33.1561 30.4282 33.9456L34.9818 37.2619C36.0766 38.0595 37.6344 37.873 38.4916 36.8412C41.1357 33.6593 43.0971 31.8273 47.2271 31.8273C50.4743 31.8273 54.491 33.8347 54.491 36.8597C54.491 39.1463 52.526 40.3204 49.3195 42.0471C45.5802 44.0609 40.6324 46.5667 40.6324 52.8359V53.8281C40.6324 55.172 41.7666 56.2614 43.1656 56.2614H50.8152C52.2142 56.2614 53.3484 55.172 53.3484 53.8281V53.2428C53.3484 48.8973 66.5712 48.7163 66.5712 36.9568C66.5712 28.101 57.0076 21.3828 48.048 21.3828L48.0485 21.3832ZM46.9908 59.249C42.9589 59.249 39.679 62.3998 39.679 66.2723C39.679 70.1447 42.9593 73.2956 46.9908 73.2956C51.0223 73.2956 54.3027 70.1447 54.3027 66.2723C54.3027 62.3998 51.0223 59.249 46.9908 59.249Z" fill="#4C4C4C"/>
</svg>
