<svg width="48" height="48" viewBox="0 0 48 48" fill="none" xmlns="http://www.w3.org/2000/svg">
<path d="M26.4679 0C29.1679 0.00719983 30.5382 0.0215995 31.7214 0.0551987L32.187 0.0719982C32.7246 0.0911977 33.255 0.115197 33.8957 0.143996C36.4493 0.263993 38.1916 0.667184 39.7204 1.25997C41.3044 1.86955 42.6387 2.69513 43.9731 4.0271C45.1939 5.22643 46.1383 6.67777 46.7402 8.2798C47.333 9.80856 47.7362 11.5509 47.8562 14.1069C47.885 14.7452 47.909 15.2756 47.9282 15.8156L47.9426 16.2812C47.9786 17.462 47.993 18.8323 47.9978 21.5323L48.0002 23.3226V26.4666C48.0061 28.2171 47.9876 29.9676 47.945 31.7176L47.9306 32.1832C47.9114 32.7232 47.8874 33.2536 47.8586 33.892C47.7386 36.4479 47.3306 38.1879 46.7402 39.719C46.1383 41.3211 45.1939 42.7724 43.9731 43.9717C42.7738 45.1926 41.3224 46.1369 39.7204 46.7389C38.1916 47.3317 36.4493 47.7348 33.8957 47.8548L32.187 47.9268L31.7214 47.9412C30.5382 47.9748 29.1679 47.9916 26.4679 47.9964L24.6776 47.9988H21.536C19.7847 48.005 18.0334 47.9866 16.2826 47.9436L15.817 47.9292C15.2473 47.9077 14.6777 47.8829 14.1082 47.8548C11.5547 47.7348 9.81233 47.3317 8.28117 46.7389C6.68 46.1366 5.2295 45.1923 4.03087 43.9717C2.80917 42.7726 1.86398 41.3213 1.26134 39.719C0.668549 38.1903 0.265359 36.4479 0.145361 33.892L0.0733633 32.1832L0.0613639 31.7176C0.0171234 29.9676 -0.00287824 28.2171 0.00136508 26.4666V21.5323C-0.00527771 19.7818 0.0123237 18.0312 0.054164 16.2812L0.0709635 15.8156C0.090163 15.2756 0.114162 14.7452 0.142962 14.1069C0.262959 11.5509 0.666149 9.81096 1.25893 8.2798C1.86299 6.67711 2.80983 5.22572 4.03327 4.0271C5.23121 2.80685 6.68085 1.86253 8.28117 1.25997C9.81233 0.667184 11.5523 0.263993 14.1082 0.143996C14.7466 0.115197 15.2794 0.0911977 15.817 0.0719982L16.2826 0.0575984C18.0326 0.0149581 19.7831 -0.00344319 21.5336 0.00239977L26.4679 0ZM24.0008 11.9997C20.8183 11.9997 17.7661 13.264 15.5157 15.5143C13.2653 17.7647 12.0011 20.8169 12.0011 23.9994C12.0011 27.1819 13.2653 30.2341 15.5157 32.4845C17.7661 34.7349 20.8183 35.9991 24.0008 35.9991C27.1833 35.9991 30.2355 34.7349 32.4859 32.4845C34.7362 30.2341 36.0005 27.1819 36.0005 23.9994C36.0005 20.8169 34.7362 17.7647 32.4859 15.5143C30.2355 13.264 27.1833 11.9997 24.0008 11.9997ZM24.0008 16.7996C24.9463 16.7994 25.8825 16.9855 26.7561 17.3472C27.6297 17.7089 28.4235 18.2391 29.0922 18.9075C29.7609 19.576 30.2913 20.3696 30.6533 21.2431C31.0153 22.1165 31.2017 23.0527 31.2018 23.9982C31.202 24.9437 31.0159 25.88 30.6542 26.7536C30.2925 27.6271 29.7623 28.4209 29.0939 29.0896C28.4254 29.7583 27.6318 30.2888 26.7583 30.6507C25.8849 31.0127 24.9487 31.1991 24.0032 31.1992C22.0937 31.1992 20.2624 30.4407 18.9121 29.0905C17.5619 27.7402 16.8034 25.9089 16.8034 23.9994C16.8034 22.0899 17.5619 20.2586 18.9121 18.9084C20.2624 17.5581 22.0937 16.7996 24.0032 16.7996M36.6029 8.3998C35.8073 8.3998 35.0442 8.71586 34.4816 9.27845C33.919 9.84105 33.603 10.6041 33.603 11.3997C33.603 12.1954 33.919 12.9584 34.4816 13.521C35.0442 14.0836 35.8073 14.3997 36.6029 14.3997C37.3985 14.3997 38.1616 14.0836 38.7242 13.521C39.2867 12.9584 39.6028 12.1954 39.6028 11.3997C39.6028 10.6041 39.2867 9.84105 38.7242 9.27845C38.1616 8.71586 37.3985 8.3998 36.6029 8.3998Z" fill="#280B3D"/>
</svg>
