<svg width="1417" height="617" viewBox="0 0 1417 617" fill="none" xmlns="http://www.w3.org/2000/svg">
<path opacity="0.6" fill-rule="evenodd" clip-rule="evenodd" d="M62.0632 0.11971C98.4491 -2.05565 129.709 25.6774 131.884 62.0632C136.823 144.663 154.965 262.427 191.005 350.187C209.217 394.534 229.244 424.307 248.338 439.967C263.752 452.608 278.269 456.594 300.007 449.682C414.3 413.338 462.896 319.858 488.977 267.954C489.222 267.465 489.471 266.97 489.723 266.467C497.852 250.277 509.636 226.807 526.273 206.062C567.904 154.149 648.185 107.809 739.944 115.034C837.337 122.702 929.139 188.497 994.839 325.729C1040.36 420.802 1080.58 461.639 1107.95 476.606C1129.22 488.241 1146.45 486.626 1167.27 473.418C1191.87 457.804 1218.18 426.636 1240.9 384.511C1263.15 343.269 1278.54 297.816 1284.99 260.942C1291.26 225.035 1325.46 201.016 1361.37 207.292C1397.27 213.569 1421.29 247.765 1415.02 283.671C1405.99 335.296 1385.67 394.168 1357.08 447.173C1328.97 499.295 1289.33 552.297 1237.99 584.874C1182.86 619.856 1114.15 630.451 1044.6 592.415C981.155 557.711 925.697 486.994 875.78 382.729C823.877 274.316 766.677 249.547 729.583 246.627C686.854 243.262 647.163 266.307 629.25 288.644C622.25 297.372 616.109 308.94 606.924 327.22L606.231 328.599C578.979 382.855 509.262 521.654 340.008 575.475C272.519 596.936 211.962 580.849 164.631 542.031C120.981 506.232 90.5942 453.158 68.9001 400.331C25.1284 293.742 5.49465 159.844 0.11971 69.9409C-2.05565 33.5551 25.6774 2.29507 62.0632 0.11971Z" fill="#007FFF"/>
</svg>
