<svg width="46" height="46" viewBox="0 0 46 46" fill="none" xmlns="http://www.w3.org/2000/svg">
<rect width="46" height="46" rx="23" fill="#007FFF"/>
<rect width="46" height="46" rx="23" fill="#007FFF"/>
<path opacity="0.5" d="M9.66699 22.2713C9.66699 19.2193 9.66699 17.694 10.3603 16.43C11.051 15.1647 12.3163 14.3807 14.8457 12.81L17.5123 11.1553C20.1857 9.49535 21.523 8.66602 23.0003 8.66602C24.4777 8.66602 25.8137 9.49535 28.4883 11.1553L31.155 12.81C33.6843 14.3807 34.9497 15.1647 35.6417 16.43C36.3337 17.6953 36.3337 19.2193 36.3337 22.27V24.2993C36.3337 29.4993 36.3337 32.1007 34.771 33.7167C33.2083 35.3327 30.695 35.3327 25.667 35.3327H20.3337C15.3057 35.3327 12.791 35.3327 11.2297 33.7167C9.66833 32.1007 9.66699 29.5007 9.66699 24.2993V22.2713Z" fill="black"/>
</svg>
