<svg width="1920" height="901" viewBox="0 0 1920 901" fill="none" xmlns="http://www.w3.org/2000/svg">
<path fill-rule="evenodd" clip-rule="evenodd" d="M505.213 284.41C446.593 347.721 405.08 446.086 385.906 519.21C376.801 553.935 341.27 574.703 306.545 565.598C271.821 556.493 251.052 520.962 260.157 486.238C282.15 402.362 331.037 281.177 409.825 196.087C449.786 152.929 500.663 115.615 562.993 100.758C626.775 85.5546 694.935 95.7026 764.341 134.261C801.926 154.721 848.887 196.074 874.569 257.71C901.644 322.689 902.211 403.538 855.031 493.035C836.434 528.312 834.446 555.516 838.263 574.194C842.042 592.691 852.504 608.11 868.918 619.367C902.098 642.121 966.824 650.306 1039.32 603.586C1102.13 563.112 1125.75 527.901 1137.18 497.714C1147.59 470.239 1149.78 444.327 1152.86 408.045C1153.72 397.864 1154.65 386.866 1155.85 374.789C1155.89 374.404 1155.93 374.019 1155.98 373.635C1159.86 340.587 1174.48 301.631 1197.12 267.965C1219.82 234.213 1255.65 198.431 1306.24 183.758C1359.69 168.255 1417.07 179.882 1472.74 218.255C1526.62 255.39 1581.03 318.616 1636.89 412.482C1655.25 443.331 1645.12 483.222 1614.27 501.58C1583.42 519.939 1543.53 509.813 1525.17 478.964C1474.03 393.029 1431.15 347.481 1398.96 325.293C1368.57 304.344 1351.1 306.103 1342.45 308.613C1330.94 311.952 1317.4 322.064 1304.99 340.515C1292.71 358.778 1286.47 378.03 1285.14 388.352C1284.46 395.326 1283.86 402.861 1283.22 410.841C1280.16 449.052 1276.27 497.5 1258.76 543.757C1235.56 604.995 1190.94 660.534 1109.74 712.86C1002.24 782.14 879.965 784.575 795.395 726.579C752.935 697.46 721.833 653.754 710.894 600.22C699.992 546.867 710.129 489.134 740.032 432.411C770.452 374.707 765.686 334.391 754.569 307.711C742.139 277.879 718.259 257.147 702.068 248.375C701.849 248.256 701.631 248.137 701.414 248.016C656.327 222.915 621.19 220.528 593.136 227.215C563.535 234.27 533.956 253.368 505.213 284.41Z" fill="#00142B"/>
<circle cx="323.002" cy="502.694" r="52.9711" fill="#002952"/>
<g clip-path="url(#clip0_3936_38885)">
<path d="M347.031 502.723C347.031 515.963 336.271 526.723 323.031 526.723C309.791 526.723 299.031 515.963 299.031 502.723C299.031 489.483 309.791 478.723 323.031 478.723C323.411 478.723 323.791 478.723 324.171 478.743C325.831 478.823 327.111 480.223 327.031 481.883C326.951 483.543 325.591 484.783 323.891 484.743C323.611 484.743 323.311 484.723 323.031 484.723C313.111 484.723 305.031 492.803 305.031 502.723C305.031 512.643 313.111 520.723 323.031 520.723C332.951 520.723 341.031 512.643 341.031 502.723C341.031 502.443 341.031 502.143 341.011 501.863C340.931 500.203 342.211 498.803 343.871 498.723C345.571 498.663 346.931 499.923 347.011 501.583C347.011 501.963 347.031 502.343 347.031 502.723ZM320.851 495.023C322.451 494.563 323.371 492.923 322.931 491.323C322.491 489.723 320.811 488.803 319.231 489.243C313.231 490.943 309.051 496.483 309.051 502.723C309.051 510.443 315.331 516.723 323.051 516.723C329.291 516.723 334.831 512.543 336.531 506.543C336.991 504.943 336.051 503.283 334.451 502.843C332.851 502.383 331.191 503.323 330.751 504.923C329.791 508.343 326.611 510.743 323.051 510.743C318.631 510.743 315.051 507.163 315.051 502.743C315.051 499.183 317.451 496.003 320.871 495.043L320.851 495.023ZM320.911 500.603C319.731 501.783 319.731 503.683 320.911 504.843C321.491 505.423 322.271 505.723 323.031 505.723C323.791 505.723 324.571 505.423 325.151 504.843L335.271 494.723H340.031C340.831 494.723 341.591 494.403 342.151 493.843L346.151 489.843C347.011 488.983 347.271 487.703 346.811 486.583C346.351 485.463 345.251 484.723 344.031 484.723H341.031V481.723C341.031 480.503 340.291 479.423 339.171 478.943C338.051 478.483 336.751 478.743 335.911 479.603L331.911 483.603C331.351 484.163 331.031 484.923 331.031 485.723V490.483L320.911 500.603Z" fill="#D6EBFF"/>
</g>
<circle cx="21" cy="21" r="21" transform="matrix(-1 0 0 1 878.031 662.723)" fill="#D6EBFF"/>
<circle cx="21" cy="21" r="21" transform="matrix(-1 0 0 1 1143.03 593.723)" fill="#D6EBFF"/>
<circle cx="21" cy="21" r="21" transform="matrix(-1 0 0 1 1258.03 319.723)" fill="#D6EBFF"/>
<circle cx="21" cy="21" r="21" transform="matrix(-1 0 0 1 1510.03 307.723)" fill="#D6EBFF"/>
<circle cx="1205" cy="487.694" r="52.9711" fill="#002952"/>
<path d="M1205.53 468.348C1208.14 468.348 1210.73 468.862 1213.14 469.861C1215.55 470.859 1217.74 472.323 1219.58 474.169C1221.43 476.014 1222.89 478.205 1223.89 480.617C1224.89 483.028 1225.41 485.613 1225.41 488.223C1225.41 490.833 1224.89 493.417 1223.89 495.828C1222.89 498.24 1221.43 500.431 1219.58 502.276C1217.74 504.122 1215.55 505.586 1213.14 506.585C1210.73 507.584 1208.14 508.098 1205.53 508.098C1200.26 508.098 1195.2 506.004 1191.48 502.276C1187.75 498.549 1185.66 493.494 1185.66 488.223C1185.66 482.951 1187.75 477.896 1191.48 474.169C1195.2 470.442 1200.26 468.348 1205.53 468.348ZM1199.73 486.566C1200.39 486.566 1201.03 486.305 1201.49 485.839C1201.96 485.373 1202.22 484.741 1202.22 484.082C1202.22 483.423 1201.96 482.791 1201.49 482.325C1201.03 481.859 1200.39 481.598 1199.73 481.598C1199.08 481.598 1198.44 481.859 1197.98 482.325C1197.51 482.791 1197.25 483.423 1197.25 484.082C1197.25 484.741 1197.51 485.373 1197.98 485.839C1198.44 486.305 1199.08 486.566 1199.73 486.566ZM1211.33 486.566C1211.99 486.566 1212.62 486.305 1213.08 485.839C1213.55 485.373 1213.81 484.741 1213.81 484.082C1213.81 483.423 1213.55 482.791 1213.08 482.325C1212.62 481.859 1211.99 481.598 1211.33 481.598C1210.67 481.598 1210.04 481.859 1209.57 482.325C1209.11 482.791 1208.84 483.423 1208.84 484.082C1208.84 484.741 1209.11 485.373 1209.57 485.839C1210.04 486.305 1210.67 486.566 1211.33 486.566ZM1211.72 497.571C1211.86 497.747 1212.03 497.893 1212.22 498.002C1212.42 498.11 1212.63 498.178 1212.85 498.201C1213.08 498.225 1213.3 498.203 1213.51 498.137C1213.73 498.072 1213.92 497.964 1214.09 497.82C1214.26 497.677 1214.4 497.5 1214.5 497.301C1214.61 497.102 1214.66 496.885 1214.68 496.662C1214.69 496.439 1214.66 496.216 1214.59 496.006C1214.52 495.795 1214.4 495.602 1214.25 495.437C1209.86 490.237 1201.2 490.237 1196.81 495.437C1196.66 495.602 1196.55 495.795 1196.47 496.006C1196.4 496.216 1196.37 496.439 1196.38 496.662C1196.4 496.885 1196.46 497.102 1196.56 497.301C1196.66 497.5 1196.8 497.677 1196.97 497.82C1197.14 497.964 1197.34 498.072 1197.55 498.137C1197.76 498.203 1197.99 498.225 1198.21 498.201C1198.43 498.178 1198.65 498.11 1198.84 498.002C1199.04 497.893 1199.21 497.747 1199.34 497.571C1202.41 493.94 1208.65 493.94 1211.72 497.571Z" fill="#D6EBFF"/>
<circle cx="1363" cy="241.694" r="52.9711" fill="#002952"/>
<path d="M1363.53 222.348C1366.14 222.348 1368.73 222.862 1371.14 223.861C1373.55 224.859 1375.74 226.323 1377.58 228.169C1379.43 230.014 1380.89 232.205 1381.89 234.617C1382.89 237.028 1383.41 239.613 1383.41 242.223C1383.41 244.833 1382.89 247.417 1381.89 249.828C1380.89 252.24 1379.43 254.431 1377.58 256.276C1375.74 258.122 1373.55 259.586 1371.14 260.585C1368.73 261.584 1366.14 262.098 1363.53 262.098C1358.26 262.098 1353.2 260.004 1349.48 256.276C1345.75 252.549 1343.66 247.494 1343.66 242.223C1343.66 236.951 1345.75 231.896 1349.48 228.169C1353.2 224.442 1358.26 222.348 1363.53 222.348ZM1357.73 240.566C1358.39 240.566 1359.03 240.305 1359.49 239.839C1359.96 239.373 1360.22 238.741 1360.22 238.082C1360.22 237.423 1359.96 236.791 1359.49 236.325C1359.03 235.859 1358.39 235.598 1357.73 235.598C1357.08 235.598 1356.44 235.859 1355.98 236.325C1355.51 236.791 1355.25 237.423 1355.25 238.082C1355.25 238.741 1355.51 239.373 1355.98 239.839C1356.44 240.305 1357.08 240.566 1357.73 240.566ZM1369.33 240.566C1369.99 240.566 1370.62 240.305 1371.08 239.839C1371.55 239.373 1371.81 238.741 1371.81 238.082C1371.81 237.423 1371.55 236.791 1371.08 236.325C1370.62 235.859 1369.99 235.598 1369.33 235.598C1368.67 235.598 1368.04 235.859 1367.57 236.325C1367.11 236.791 1366.84 237.423 1366.84 238.082C1366.84 238.741 1367.11 239.373 1367.57 239.839C1368.04 240.305 1368.67 240.566 1369.33 240.566ZM1369.72 251.571C1369.86 251.747 1370.03 251.893 1370.22 252.002C1370.42 252.11 1370.63 252.178 1370.85 252.201C1371.08 252.225 1371.3 252.203 1371.51 252.137C1371.73 252.072 1371.92 251.964 1372.09 251.82C1372.26 251.677 1372.4 251.5 1372.5 251.301C1372.61 251.102 1372.66 250.885 1372.68 250.662C1372.69 250.439 1372.66 250.216 1372.59 250.006C1372.52 249.795 1372.4 249.602 1372.25 249.437C1367.86 244.237 1359.2 244.237 1354.81 249.437C1354.66 249.602 1354.55 249.795 1354.47 250.006C1354.4 250.216 1354.37 250.439 1354.38 250.662C1354.4 250.885 1354.46 251.102 1354.56 251.301C1354.66 251.5 1354.8 251.677 1354.97 251.82C1355.14 251.964 1355.34 252.072 1355.55 252.137C1355.76 252.203 1355.99 252.225 1356.21 252.201C1356.43 252.178 1356.65 252.11 1356.84 252.002C1357.04 251.893 1357.21 251.747 1357.34 251.571C1360.41 247.94 1366.65 247.94 1369.72 251.571Z" fill="#D6EBFF"/>
<circle cx="399.002" cy="320.694" r="52.9711" fill="#002952"/>
<path d="M398.477 339.253C395.693 339.253 393.293 338.805 391.277 337.909C390.19 337.4 389.152 336.753 388.161 335.966C386.735 334.834 386.821 332.727 388.114 331.446C389.515 330.058 391.771 330.205 393.419 331.288C393.707 331.477 394.001 331.652 394.301 331.813C395.645 332.485 397.197 332.821 398.957 332.821C400.557 332.821 401.789 332.533 402.653 331.957C403.549 331.381 403.997 330.581 403.997 329.557C403.997 328.629 403.709 327.877 403.133 327.301C402.557 326.725 401.789 326.229 400.829 325.813C399.901 325.397 398.861 324.997 397.709 324.613C396.589 324.229 395.469 323.797 394.349 323.317C393.229 322.805 392.189 322.181 391.229 321.445C390.301 320.677 389.549 319.733 388.973 318.613C388.397 317.461 388.109 316.021 388.109 314.293C388.109 312.213 388.605 310.421 389.597 308.917C390.621 307.413 392.029 306.277 393.821 305.509C395.613 304.709 397.677 304.309 400.013 304.309C402.381 304.309 404.541 304.725 406.493 305.557C407.348 305.915 408.139 306.331 408.863 306.803C410.43 307.823 410.348 309.995 409.019 311.311C407.628 312.688 405.425 312.561 403.703 311.63C403.593 311.57 403.483 311.514 403.373 311.461C402.349 310.949 401.181 310.693 399.869 310.693C398.557 310.693 397.517 310.949 396.749 311.461C395.981 311.941 395.597 312.645 395.597 313.573C395.597 314.437 395.885 315.141 396.461 315.685C397.037 316.197 397.789 316.645 398.717 317.029C399.677 317.413 400.717 317.797 401.837 318.181C402.989 318.565 404.125 319.013 405.245 319.525C406.365 320.037 407.389 320.693 408.317 321.493C409.277 322.261 410.045 323.253 410.621 324.469C411.197 325.653 411.485 327.125 411.485 328.885C411.485 332.117 410.333 334.661 408.029 336.517C405.725 338.341 402.541 339.253 398.477 339.253Z" fill="#D6EBFF"/>
<circle cx="541.002" cy="173.694" r="52.9711" fill="#002952"/>
<path d="M527.439 191.724C525.372 191.724 523.695 190.048 523.695 187.98V161.313C523.695 159.392 525.252 157.836 527.172 157.836C528.356 157.836 529.458 158.438 530.097 159.434L541.676 177.468C541.995 177.966 541.638 178.62 541.046 178.62C540.455 178.62 540.097 177.967 540.416 177.469L551.941 159.452C552.586 158.445 553.699 157.836 554.894 157.836C556.83 157.836 558.399 159.405 558.399 161.341V187.956C558.399 190.037 556.712 191.724 554.631 191.724C552.55 191.724 550.863 190.037 550.863 187.956V171.22C550.863 170.882 551.18 170.635 551.507 170.717C551.851 170.803 552.009 171.201 551.817 171.499L544.866 182.331C544.027 183.638 542.58 184.428 541.027 184.428C539.47 184.428 538.02 183.633 537.182 182.321L530.259 171.474C530.076 171.187 530.226 170.804 530.556 170.719C530.873 170.636 531.183 170.876 531.183 171.204V187.98C531.183 190.048 529.507 191.724 527.439 191.724Z" fill="#D6EBFF"/>
<circle cx="739.002" cy="195.694" r="52.9711" fill="#002952"/>
<path d="M728.073 213.724C725.527 213.724 723.784 211.157 724.722 208.791L734.952 182.998C735.709 181.089 737.554 179.836 739.607 179.836C741.667 179.836 743.516 181.097 744.269 183.015L754.349 208.707C755.295 211.117 753.518 213.724 750.928 213.724C749.381 213.724 747.999 212.754 747.472 211.299L738.638 186.879C738.412 186.255 738.874 185.596 739.538 185.596C740.204 185.596 740.667 186.258 740.437 186.883L731.457 211.361C730.936 212.78 729.585 213.724 728.073 213.724ZM733.47 207.58C731.773 207.58 730.398 206.205 730.398 204.508C730.398 202.811 731.773 201.436 733.47 201.436H745.806C747.502 201.436 748.878 202.811 748.878 204.508C748.878 206.205 747.502 207.58 745.806 207.58H733.47Z" fill="#D6EBFF"/>
<circle cx="821.002" cy="378.694" r="52.9711" fill="#002952"/>
<path d="M814.399 382.756V377.188H821.551C823.055 377.188 824.207 376.804 825.007 376.036C825.839 375.268 826.255 374.228 826.255 372.916C826.255 371.7 825.855 370.692 825.055 369.892C824.255 369.092 823.103 368.692 821.599 368.692H814.399V362.836H822.463C824.703 362.836 826.671 363.268 828.367 364.132C830.063 364.964 831.391 366.132 832.351 367.636C833.311 369.14 833.791 370.868 833.791 372.82C833.791 374.804 833.311 376.548 832.351 378.052C831.391 379.524 830.047 380.676 828.319 381.508C826.591 382.34 824.559 382.756 822.223 382.756H814.399ZM812.407 396.724C810.326 396.724 808.639 395.037 808.639 392.956V366.836C808.639 364.627 810.43 362.836 812.639 362.836H816.175V392.956C816.175 395.037 814.488 396.724 812.407 396.724ZM828.871 396.724C827.74 396.724 826.678 396.182 826.015 395.266L816.511 382.132L823.423 380.26L831.672 391.06C833.444 393.379 831.79 396.724 828.871 396.724Z" fill="#D6EBFF"/>
<circle cx="772.002" cy="561.694" r="52.9711" fill="#002952"/>
<path d="M772.407 578.611C770.326 578.611 768.639 576.924 768.639 574.843V548.971C768.639 546.89 770.326 545.203 772.407 545.203C774.488 545.203 776.175 546.89 776.175 548.971V574.843C776.175 576.924 774.488 578.611 772.407 578.611ZM761.319 551.299C759.503 551.299 758.031 549.827 758.031 548.011C758.031 546.195 759.503 544.723 761.319 544.723H783.495C785.311 544.723 786.783 546.195 786.783 548.011C786.783 549.827 785.311 551.299 783.495 551.299H761.319Z" fill="#D6EBFF"/>
<circle cx="1004" cy="687.694" r="52.9711" fill="#002952"/>
<path d="M991.282 705.889C990.656 705.889 990.132 705.677 989.71 705.253C989.287 704.829 989.075 704.305 989.074 703.681C989.072 703.057 989.284 702.533 989.71 702.109C990.135 701.685 990.659 701.473 991.282 701.473H992.607L996.968 686.953C997.263 685.996 997.806 685.233 998.598 684.663C999.39 684.093 1000.26 683.807 1001.22 683.806H1007.84C1008.8 683.806 1009.68 684.092 1010.47 684.663C1011.26 685.234 1011.8 685.997 1012.1 686.953L1016.46 701.473H1017.78C1018.41 701.473 1018.93 701.685 1019.36 702.109C1019.78 702.533 1019.99 703.057 1019.99 703.681C1019.99 704.305 1019.78 704.83 1019.35 705.256C1018.93 705.681 1018.41 705.892 1017.78 705.889H991.282ZM1002.32 677.181V670.556C1002.32 669.93 1002.54 669.406 1002.96 668.984C1003.38 668.561 1003.91 668.349 1004.53 668.348C1005.16 668.346 1005.68 668.558 1006.11 668.984C1006.53 669.409 1006.74 669.933 1006.74 670.556V677.181C1006.74 677.807 1006.53 678.332 1006.1 678.756C1005.68 679.18 1005.16 679.391 1004.53 679.389C1003.91 679.388 1003.38 679.176 1002.96 678.753C1002.54 678.331 1002.32 677.807 1002.32 677.181ZM1013.92 680.162L1018.61 675.47C1019.01 675.065 1019.52 674.853 1020.13 674.834C1020.74 674.814 1021.26 675.026 1021.7 675.47C1022.11 675.874 1022.31 676.39 1022.31 677.015C1022.31 677.641 1022.11 678.156 1021.7 678.561L1017.01 683.309C1016.57 683.751 1016.05 683.972 1015.46 683.972C1014.87 683.972 1014.36 683.751 1013.92 683.309C1013.48 682.867 1013.25 682.343 1013.25 681.737C1013.25 681.13 1013.48 680.605 1013.92 680.162ZM1019.99 690.431H1026.62C1027.24 690.431 1027.77 690.643 1028.19 691.067C1028.61 691.491 1028.83 692.015 1028.82 692.639C1028.82 693.264 1028.61 693.788 1028.19 694.214C1027.77 694.639 1027.24 694.851 1026.62 694.848H1019.99C1019.36 694.848 1018.84 694.636 1018.42 694.212C1018 693.788 1017.78 693.264 1017.78 692.639C1017.78 692.015 1017.99 691.491 1018.42 691.067C1018.84 690.643 1019.37 690.431 1019.99 690.431ZM992.055 683.254L987.362 678.561C986.957 678.156 986.746 677.651 986.728 677.044C986.711 676.438 986.922 675.913 987.362 675.47C987.767 675.065 988.282 674.862 988.908 674.862C989.534 674.862 990.049 675.065 990.454 675.47L995.202 680.162C995.643 680.604 995.864 681.119 995.864 681.708C995.864 682.297 995.643 682.812 995.202 683.254C994.76 683.696 994.236 683.916 993.629 683.916C993.023 683.916 992.498 683.696 992.055 683.254ZM982.449 694.848C981.823 694.848 981.299 694.636 980.876 694.212C980.454 693.788 980.242 693.264 980.24 692.639C980.239 692.015 980.451 691.491 980.876 691.067C981.302 690.643 981.826 690.431 982.449 690.431H989.074C989.699 690.431 990.224 690.643 990.648 691.067C991.072 691.491 991.283 692.015 991.282 692.639C991.28 693.264 991.068 693.788 990.646 694.214C990.223 694.639 989.699 694.851 989.074 694.848H982.449Z" fill="#D6EBFF"/>
<circle cx="1581" cy="445.694" r="52.9711" fill="#002952"/>
<path d="M1539.56 445.767C1539.38 445.755 1539.2 445.74 1539.03 445.723C1539.21 445.736 1539.38 445.751 1539.56 445.767C1551.04 446.545 1581.03 437.45 1581.03 403.723C1581.03 437.45 1611.02 446.545 1622.5 445.767C1622.68 445.751 1622.86 445.736 1623.03 445.723C1622.86 445.74 1622.68 445.755 1622.5 445.767C1608.42 447.034 1581.86 456.539 1581.03 484.946C1581.06 485.852 1581.06 486.778 1581.03 487.723C1581 486.778 1581 485.852 1581.03 484.946C1580.2 456.539 1553.64 447.034 1539.56 445.767Z" fill="#D6EBFF"/>
<circle cx="610.971" cy="362.971" r="52.9711" fill="#CEFF1A"/>
<g clip-path="url(#clip1_3936_38885)">
<path d="M609.251 339.668C599.407 339.677 594.316 339.855 591.084 343.084C587.855 346.318 587.677 351.407 587.668 361.251H599.134C598.296 360.204 597.693 358.988 597.368 357.686C596.115 352.665 600.665 348.115 605.686 349.368C607.021 349.701 608.229 350.315 609.251 351.134V339.668ZM587.668 364.751C587.677 374.593 587.855 379.685 591.084 382.916C594.318 386.148 599.407 386.323 609.251 386.335V367.955C608.331 369.797 606.916 371.346 605.164 372.429C603.412 373.512 601.394 374.085 599.335 374.085C598.871 374.085 598.425 373.9 598.097 373.572C597.769 373.244 597.585 372.799 597.585 372.335C597.585 371.871 597.769 371.425 598.097 371.097C598.425 370.769 598.871 370.585 599.335 370.585C601.042 370.585 602.699 370.009 604.039 368.951C605.378 367.892 606.321 366.412 606.715 364.751H587.668ZM612.751 386.335C622.593 386.323 627.685 386.148 630.916 382.916C634.148 379.687 634.323 374.593 634.335 364.751H615.288C615.682 366.412 616.625 367.892 617.964 368.951C619.303 370.009 620.961 370.585 622.668 370.585C623.132 370.585 623.577 370.769 623.905 371.097C624.234 371.425 624.418 371.871 624.418 372.335C624.418 372.799 624.234 373.244 623.905 373.572C623.577 373.9 623.132 374.085 622.668 374.085C620.609 374.085 618.59 373.512 616.839 372.429C615.087 371.346 613.672 369.797 612.751 367.955V386.335ZM634.335 361.251C634.323 351.407 634.148 346.316 630.916 343.084C627.687 339.855 622.593 339.677 612.751 339.668V351.134C613.798 350.296 615.014 349.694 616.314 349.368C621.338 348.112 625.89 352.662 624.633 357.686C624.308 358.987 623.706 360.203 622.869 361.251H634.335Z" fill="#0D3512"/>
<path d="M604.835 352.764C606.095 353.08 607.214 353.807 608.013 354.831C608.813 355.855 609.248 357.116 609.25 358.415V361.25H606.415C605.116 361.249 603.854 360.814 602.831 360.014C601.807 359.214 601.079 358.096 600.763 356.836C600.624 356.273 600.631 355.684 600.787 355.126C600.942 354.567 601.238 354.059 601.648 353.649C602.058 353.239 602.567 352.942 603.125 352.787C603.684 352.632 604.273 352.624 604.835 352.764ZM612.75 358.415V361.25H615.585C618.256 361.25 620.587 359.43 621.236 356.836C621.376 356.273 621.368 355.684 621.213 355.125C621.058 354.566 620.761 354.057 620.351 353.648C619.941 353.238 619.431 352.941 618.873 352.786C618.314 352.631 617.725 352.624 617.162 352.764C615.902 353.08 614.784 353.808 613.985 354.832C613.186 355.855 612.751 357.117 612.75 358.415Z" fill="#0D3512"/>
</g>
<circle cx="1389.97" cy="430.971" r="52.9711" fill="#FF0084"/>
<g clip-path="url(#clip2_3936_38885)">
<path d="M1388.25 407.668C1378.41 407.677 1373.32 407.855 1370.08 411.084C1366.85 414.318 1366.68 419.407 1366.67 429.251H1378.13C1377.3 428.204 1376.69 426.988 1376.37 425.686C1375.11 420.665 1379.66 416.115 1384.69 417.368C1386.02 417.701 1387.23 418.315 1388.25 419.134V407.668ZM1366.67 432.751C1366.68 442.593 1366.85 447.685 1370.08 450.916C1373.32 454.148 1378.41 454.323 1388.25 454.335V435.955C1387.33 437.797 1385.92 439.346 1384.16 440.429C1382.41 441.512 1380.39 442.085 1378.33 442.085C1377.87 442.085 1377.43 441.9 1377.1 441.572C1376.77 441.244 1376.58 440.799 1376.58 440.335C1376.58 439.871 1376.77 439.425 1377.1 439.097C1377.43 438.769 1377.87 438.585 1378.33 438.585C1380.04 438.585 1381.7 438.009 1383.04 436.951C1384.38 435.892 1385.32 434.412 1385.71 432.751H1366.67ZM1391.75 454.335C1401.59 454.323 1406.68 454.148 1409.92 450.916C1413.15 447.687 1413.32 442.593 1413.33 432.751H1394.29C1394.68 434.412 1395.62 435.892 1396.96 436.951C1398.3 438.009 1399.96 438.585 1401.67 438.585C1402.13 438.585 1402.58 438.769 1402.91 439.097C1403.23 439.425 1403.42 439.871 1403.42 440.335C1403.42 440.799 1403.23 441.244 1402.91 441.572C1402.58 441.9 1402.13 442.085 1401.67 442.085C1399.61 442.085 1397.59 441.512 1395.84 440.429C1394.09 439.346 1392.67 437.797 1391.75 435.955V454.335ZM1413.33 429.251C1413.32 419.407 1413.15 414.316 1409.92 411.084C1406.69 407.855 1401.59 407.677 1391.75 407.668V419.134C1392.8 418.296 1394.01 417.694 1395.31 417.368C1400.34 416.112 1404.89 420.662 1403.63 425.686C1403.31 426.987 1402.71 428.203 1401.87 429.251H1413.33Z" fill="#FAF0CA"/>
<path d="M1383.84 420.764C1385.1 421.08 1386.22 421.807 1387.02 422.831C1387.82 423.855 1388.25 425.116 1388.25 426.415V429.25H1385.42C1384.12 429.249 1382.86 428.814 1381.83 428.014C1380.81 427.214 1380.08 426.096 1379.77 424.836C1379.63 424.273 1379.63 423.684 1379.79 423.126C1379.94 422.567 1380.24 422.059 1380.65 421.649C1381.06 421.239 1381.57 420.942 1382.13 420.787C1382.69 420.632 1383.27 420.624 1383.84 420.764ZM1391.75 426.415V429.25H1394.59C1397.26 429.25 1399.59 427.43 1400.24 424.836C1400.38 424.273 1400.37 423.684 1400.22 423.125C1400.06 422.566 1399.76 422.057 1399.35 421.648C1398.94 421.238 1398.43 420.941 1397.87 420.786C1397.32 420.631 1396.73 420.624 1396.16 420.764C1394.9 421.08 1393.79 421.808 1392.99 422.832C1392.19 423.855 1391.75 425.117 1391.75 426.415Z" fill="#FAF0CA"/>
</g>
<circle cx="977.973" cy="508.971" r="52.9711" fill="#FF8800"/>
<path d="M986.523 512.217V507.539H992.352C993.093 507.539 993.771 507.386 994.384 507.079C994.998 506.772 995.483 506.325 995.841 505.737C996.199 505.149 996.378 504.433 996.378 503.589C996.378 502.771 996.199 502.068 995.841 501.48C995.483 500.892 994.998 500.445 994.384 500.138C993.771 499.832 993.093 499.678 992.352 499.678H986.523V495H993.234C994.947 495 996.493 495.345 997.874 496.035C999.254 496.726 1000.34 497.723 1001.13 499.026C1001.95 500.304 1002.36 501.826 1002.36 503.589C1002.36 505.353 1001.95 506.887 1001.13 508.191C1000.34 509.469 999.254 510.466 997.874 511.182C996.493 511.872 994.947 512.217 993.234 512.217H986.523ZM981.922 522.072V495H987.942V522.072H981.922Z" fill="#351D09"/>
<path d="M972.213 522.072L964.659 509.993H963.93L953.5 495H960.671L968.11 506.35H968.839L979.269 522.072H972.213ZM953.002 522.072L963.01 507.577L967.65 510.185L959.866 522.072H953.002ZM969.069 509.303L964.429 506.695L971.945 495H978.809L969.069 509.303Z" fill="#351D09"/>
<defs>
<clipPath id="clip0_3936_38885">
<rect width="48" height="48" fill="white" transform="translate(299.031 478.723)"/>
</clipPath>
<clipPath id="clip1_3936_38885">
<rect width="50" height="50" fill="white" transform="translate(586 338)"/>
</clipPath>
<clipPath id="clip2_3936_38885">
<rect width="50" height="50" fill="white" transform="translate(1365 406)"/>
</clipPath>
</defs>
</svg>
