<svg width="167" height="168" viewBox="0 0 167 168" fill="none" xmlns="http://www.w3.org/2000/svg">
<rect width="167" height="168" rx="50" fill="#E30000" fill-opacity="0.3"/>
<g clip-path="url(#clip0_3624_20310)">
<path d="M83 56C81.2714 56 79.8572 54.5857 79.8572 52.8571V49.7143C79.8572 41.0321 86.8893 34 95.5714 34H98.7143C100.443 34 101.857 35.4143 101.857 37.1429V40.2857C101.857 48.9679 94.825 56 86.1429 56H83ZM39 90.5714C39 75.5839 46.0125 59.1429 61 59.1429C66.3625 59.1429 72.7268 61.1661 77.2447 62.9339C80.9375 64.3679 85.0821 64.3679 88.775 62.9339C93.2732 61.1857 99.6572 59.1429 105.02 59.1429C120.007 59.1429 127.02 75.5839 127.02 90.5714C127.02 115.714 111.305 134.571 95.5911 134.571C92.35 134.571 88.1072 133.275 85.475 132.352C83.8839 131.802 82.1554 131.802 80.5643 132.352C77.9322 133.275 73.6893 134.571 70.4482 134.571C54.7143 134.571 39 115.714 39 90.5714Z" fill="#E30000"/>
</g>
<defs>
<clipPath id="clip0_3624_20310">
<rect width="88" height="100.571" fill="white" transform="translate(39 34)"/>
</clipPath>
</defs>
</svg>
