<svg width="167" height="168" viewBox="0 0 167 168" fill="none" xmlns="http://www.w3.org/2000/svg">
<rect width="167" height="168" rx="50" fill="#7C20BE" fill-opacity="0.3"/>
<path d="M47.9375 52.125C45.4014 52.125 42.9691 53.1325 41.1758 54.9258C39.3825 56.7191 38.375 59.1514 38.375 61.6875V64.875H127.625V61.6875C127.625 59.1514 126.618 56.7191 124.824 54.9258C123.031 53.1325 120.599 52.125 118.062 52.125H47.9375Z" fill="#7C20BE"/>
<path fill-rule="evenodd" clip-rule="evenodd" d="M127.625 77.625H38.375V106.312C38.375 108.849 39.3825 111.281 41.1758 113.074C42.9691 114.868 45.4014 115.875 47.9375 115.875H118.062C120.599 115.875 123.031 114.868 124.824 113.074C126.618 111.281 127.625 108.849 127.625 106.312V77.625ZM51.125 98.3438C51.125 97.0757 51.6287 95.8596 52.5254 94.9629C53.4221 94.0662 54.6382 93.5625 55.9062 93.5625H59.0938C60.3618 93.5625 61.5779 94.0662 62.4746 94.9629C63.3713 95.8596 63.875 97.0757 63.875 98.3438C63.875 99.6118 63.3713 100.828 62.4746 101.725C61.5779 102.621 60.3618 103.125 59.0938 103.125H55.9062C54.6382 103.125 53.4221 102.621 52.5254 101.725C51.6287 100.828 51.125 99.6118 51.125 98.3438ZM75.0312 93.5625C73.7632 93.5625 72.5471 94.0662 71.6504 94.9629C70.7537 95.8596 70.25 97.0757 70.25 98.3438C70.25 99.6118 70.7537 100.828 71.6504 101.725C72.5471 102.621 73.7632 103.125 75.0312 103.125H90.9688C92.2368 103.125 93.4529 102.621 94.3496 101.725C95.2463 100.828 95.75 99.6118 95.75 98.3438C95.75 97.0757 95.2463 95.8596 94.3496 94.9629C93.4529 94.0662 92.2368 93.5625 90.9688 93.5625H75.0312Z" fill="#7C20BE"/>
</svg>
