<svg width="49" height="48" viewBox="0 0 49 48" fill="none" xmlns="http://www.w3.org/2000/svg">
<path d="M42.8348 0C44.2492 0 45.6058 0.561903 46.606 1.5621C47.6062 2.56229 48.1681 3.91885 48.1681 5.33333V42.6667C48.1681 44.0812 47.6062 45.4377 46.606 46.4379C45.6058 47.4381 44.2492 48 42.8348 48H5.50142C4.08694 48 2.73038 47.4381 1.73019 46.4379C0.729994 45.4377 0.168091 44.0812 0.168091 42.6667V5.33333C0.168091 3.91885 0.729994 2.56229 1.73019 1.5621C2.73038 0.561903 4.08694 0 5.50142 0H42.8348ZM41.5014 41.3333V27.2C41.5014 24.8944 40.5855 22.6832 38.9552 21.0529C37.3249 19.4226 35.1137 18.5067 32.8081 18.5067C30.5414 18.5067 27.9014 19.8933 26.6214 21.9733V19.0133H19.1814V41.3333H26.6214V28.1867C26.6214 26.1333 28.2748 24.4533 30.3281 24.4533C31.3182 24.4533 32.2678 24.8467 32.968 25.5468C33.6681 26.2469 34.0614 27.1965 34.0614 28.1867V41.3333H41.5014ZM10.5148 14.8267C11.7029 14.8267 12.8424 14.3547 13.6826 13.5145C14.5228 12.6743 14.9948 11.5348 14.9948 10.3467C14.9948 7.86667 12.9948 5.84 10.5148 5.84C9.31952 5.84 8.17323 6.31481 7.32806 7.15997C6.4829 8.00514 6.00809 9.15142 6.00809 10.3467C6.00809 12.8267 8.03476 14.8267 10.5148 14.8267ZM14.2214 41.3333V19.0133H6.83476V41.3333H14.2214Z" fill="#280B3D"/>
</svg>
