<svg width="1145" height="1098" viewBox="0 0 1145 1098" fill="none" xmlns="http://www.w3.org/2000/svg">
<g style="mix-blend-mode:overlay">
<path fill-rule="evenodd" clip-rule="evenodd" d="M707.064 53.7375C924.294 258.987 1079.13 529.568 1140.14 834.048L1140.15 834.058C1160 933.138 1101.48 1031.04 1004.87 1060.69C994.684 1063.82 984.454 1066.83 974.164 1069.74C955.344 1075.05 936.384 1062.36 933.574 1043.01C933.564 1042.94 933.554 1042.88 933.544 1042.82C933.534 1042.76 933.524 1042.69 933.514 1042.63C895.364 782.618 798.564 551.568 662.744 376.298C615.334 315.138 541.234 315.138 493.834 376.298C358.014 551.568 261.194 782.618 223.044 1042.63C222.864 1043.86 222.694 1045.1 222.534 1046.33C220.034 1065.63 201.004 1078.31 182.234 1073.18C167.774 1069.23 153.404 1065.06 139.124 1060.68C42.5138 1031.03 -16.0062 933.128 3.86376 834.048C64.8738 529.568 219.694 258.987 436.924 53.7375C512.744 -17.9125 631.244 -17.9125 707.064 53.7375ZM753.014 962.357C753.534 966.127 753.884 969.897 754.074 973.657V973.647C754.094 973.977 754.114 974.317 754.114 974.647C755.344 1016.21 737.224 1054.91 708.974 1067.33C704.864 1069.13 700.744 1070.86 696.604 1072.51C617.194 1104.08 532.214 1105.75 450.274 1074.12C449.464 1074.11 448.624 1073.93 447.794 1073.6C443.184 1071.76 438.604 1069.82 434.054 1067.78C432.224 1066.96 430.434 1066.03 428.694 1064.99C401.144 1048.57 385.004 1005.71 390.954 962.357C392.534 950.867 394.304 939.477 396.274 928.207C415.814 816.027 454.304 714.907 506.484 632.497C513.714 621.087 521.204 610.017 528.944 599.337C540.284 583.687 554.624 575.397 569.154 574.447C581.504 576.567 593.514 583.977 603.494 596.727C677.714 691.557 728.154 815.787 751.264 950.197C751.874 954.227 752.454 958.287 753.014 962.357Z" fill="white"/>
</g>
<g style="mix-blend-mode:darken">
<path fill-rule="evenodd" clip-rule="evenodd" d="M707.064 53.7375C924.294 258.987 1079.13 529.568 1140.14 834.048L1140.15 834.058C1160 933.138 1101.48 1031.04 1004.87 1060.69C994.684 1063.82 984.454 1066.83 974.164 1069.74C955.344 1075.05 936.384 1062.36 933.574 1043.01C933.564 1042.94 933.554 1042.88 933.544 1042.82C933.534 1042.76 933.524 1042.69 933.514 1042.63C895.364 782.618 798.564 551.568 662.744 376.298C615.334 315.138 541.234 315.138 493.834 376.298C358.014 551.568 261.194 782.618 223.044 1042.63C222.864 1043.86 222.694 1045.1 222.534 1046.33C220.034 1065.63 201.004 1078.31 182.234 1073.18C167.774 1069.23 153.404 1065.06 139.124 1060.68C42.5138 1031.03 -16.0062 933.128 3.86376 834.048C64.8738 529.568 219.694 258.987 436.924 53.7375C512.744 -17.9125 631.244 -17.9125 707.064 53.7375ZM753.014 962.357C753.534 966.127 753.884 969.897 754.074 973.657V973.647C754.094 973.977 754.114 974.317 754.114 974.647C755.344 1016.21 737.224 1054.91 708.974 1067.33C704.864 1069.13 700.744 1070.86 696.604 1072.51C617.194 1104.08 532.214 1105.75 450.274 1074.12C449.464 1074.11 448.624 1073.93 447.794 1073.6C443.184 1071.76 438.604 1069.82 434.054 1067.78C432.224 1066.96 430.434 1066.03 428.694 1064.99C401.144 1048.57 385.004 1005.71 390.954 962.357C392.534 950.867 394.304 939.477 396.274 928.207C415.814 816.027 454.304 714.907 506.484 632.497C513.714 621.087 521.204 610.017 528.944 599.337C540.284 583.687 554.624 575.397 569.154 574.447C581.504 576.567 593.514 583.977 603.494 596.727C677.714 691.557 728.154 815.787 751.264 950.197C751.874 954.227 752.454 958.287 753.014 962.357Z" fill="white"/>
</g>
</svg>
