<svg width="2132" height="546" viewBox="0 0 2132 546" fill="none" xmlns="http://www.w3.org/2000/svg">
<path d="M743.647 421.792L647.92 167.594C637.789 140.7 657.674 111.969 686.417 111.969H688.41C705.903 111.969 721.481 123.029 727.239 139.549L812.525 383.893H773.608L860.234 139.372C866.047 122.952 881.58 111.98 899.007 111.98C927.816 111.98 947.701 140.833 937.449 167.749L840.648 421.947C834.569 437.902 819.279 448.442 802.206 448.442H782.144C765.016 448.442 749.682 437.835 743.647 421.803V421.792Z" fill="white"/>
<path d="M1146.13 454.597C1120.19 454.597 1096.31 450.168 1074.47 441.311C1052.64 432.453 1033.59 420.119 1017.29 404.298C1000.99 388.487 988.258 369.897 979.09 348.54C969.912 327.182 965.328 304.164 965.328 279.496C965.328 254.828 969.834 231.965 978.858 210.917C987.87 189.88 1000.45 171.457 1016.59 155.635C1032.72 139.825 1051.71 127.568 1073.53 118.855C1095.37 110.152 1119.25 105.801 1145.19 105.801C1171.13 105.801 1195.01 110.152 1216.85 118.855C1238.68 127.557 1257.66 139.813 1273.79 155.635C1289.92 171.457 1302.5 189.969 1311.52 211.16C1320.53 232.363 1325.04 255.293 1325.04 279.972C1325.04 304.651 1320.53 327.592 1311.52 348.783C1302.51 369.986 1289.93 388.576 1273.79 404.541C1257.66 420.518 1238.75 432.863 1217.08 441.554C1195.4 450.257 1171.76 454.608 1146.13 454.608V454.597ZM1145.18 378.666C1164.16 378.666 1180.61 374.559 1194.54 366.332C1208.45 358.106 1219.22 346.569 1226.81 331.689C1234.41 316.819 1238.2 299.414 1238.2 279.485C1238.2 264.936 1236.07 251.65 1231.79 239.626C1227.52 227.602 1221.28 217.25 1213.05 208.548C1204.82 199.845 1195.01 193.124 1183.63 188.375C1172.24 183.625 1159.43 181.255 1145.19 181.255C1126.21 181.255 1109.76 185.286 1095.83 193.357C1081.9 201.428 1071.15 212.899 1063.56 227.757C1055.96 242.627 1052.16 259.877 1052.16 279.485C1052.16 294.675 1054.3 308.36 1058.58 320.539C1062.85 332.718 1069.09 343.159 1077.32 351.861C1085.55 360.564 1095.36 367.207 1106.74 371.791C1118.13 376.386 1130.94 378.666 1145.18 378.666Z" fill="white"/>
<path d="M1506.31 451.044C1477.83 451.044 1452.75 445.11 1431.09 433.252C1409.41 421.383 1392.57 404.864 1380.54 383.661C1368.52 362.47 1362.51 338.422 1362.51 311.528V151.606C1362.51 128.278 1381.42 109.367 1404.75 109.367C1428.08 109.367 1446.99 128.278 1446.99 151.606V317.706C1446.99 329.73 1449.6 340.093 1454.81 348.785C1460.03 357.487 1467.15 364.13 1476.17 368.714C1485.18 373.309 1495.23 375.59 1506.31 375.59C1517.39 375.59 1527.67 373.298 1536.2 368.714C1544.74 364.13 1551.55 357.565 1556.61 349.017C1561.67 340.47 1564.2 330.195 1564.2 318.171V151.606C1564.2 128.278 1583.11 109.367 1606.44 109.367H1607.4C1630.72 109.367 1649.63 128.278 1649.63 151.606V312.004C1649.63 338.898 1643.62 362.868 1631.6 383.905C1619.57 404.952 1602.89 421.394 1581.53 433.263C1560.17 445.132 1535.1 451.055 1506.31 451.055V451.044Z" fill="white"/>
<path d="M1792.18 412.391L1700.47 168.855C1690.11 141.352 1710.43 111.979 1739.83 111.979C1757.71 111.979 1773.64 123.294 1779.53 140.179L1864.59 383.903H1825.68L1912.3 139.381C1918.12 122.962 1933.65 111.99 1951.08 111.99C1979.89 111.99 1999.77 140.843 1989.52 167.758L1896.28 412.601C1888.07 434.191 1867.36 448.452 1844.27 448.452C1821.09 448.452 1800.34 434.092 1792.17 412.413L1792.18 412.391Z" fill="white"/>
<path d="M2046.35 405.959V154.44C2046.35 130.979 2065.36 111.969 2088.82 111.969C2112.28 111.969 2131.29 130.979 2131.29 154.44V405.959C2131.29 429.421 2112.28 448.431 2088.82 448.431C2065.36 448.431 2046.35 429.421 2046.35 405.959Z" fill="white"/>
<path d="M352.856 531.215C350.808 532.111 348.759 532.975 346.7 533.794C307.173 549.505 264.89 550.336 224.101 534.592C223.692 534.592 223.282 534.492 222.861 534.326C220.569 533.407 218.289 532.444 216.019 531.425C215.111 531.015 214.214 530.55 213.351 530.03C199.644 521.859 191.606 500.524 194.573 478.945C195.359 473.231 196.245 467.563 197.219 461.949C206.951 406.125 226.105 355.792 252.069 314.782C255.667 309.102 259.398 303.589 263.251 298.274C268.898 290.48 276.039 286.361 283.269 285.885C289.414 286.937 295.393 290.624 300.353 296.979C337.289 344.167 362.4 406.003 373.903 472.899C374.202 474.903 374.501 476.929 374.778 478.956C375.033 480.838 375.21 482.709 375.31 484.58C375.31 484.746 375.321 484.912 375.332 485.078C375.941 505.761 366.928 525.025 352.867 531.204L352.856 531.215Z" fill="white"/>
<path d="M1.92256 415.103C32.2926 263.563 109.342 128.896 217.458 26.7468C255.191 -8.9156 314.171 -8.9156 351.904 26.7468C460.02 128.896 537.08 263.563 567.45 415.103C577.326 464.417 548.207 513.144 500.122 527.892C495.051 529.453 489.958 530.948 484.832 532.398C475.465 535.044 466.032 528.733 464.626 519.101C464.626 519.034 464.604 518.979 464.604 518.913C445.616 389.505 397.442 274.513 329.848 187.289C306.254 156.852 269.374 156.852 245.78 187.289C178.175 274.524 129.991 389.516 111.013 518.913C110.925 519.521 110.836 520.142 110.759 520.75C109.519 530.361 100.041 536.672 90.6966 534.114C83.4999 532.143 76.3475 530.073 69.2394 527.892C21.1543 513.133 -7.9646 464.406 1.92256 415.103Z" fill="white"/>
</svg>
