<svg width="102" height="102" viewBox="0 0 102 102" fill="none" xmlns="http://www.w3.org/2000/svg">
<rect width="102" height="102" rx="24" fill="#14A900" fill-opacity="0.3"/>
<path d="M54.75 61C54.75 61.9946 54.3549 62.9484 53.6517 63.6516C52.9484 64.3549 51.9946 64.75 51 64.75C50.0054 64.75 49.0516 64.3549 48.3483 63.6516C47.6451 62.9484 47.25 61.9946 47.25 61C47.25 60.0054 47.6451 59.0516 48.3483 58.3483C49.0516 57.6451 50.0054 57.25 51 57.25C51.9946 57.25 52.9484 57.6451 53.6517 58.3483C54.3549 59.0516 54.75 60.0054 54.75 61Z" fill="#14A900"/>
<path d="M56.8675 22.6484L64.8175 33.7884L70.06 32.0009L74.845 45.9984H77.25V75.9984H24.75V45.9984H26.025V45.9734L27.645 45.9884L56.8675 22.6484ZM44.4925 45.9984H69.5625L66.97 38.4159L63.165 39.6334L44.4925 45.9984ZM40.5975 42.0409L59.875 35.4734L55.865 29.8484L40.5975 42.0409ZM34.75 50.9984H29.75V55.9984C31.0761 55.9984 32.3479 55.4717 33.2855 54.534C34.2232 53.5963 34.75 52.3245 34.75 50.9984ZM59.75 60.9984C59.75 59.8494 59.5237 58.7116 59.0839 57.65C58.6442 56.5884 57.9997 55.6238 57.1872 54.8113C56.3747 53.9987 55.4101 53.3542 54.3485 52.9145C53.2869 52.4748 52.1491 52.2484 51 52.2484C49.8509 52.2484 48.7131 52.4748 47.6515 52.9145C46.5899 53.3542 45.6253 53.9987 44.8128 54.8113C44.0003 55.6238 43.3558 56.5884 42.9161 57.65C42.4763 58.7116 42.25 59.8494 42.25 60.9984C42.25 63.3191 43.1719 65.5447 44.8128 67.1856C46.4538 68.8266 48.6794 69.7484 51 69.7484C53.3206 69.7484 55.5462 68.8266 57.1872 67.1856C58.8281 65.5447 59.75 63.3191 59.75 60.9984ZM72.25 70.9984V65.9984C70.9239 65.9984 69.6521 66.5252 68.7145 67.4629C67.7768 68.4006 67.25 69.6724 67.25 70.9984H72.25ZM67.25 50.9984C67.25 52.3245 67.7768 53.5963 68.7145 54.534C69.6521 55.4717 70.9239 55.9984 72.25 55.9984V50.9984H67.25ZM29.75 70.9984H34.75C34.75 69.6724 34.2232 68.4006 33.2855 67.4629C32.3479 66.5252 31.0761 65.9984 29.75 65.9984V70.9984Z" fill="#14A900"/>
</svg>
