<svg width="168" height="168" viewBox="0 0 168 168" fill="none" xmlns="http://www.w3.org/2000/svg">
<rect width="168" height="168" rx="50" fill="#14A900" fill-opacity="0.3"/>
<path d="M90.375 101C90.375 102.691 89.7034 104.312 88.5078 105.508C87.3123 106.703 85.6908 107.375 84 107.375C82.3092 107.375 80.6877 106.703 79.4922 105.508C78.2966 104.312 77.625 102.691 77.625 101C77.625 99.3092 78.2966 97.6877 79.4922 96.4922C80.6877 95.2966 82.3092 94.625 84 94.625C85.6908 94.625 87.3123 95.2966 88.5078 96.4922C89.7034 97.6877 90.375 99.3092 90.375 101Z" fill="#14A900"/>
<path d="M93.9748 35.8047L107.49 54.7427L116.402 51.7039L124.536 75.4997H128.625V126.5H39.375V75.4997H41.5425V75.4572L44.2965 75.4827L93.9748 35.8047ZM72.9373 75.4997H115.556L111.149 62.6094L104.68 64.6792L72.9373 75.4997ZM66.3158 68.7719L99.0875 57.6072L92.2705 48.0447L66.3158 68.7719ZM56.375 83.9997H47.875V92.4997C50.1293 92.4997 52.2913 91.6042 53.8854 90.0101C55.4795 88.416 56.375 86.254 56.375 83.9997ZM98.875 101C98.875 99.0463 98.4902 97.112 97.7427 95.3073C96.9952 93.5026 95.8995 91.8627 94.5182 90.4815C93.1369 89.1002 91.4971 88.0045 89.6924 87.257C87.8877 86.5094 85.9534 86.1247 84 86.1247C82.0466 86.1247 80.1123 86.5094 78.3076 87.257C76.5029 88.0045 74.8631 89.1002 73.4818 90.4815C72.1005 91.8627 71.0048 93.5026 70.2573 95.3073C69.5098 97.112 69.125 99.0463 69.125 101C69.125 104.945 70.6922 108.728 73.4818 111.518C76.2714 114.308 80.0549 115.875 84 115.875C87.9451 115.875 91.7286 114.308 94.5182 111.518C97.3078 108.728 98.875 104.945 98.875 101ZM120.125 118V109.5C117.871 109.5 115.709 110.395 114.115 111.989C112.521 113.583 111.625 115.745 111.625 118H120.125ZM111.625 83.9997C111.625 86.254 112.521 88.416 114.115 90.0101C115.709 91.6042 117.871 92.4997 120.125 92.4997V83.9997H111.625ZM47.875 118H56.375C56.375 115.745 55.4795 113.583 53.8854 111.989C52.2913 110.395 50.1293 109.5 47.875 109.5V118Z" fill="#14A900"/>
</svg>
