<svg width="219" height="43" viewBox="0 0 219 43" fill="none" xmlns="http://www.w3.org/2000/svg">
<path fill-rule="evenodd" clip-rule="evenodd" d="M8.7397 0.517366C9.92685 0.0296119 11.2635 -0.132831 12.6167 0.114193C34.9433 4.18988 70.5767 8.63252 109.491 9.29201C148.405 8.63252 184.039 4.18988 206.365 0.114193C207.719 -0.132831 209.055 0.0296131 210.242 0.517368C213.235 0.86766 215.799 3.12344 216.303 6.26866L218.895 22.4695C219.417 25.7322 217.556 28.8989 214.392 29.852C193.575 36.124 156.04 43.0097 109.491 42.6646C62.9426 43.0097 25.4075 36.124 4.58993 29.852C1.42621 28.8989 -0.434816 25.7322 0.0872536 22.4695L2.67961 6.26866C3.18289 3.12343 5.74688 0.867653 8.7397 0.517366Z" fill="#351D09"/>
</svg>
