<svg width="119" height="23" viewBox="0 0 119 23" fill="none" xmlns="http://www.w3.org/2000/svg">
<path fill-rule="evenodd" clip-rule="evenodd" d="M4.74935 0.278825C5.39448 0.0159588 6.12085 -0.0715868 6.85621 0.0615424C18.989 2.25806 38.353 4.65234 59.5 5.00775C80.647 4.65234 100.011 2.25806 112.144 0.0615424C112.879 -0.0715869 113.606 0.0159594 114.251 0.278826C115.877 0.467609 117.27 1.68332 117.544 3.37838L118.953 12.1095C119.236 13.8679 118.225 15.5745 116.506 16.0882C105.193 19.4684 84.7955 23.1793 59.5 22.9933C34.2045 23.1793 13.807 19.4684 2.49427 16.0882C0.775036 15.5745 -0.236289 13.8679 0.0474156 12.1095L1.45616 3.37838C1.72966 1.68331 3.12299 0.467605 4.74935 0.278825Z" fill="#F4D35E"/>
</svg>
