<svg width="123" height="27" viewBox="0 0 123 27" fill="none" xmlns="http://www.w3.org/2000/svg">
<path fill-rule="evenodd" clip-rule="evenodd" d="M6.74935 2.27882C7.39448 2.01596 8.12085 1.92841 8.85621 2.06154C20.989 4.25806 40.353 6.65234 61.5 7.00775C82.647 6.65234 102.011 4.25806 114.144 2.06154C114.879 1.92841 115.606 2.01596 116.251 2.27883C117.877 2.46761 119.27 3.68332 119.544 5.37838L120.953 14.1095C121.236 15.8679 120.225 17.5745 118.506 18.0882C107.193 21.4684 86.7955 25.1793 61.5 24.9933C36.2045 25.1793 15.807 21.4684 4.49427 18.0882C2.77504 17.5745 1.76371 15.8679 2.04742 14.1095L3.45616 5.37838C3.72966 3.68331 5.12299 2.46761 6.74935 2.27882Z" fill="#FAF0CA" stroke="black" stroke-width="3"/>
</svg>
