<svg width="96" height="112" viewBox="0 0 96 112" fill="none" xmlns="http://www.w3.org/2000/svg">
<g id="Frame 125">
<g id="Emplema - Iniciante Financeiro 1">
<path id="Vector" d="M2.84766 3.24573V80.8792L48.0004 108.407L93.1531 80.8792V3.24573H2.84766Z" fill="white"/>
<path id="Vector_2" opacity="0.28" d="M2.84766 3.21124V80.8447L48.0004 108.373L93.1531 80.8447V3.21124H2.84766Z" fill="#38FF2D"/>
<g id="Group">
<path id="Vector_3" d="M2.84766 22.7385L5.1607 79.6903L48.0004 108.373C48.0004 108.373 11.0753 74.9444 2.84766 22.7385Z" fill="#11AF00"/>
<path id="Vector_4" d="M48 108.373L90.8397 79.6904L93.1527 22.7385C84.9251 74.9444 48 108.373 48 108.373Z" fill="#11AF00"/>
</g>
<g id="Group_2">
<path id="Vector_5" d="M35.3247 80.2916C35.3247 80.2916 42.8244 93.5265 42.445 103.568C42.0656 113.61 59.0094 101.664 59.0094 101.664C59.0094 101.664 54.5748 90.2786 57.4852 84.3191C57.5254 84.237 57.414 84.1644 57.3483 84.2297L55.4942 86.0818L54.6057 86.5219C54.1167 86.7642 53.6165 86.9843 53.1065 87.1824C51.9097 87.6469 50.5845 87.7101 49.3452 87.3616C48.2205 87.0453 47.1364 86.6091 46.1128 86.0616L35.3242 80.2916H35.3247Z" fill="#38FF2D"/>
<path id="Vector_6" d="M38.8882 83.9176L45.3526 87.3747C46.4765 87.9759 47.6719 88.4568 48.9068 88.804C49.5738 88.9918 50.2642 89.0868 50.959 89.0868C51.9007 89.0868 52.8206 88.9149 53.6939 88.5763C54.1328 88.4061 54.569 88.2183 54.9954 88.0172C54.6156 92.9857 56.3336 98.7102 57.1456 101.085C56.3027 101.638 54.9645 102.48 53.4309 103.32C50.1747 105.102 47.455 106.084 45.7718 106.084C45.1701 106.084 44.7397 105.959 44.4927 105.714C44.1433 105.365 43.9715 104.623 44.0091 103.624C44.1742 99.2555 42.9895 93.8731 40.4876 87.6257C39.9405 86.2596 39.3915 85.0074 38.8877 83.918M35.3247 80.2924C35.3247 80.2924 42.8244 93.5272 42.445 103.569C42.3327 106.54 43.7375 107.587 45.7714 107.587C50.61 107.587 59.0094 101.665 59.0094 101.665C59.0094 101.665 54.5748 90.2793 57.4852 84.3198C57.5142 84.2601 57.4632 84.2051 57.4078 84.2051C57.3872 84.2051 57.3662 84.2128 57.3483 84.2304L55.4942 86.0826L54.6057 86.5226C54.1167 86.765 53.6165 86.985 53.1065 87.1831C52.4188 87.4499 51.6891 87.5845 50.9576 87.5845C50.4154 87.5845 49.8727 87.5105 49.3452 87.3623C48.2205 87.046 47.1364 86.6098 46.1128 86.0624L35.3242 80.2924H35.3247Z" fill="#11AF00"/>
</g>
<path id="Vector_7" d="M47.9998 111.043L0.5 82.084V0.956848H95.5V82.084L48.0002 111.043H47.9998ZM5.1941 79.6058L47.9998 105.703L90.8059 79.6058V5.46559H5.19365V79.6054L5.1941 79.6058Z" fill="#38FF2D"/>
<g id="Group_3">
<path id="Vector_8" d="M42.061 58.1766C41.538 58.9393 40.2415 58.7279 40.0513 57.8491C39.3941 54.8122 38.6595 49.9549 40.6379 49.777C42.8377 49.5789 44.4783 51.6949 45.1342 52.7121C45.3355 53.0245 45.3306 53.41 45.1199 53.7172L42.061 58.177V58.1766Z" fill="#38FF2D"/>
<path id="Vector_9" d="M40.516 62.0341C40.4243 62.1677 40.1988 62.1368 40.1558 61.9847L39.7241 60.4574C39.7004 60.3732 39.1362 58.3668 38.7541 56.0823C38.0231 51.7163 38.6087 50.3553 39.1134 49.7116C39.4682 49.2582 39.9621 48.9913 40.5419 48.9389C44.0536 48.623 46.2087 52.7115 46.2991 52.8856L46.4659 53.2087C46.4937 53.2624 46.4896 53.3252 46.4552 53.3759L40.5164 62.0341H40.516ZM40.9169 50.6054C40.8547 50.6054 40.7925 50.608 40.7298 50.6136C40.72 50.6144 40.716 50.6157 40.716 50.6157C40.7075 50.6192 39.9071 51.1378 40.5263 55.2817C40.6471 56.0888 40.8005 56.8876 40.9522 57.5937C40.9862 57.7523 41.2206 57.7901 41.315 57.6526L44.3108 53.2848C44.3462 53.2332 44.3466 53.1687 44.3131 53.1163C43.6782 52.1297 42.3807 50.605 40.9169 50.605V50.6054Z" fill="#11AF00"/>
</g>
<g id="Group_4">
<path id="Vector_10" d="M57.5109 68.1753C56.9548 71.6635 55.4176 73.7373 54.4651 74.7253C54.0584 75.1469 53.3716 75.1688 52.9318 74.779C52.8947 74.7459 52.8925 74.6905 52.9269 74.6548C54.6843 72.7722 57.1177 67.9025 55.8337 66.0331C54.7013 64.3851 53.3063 64.5222 52.9922 64.5781C52.9533 64.5849 52.9242 64.615 52.9193 64.6524C52.4835 67.7783 48.9996 72.5332 48.8753 72.7025C48.873 72.706 48.8708 72.709 48.869 72.7124L48.805 72.831C48.7827 72.8727 48.7303 72.8899 48.686 72.8706L47.6628 72.4258C47.632 72.4125 47.6114 72.3841 47.6091 72.3519L47.5899 72.0893C47.5886 72.0691 47.5944 72.0489 47.6065 72.0322C47.9022 71.6325 51.5619 66.6266 51.2375 64.0718C51.1109 63.0736 50.6237 62.5557 50.0645 62.2988C49.1097 61.8596 47.9617 62.2266 47.4275 63.1045L43.0291 70.3261C43.0054 70.3648 42.9549 70.3803 42.9124 70.3618L41.8435 69.8977C41.7943 69.8762 41.7751 69.8191 41.8019 69.7739L51.846 52.9048C51.846 52.9048 52.9949 50.892 51.846 49.8838C50.766 48.9363 49.0891 49.7695 48.8914 49.8735C48.8784 49.8804 48.8681 49.8894 48.8596 49.901L36.6631 67.1191C36.6609 67.1221 36.6591 67.1251 36.6573 67.1281C36.5459 67.3382 32.6844 74.7197 36.6595 79.1996C40.6329 83.6774 49.1558 86.7053 49.4068 86.7939C49.4108 86.7951 49.4144 86.7964 49.4189 86.7973C49.6649 86.8467 57.06 88.2429 58.9435 77.8365C59.577 74.3372 59.6871 73.0321 59.8222 70.5651C59.9421 68.3734 58.0353 68.1285 57.608 68.1014C57.5606 68.0984 57.519 68.1311 57.5118 68.1762L57.5109 68.1753Z" fill="#38FF2D"/>
<path id="Vector_11" d="M50.5621 49.4358C51.0028 49.4358 51.4609 49.548 51.8439 49.884C52.9928 50.8926 51.8439 52.905 51.8439 52.905L42.1197 69.2365C41.9211 69.57 42.0647 69.995 42.4289 70.1532C42.7452 70.2907 43.1183 70.1764 43.2937 69.8884L47.4254 63.1043C47.8062 62.479 48.4983 62.1129 49.2105 62.1129C49.4978 62.1129 49.7881 62.1726 50.0628 62.2985C50.6221 62.5559 51.1093 63.0733 51.2359 64.0716C51.5737 66.7334 47.586 72.0573 47.586 72.0573C47.6017 72.2709 47.7382 72.4587 47.9408 72.5472L48.552 72.8128C48.6705 72.8643 48.8101 72.8175 48.8701 72.7066C48.8701 72.7066 52.5199 67.7724 52.9257 64.5911C52.9257 64.5911 53.0855 64.549 53.3445 64.549C53.9109 64.549 54.9511 64.7506 55.832 66.0329C57.1165 67.9022 54.6831 72.7715 52.9253 74.6546C52.8908 74.6903 52.8931 74.7461 52.9302 74.7788L53.2286 75.0431C53.489 75.2738 53.8926 75.2717 54.1476 75.0353C55.0374 74.2107 56.9112 72.0547 57.5219 68.0969C57.5219 68.0969 59.9552 68.0969 59.8201 70.564C59.685 73.0311 59.5745 74.3362 58.9414 77.8355C57.4758 85.9342 52.6721 86.8847 50.4973 86.8847C49.8302 86.8847 49.4105 86.7953 49.4105 86.7953C49.4105 86.7953 40.6907 83.7438 36.6579 79.199C32.6246 74.6542 36.6579 67.1231 36.6579 67.1231L48.8701 49.8832C48.8701 49.8832 49.6812 49.435 50.5626 49.435M50.5626 47.7517C49.2781 47.7517 48.1994 48.3121 47.9963 48.4242C47.7668 48.551 47.5704 48.7259 47.4214 48.9365L35.2092 66.1764C35.169 66.2331 35.1323 66.2925 35.0996 66.3535C34.913 66.702 30.5836 74.9494 35.3242 80.2914C39.6076 85.1185 48.437 88.2465 48.8106 88.3772L48.9184 88.415L49.0307 88.4391C49.1322 88.4606 49.6794 88.5684 50.4968 88.5684C51.9218 88.5684 54.0447 88.2478 56.0674 86.721C58.4068 84.9552 59.9544 82.0627 60.6675 78.1242C61.3104 74.5717 61.4308 73.1866 61.5699 70.6529C61.654 69.1201 61.0438 68.1631 60.5172 67.6298C59.6072 66.7084 58.4372 66.4837 57.8467 66.4304C57.7438 65.9345 57.5594 65.4919 57.2946 65.1064C56.734 64.2899 56.0459 63.6836 55.2504 63.3032C54.6518 63.0175 53.9928 62.8662 53.3445 62.8662C53.1065 62.8662 52.9047 62.8864 52.7504 62.91C52.4067 61.9449 51.7419 61.2049 50.8198 60.7807C50.3648 60.5714 49.8812 60.455 49.3806 60.4335L53.3655 53.7404L53.3731 53.7276L53.3807 53.7142C53.4487 53.5948 53.7986 52.957 53.987 52.1328C54.4254 50.2128 53.5731 49.1208 53.0264 48.6408C52.3638 48.0594 51.512 47.7521 50.5626 47.7521V47.7517Z" fill="#11AF00"/>
</g>
<path id="Vector_12" d="M47.9986 45.8661C47.9986 36.9918 40.5087 29.7976 31.2695 29.7976C40.5087 29.7976 47.9986 22.6035 47.9986 13.7291C47.9986 22.6035 55.4885 29.7976 64.7277 29.7976C55.4885 29.7976 47.9986 36.9918 47.9986 45.8661Z" fill="#11AF00"/>
</g>
</g>
</svg>
