<svg width="52" height="57" viewBox="0 0 52 57" fill="none" xmlns="http://www.w3.org/2000/svg">
<path d="M48.2961 28.3521C49.2774 28.3521 49.9814 28.5654 50.4081 28.9921C50.8774 29.4188 51.1121 29.9734 51.1121 30.6561C51.1121 31.7654 50.7707 32.7468 50.0881 33.6001C49.4481 34.4534 48.4241 34.9014 47.0161 34.9441C43.6027 35.0294 40.5734 34.7734 37.9281 34.1761C34.8987 40.5334 31.2294 45.8241 26.9201 50.0481C22.6534 54.2294 18.3654 56.3201 14.0561 56.3201C9.61874 56.3201 6.31207 53.7388 4.13607 48.5761C1.96007 43.4134 0.87207 36.4374 0.87207 27.6481C0.87207 20.1388 1.4054 13.3974 2.47207 7.4241C2.85607 5.20543 3.3894 3.7121 4.07207 2.9441C4.7974 2.13343 6.0134 1.7281 7.72007 1.7281C10.5361 1.7281 11.9441 2.9441 11.9441 5.3761C11.9441 5.6321 11.9014 6.10143 11.8161 6.7841C10.5361 14.4641 9.89607 21.4188 9.89607 27.6481C9.89607 34.1761 10.4294 39.1468 11.4961 42.5601C12.6054 45.9308 14.2481 47.6161 16.4241 47.6161C18.6427 47.6161 21.0534 46.0801 23.6561 43.0081C26.2587 39.9361 28.6481 36.0748 30.8241 31.4241C28.2214 29.8028 26.2587 27.7121 24.9361 25.1521C23.6134 22.5494 22.9521 19.5628 22.9521 16.1921C22.9521 12.8214 23.4641 9.9841 24.4881 7.6801C25.5547 5.33343 26.9841 3.5841 28.7761 2.4321C30.6107 1.2801 32.6374 0.704102 34.8561 0.704102C37.5867 0.704102 39.7414 1.68543 41.3201 3.6481C42.9414 5.61077 43.7521 8.29877 43.7521 11.7121C43.7521 16.6188 42.6854 21.9734 40.5521 27.7761C42.8134 28.1601 45.3947 28.3521 48.2961 28.3521ZM29.4161 15.7441C29.4161 19.9254 30.7601 23.0188 33.4481 25.0241C35.1121 20.2454 35.9441 16.2988 35.9441 13.1841C35.9441 11.3921 35.7094 10.0908 35.2401 9.2801C34.7707 8.42677 34.1307 8.0001 33.3201 8.0001C32.1681 8.0001 31.2294 8.68277 30.5041 10.0481C29.7787 11.3708 29.4161 13.2694 29.4161 15.7441Z" fill="#470063"/>
</svg>
