<svg width="64" height="64" viewBox="0 0 64 64" fill="none" xmlns="http://www.w3.org/2000/svg">
<path fill-rule="evenodd" clip-rule="evenodd" d="M32 10.512C35.1233 7.61818 39.2221 6.0072 43.48 6C48.0827 6 52.4773 7.89333 55.6933 11.2267C58.8935 14.5627 60.6762 19.0092 60.6667 23.632C60.6762 28.2548 58.8935 32.7013 55.6933 36.0373C53.5707 38.2373 51.4507 40.4907 49.32 42.752C44.9893 47.3493 40.6133 51.9973 36.0667 56.3733L36.0587 56.384C34.9297 57.4531 33.4245 58.0334 31.8702 57.999C30.3158 57.9645 28.8378 57.318 27.7573 56.2L8.30398 36.0373C1.67732 29.1653 1.67732 18.0987 8.30398 11.2293C11.3669 8.01975 15.5703 6.14507 20.0049 6.01082C24.4394 5.87658 28.7485 7.49357 32 10.512Z" fill="#FF595E"/>
</svg>
