<svg width="118" height="118" viewBox="0 0 118 118" fill="none" xmlns="http://www.w3.org/2000/svg">
<g clip-path="url(#clip0_1016_1485)">
<path fill-rule="evenodd" clip-rule="evenodd" d="M9.83337 58.9999C9.83337 31.8452 31.8453 9.83325 59 9.83325C86.1548 9.83325 108.167 31.8452 108.167 58.9999C108.167 86.1547 86.1548 108.167 59 108.167C31.8453 108.167 9.83337 86.1547 9.83337 58.9999ZM55.3125 24.5833C55.3125 23.6053 55.701 22.6673 56.3926 21.9758C57.0841 21.2843 58.0221 20.8958 59 20.8958C66.5363 20.8958 73.9034 23.1305 80.1696 27.3175C86.4358 31.5044 91.3197 37.4555 94.2037 44.4181C97.0877 51.3807 97.8423 59.0422 96.372 66.4337C94.9018 73.8252 91.2727 80.6147 85.9438 85.9436C80.6148 91.2726 73.8253 94.9017 66.4338 96.3719C59.0423 97.8422 51.3808 97.0876 44.4182 94.2036C37.4556 91.3196 31.5045 86.4357 27.3176 80.1695C23.1306 73.9033 20.8959 66.5362 20.8959 58.9999C20.8959 58.0219 21.2844 57.084 21.9759 56.3925C22.6675 55.7009 23.6054 55.3124 24.5834 55.3124C25.5614 55.3124 26.4993 55.7009 27.1908 56.3925C27.8824 57.084 28.2709 58.0219 28.2709 58.9999C28.2709 65.0776 30.0731 71.0187 33.4497 76.0721C36.8262 81.1255 41.6255 85.0641 47.2405 87.39C52.8555 89.7158 59.0341 90.3243 64.995 89.1386C70.9559 87.9529 76.4313 85.0263 80.7288 80.7287C85.0264 76.4312 87.9531 70.9558 89.1387 64.9949C90.3244 59.034 89.7159 52.8554 87.3901 47.2404C85.0643 41.6254 81.1256 36.8261 76.0723 33.4495C71.0189 30.073 65.0777 28.2708 59 28.2708C58.0221 28.2708 57.0841 27.8822 56.3926 27.1907C55.701 26.4992 55.3125 25.5612 55.3125 24.5833ZM59 35.6458C58.0221 35.6458 57.0841 36.0343 56.3926 36.7258C55.701 37.4173 55.3125 38.3553 55.3125 39.3333C55.3125 40.3112 55.701 41.2492 56.3926 41.9407C57.0841 42.6322 58.0221 43.0208 59 43.0208C63.238 43.0208 67.3023 44.7043 70.299 47.7009C73.2957 50.6976 74.9792 54.762 74.9792 58.9999C74.9792 63.2379 73.2957 67.3022 70.299 70.2989C67.3023 73.2956 63.238 74.9791 59 74.9791C58.0221 74.9791 57.0841 75.3676 56.3926 76.0591C55.701 76.7507 55.3125 77.6886 55.3125 78.6666C55.3125 79.6446 55.701 80.5825 56.3926 81.274C57.0841 81.9656 58.0221 82.3541 59 82.3541C65.194 82.3541 71.1342 79.8936 75.5139 75.5138C79.8937 71.134 82.3542 65.1938 82.3542 58.9999C82.3542 52.806 79.8937 46.8658 75.5139 42.486C71.1342 38.1063 65.194 35.6458 59 35.6458Z" fill="#8D8D8D"/>
</g>
<defs>
<clipPath id="clip0_1016_1485">
<rect width="118" height="118" fill="white"/>
</clipPath>
</defs>
</svg>
