<svg width="46" height="46" viewBox="0 0 46 46" fill="none" xmlns="http://www.w3.org/2000/svg">
<rect width="46" height="46" rx="23" fill="#007FFF"/>
<rect width="46" height="46" rx="23" fill="#007FFF"/>
<path d="M35.6323 18.8817C35.9077 18.5183 36.0365 18.0565 35.9911 17.595C35.9457 17.1335 35.7297 16.7089 35.3893 16.4119C35.0489 16.1149 34.6111 15.969 34.1694 16.0055C33.7277 16.042 33.3171 16.2578 33.0253 16.607L28.9587 21.7157C28.1214 22.7701 27.6032 23.4123 27.18 23.8127C27.0693 23.9251 26.9453 24.0223 26.8111 24.1018L26.7862 24.1136L26.7681 24.1042L26.7613 24.1018C26.6263 24.0225 26.5016 23.9253 26.3902 23.8127C25.967 23.4099 25.4511 22.7701 24.6115 21.7157L23.9507 20.8864C23.2084 19.9504 22.5363 19.1092 21.9117 18.5168C21.2305 17.8723 20.3729 17.2989 19.2414 17.2989C18.1099 17.2989 17.2544 17.8723 16.571 18.5168C15.9464 19.1092 15.2766 19.9504 14.5343 20.8864L10.393 26.0851C10.2504 26.2645 10.1429 26.4715 10.0766 26.6944C10.0104 26.9173 9.98676 27.1517 10.007 27.3841C10.048 27.8536 10.2654 28.2868 10.6114 28.5885C10.9574 28.8901 11.4037 29.0355 11.8521 28.9926C12.3004 28.9497 12.7142 28.7221 13.0023 28.3598L17.0689 23.2511C17.9062 22.1967 18.4244 21.5546 18.8476 21.1541C18.9583 21.0417 19.0823 20.9446 19.2165 20.865L19.2323 20.8579L19.2414 20.8556C19.2474 20.8556 19.2557 20.8587 19.2663 20.865C19.4013 20.9444 19.526 21.0415 19.6374 21.1541C20.0606 21.5569 20.5765 22.1967 21.4161 23.2511L22.0769 24.0805C22.8214 25.0164 23.4913 25.8576 24.1159 26.45C24.797 27.0945 25.6547 27.6679 26.7862 27.6679C27.9177 27.6679 28.7731 27.0945 29.4566 26.45C30.0812 25.8576 30.751 25.0164 31.4933 24.0805L35.6323 18.8817Z" fill="#014085"/>
</svg>
