<svg width="46" height="46" viewBox="0 0 46 46" fill="none" xmlns="http://www.w3.org/2000/svg">
<rect width="46" height="46" rx="23" fill="#007FFF"/>
<rect width="46" height="46" rx="23" fill="#007FFF"/>
<path d="M35.4908 25.0306L35.7898 21.8638C36.0238 19.3782 36.1408 18.1341 35.7144 17.6206C35.6068 17.4871 35.4739 17.3763 35.3233 17.2944C35.1727 17.2125 35.0074 17.1612 34.8369 17.1435C34.2182 17.0889 33.4421 17.9729 31.8886 19.7409C31.0852 20.6561 30.6835 21.1124 30.2364 21.1839C29.9866 21.2231 29.7308 21.1821 29.5058 21.0669C29.0911 20.8589 28.8168 20.2934 28.2643 19.1637L25.3563 13.2045C24.3137 11.0686 23.7924 10 22.9994 10C22.2065 10 21.6852 11.0686 20.6426 13.2045L17.7346 19.1637C17.1834 20.2947 16.9078 20.8589 16.4931 21.0669C16.2678 21.1813 16.0123 21.2222 15.7625 21.1839C15.3153 21.1124 14.9136 20.6561 14.1103 19.7409C12.5568 17.9729 11.7807 17.0889 11.1619 17.1435C10.9915 17.1612 10.8262 17.2125 10.6756 17.2944C10.525 17.3763 10.392 17.4871 10.2845 17.6206C9.85938 18.1341 9.97637 19.3782 10.2104 21.8638L10.5081 25.0306C10.9994 30.2462 11.2438 32.8553 12.783 34.427C14.3183 36 16.6218 36 21.2315 36H24.7661C29.3745 36 31.678 36 33.2159 34.427C34.7537 32.854 34.9994 30.2462 35.4908 25.0306Z" fill="#014085"/>
</svg>
