<svg width="64" height="64" viewBox="0 0 64 64" fill="none" xmlns="http://www.w3.org/2000/svg">
<rect width="64" height="64" rx="32" fill="#8D8D8D"/>
<path fill-rule="evenodd" clip-rule="evenodd" d="M36.0286 12.3103C35.2732 12 34.3136 12 32.3965 12C30.4794 12 29.5218 12 28.7644 12.3103C28.266 12.514 27.8128 12.8142 27.4308 13.1937C27.0489 13.5731 26.7458 14.0244 26.5389 14.5215C26.347 14.9767 26.2735 15.5096 26.2429 16.2834C26.2283 16.8439 26.0715 17.3914 25.7873 17.8746C25.503 18.3578 25.1005 18.7608 24.6177 19.0458C24.1252 19.3196 23.5715 19.4646 23.0079 19.4675C22.4444 19.4703 21.8892 19.3309 21.3939 19.0621C20.7039 18.6987 20.2036 18.4986 19.7096 18.4333C18.6287 18.2923 17.5357 18.5827 16.6675 19.2418C16.0182 19.7359 15.5384 20.5607 14.5809 22.2083C13.6213 23.856 13.1436 24.6787 13.0354 25.4852C12.8924 26.5591 13.1864 27.6453 13.852 28.5048C14.1542 28.8968 14.5809 29.2255 15.2404 29.638C16.2142 30.2443 16.839 31.2774 16.839 32.4167C16.839 33.5559 16.2142 34.589 15.2424 35.1933C14.5809 35.6078 14.1542 35.9365 13.85 36.3285C13.5224 36.7536 13.2819 37.2391 13.1421 37.7572C13.0023 38.2754 12.966 38.816 13.0354 39.3481C13.1436 40.1525 13.6213 40.9774 14.5809 42.625C15.5405 44.2726 16.0182 45.0954 16.6675 45.5915C17.5331 46.251 18.6275 46.5409 19.7096 46.4C20.2036 46.3347 20.7039 46.1346 21.3939 45.7712C21.8895 45.5021 22.445 45.3624 23.0089 45.3653C23.5729 45.3681 24.127 45.5134 24.6198 45.7875C25.612 46.3592 26.2 47.4107 26.2429 48.5499C26.2735 49.3257 26.347 49.8566 26.5389 50.3119C26.9554 51.3123 27.7558 52.1085 28.7644 52.523C29.5198 52.8333 30.4794 52.8333 32.3965 52.8333C34.3136 52.8333 35.2732 52.8333 36.0286 52.523C36.527 52.3193 36.9802 52.0192 37.3621 51.6397C37.7441 51.2602 38.0472 50.8089 38.254 50.3119C38.4459 49.8566 38.5194 49.3257 38.5501 48.5499C38.5909 47.4107 39.1809 46.3572 40.1752 45.7875C40.6678 45.5137 41.2215 45.3687 41.785 45.3658C42.3486 45.363 42.9037 45.5024 43.399 45.7712C44.0891 46.1346 44.5893 46.3347 45.0834 46.4C46.1655 46.543 47.2598 46.251 48.1255 45.5915C48.7747 45.0975 49.2545 44.2726 50.2121 42.625C51.1716 40.9774 51.6494 40.1546 51.7576 39.3481C51.8266 38.8158 51.79 38.2751 51.6499 37.757C51.5097 37.2389 51.2688 36.7534 50.9409 36.3285C50.6388 35.9365 50.2121 35.6078 49.5526 35.1954C48.5787 34.589 47.954 33.5559 47.954 32.4167C47.954 31.2774 48.5787 30.2443 49.5506 29.64C50.2121 29.2255 50.6388 28.8968 50.943 28.5048C51.2705 28.0797 51.5111 27.5942 51.6508 27.0761C51.7906 26.558 51.8269 26.0174 51.7576 25.4852C51.6494 24.6808 51.1716 23.856 50.2121 22.2083C49.2525 20.5607 48.7747 19.7379 48.1255 19.2418C47.2572 18.5827 46.1643 18.2923 45.0834 18.4333C44.5893 18.4986 44.0891 18.6987 43.399 19.0621C42.9035 19.3313 42.3479 19.4709 41.784 19.468C41.2201 19.4652 40.666 19.3199 40.1732 19.0458C39.6908 18.7606 39.2887 18.3574 39.0048 17.8743C38.7209 17.3911 38.5644 16.8437 38.5501 16.2834C38.5194 15.5076 38.4459 14.9767 38.254 14.5215C38.0472 14.0244 37.7441 13.5731 37.3621 13.1937C36.9802 12.8142 36.527 12.514 36.0286 12.3103ZM32.3965 38.5417C35.8061 38.5417 38.5684 35.7997 38.5684 32.4167C38.5684 29.0336 35.804 26.2917 32.3965 26.2917C28.9889 26.2917 26.2245 29.0336 26.2245 32.4167C26.2245 35.7997 28.9889 38.5417 32.3965 38.5417Z" fill="#02020B"/>
</svg>
