<svg width="167" height="168" viewBox="0 0 167 168" fill="none" xmlns="http://www.w3.org/2000/svg">
<rect width="167" height="168" rx="50" fill="#007FFF" fill-opacity="0.3"/>
<path d="M74.0019 36.0625H91.9969C94.6273 36.0625 96.8152 36.0625 98.6098 36.21C100.478 36.3575 102.228 36.6918 103.885 37.5375C106.43 38.8339 108.499 40.9027 109.795 43.4473C110.641 45.1042 110.975 46.8546 111.123 48.7229C111.27 50.5175 111.27 52.7054 111.27 55.3358V112.664C111.27 115.295 111.27 117.482 111.123 119.277C110.975 121.145 110.641 122.896 109.795 124.553C108.5 127.097 106.433 129.165 103.89 130.463C102.228 131.308 100.478 131.642 98.6098 131.79C96.8152 131.937 94.6273 131.938 92.0018 131.938H74.0019C71.3714 131.938 69.1835 131.937 67.3889 131.79C65.5206 131.642 63.7703 131.308 62.1133 130.463C59.5702 129.169 57.5016 127.103 56.2035 124.562C55.3578 122.901 55.0235 121.15 54.876 119.282C54.7285 117.487 54.7285 115.299 54.7285 112.674V55.3358C54.7285 52.7054 54.7285 50.5175 54.876 48.7229C55.0235 46.8546 55.3578 45.1042 56.2035 43.4473C57.4999 40.9027 59.5687 38.8339 62.1133 37.5375C63.7703 36.6918 65.5206 36.3575 67.3889 36.21C69.1835 36.0625 71.3714 36.0625 74.0019 36.0625ZM91.8494 43.4375H71.9368C72.3302 44.588 72.576 45.2272 72.9841 45.7139C73.4049 46.2197 73.9458 46.6119 74.5574 46.8546C75.2556 47.125 76.0718 47.125 77.7041 47.125H88.2946C89.9269 47.125 90.7431 47.125 91.4413 46.8546C92.0529 46.6119 92.5938 46.2197 93.0146 45.7139C93.4227 45.2222 93.6734 44.5831 94.0619 43.4424L91.8494 43.4375ZM74.3952 115.958C73.7432 115.958 73.1179 116.217 72.6569 116.678C72.1959 117.139 71.9368 117.765 71.9368 118.417C71.9368 119.069 72.1959 119.694 72.6569 120.155C73.1179 120.616 73.7432 120.875 74.3952 120.875H91.6035C92.2555 120.875 92.8808 120.616 93.3418 120.155C93.8029 119.694 94.0619 119.069 94.0619 118.417C94.0619 117.765 93.8029 117.139 93.3418 116.678C92.8808 116.217 92.2555 115.958 91.6035 115.958H74.3952Z" fill="#007FFF"/>
</svg>
