<svg width="46" height="46" viewBox="0 0 46 46" fill="none" xmlns="http://www.w3.org/2000/svg">
<rect width="46" height="46" rx="23" fill="#007FFF"/>
<rect width="46" height="46" rx="23" fill="#007FFF"/>
<path d="M13.245 36C12.4786 36 11.8227 35.7174 11.2774 35.1521C10.7321 34.5868 10.459 33.9065 10.458 33.1111V21.6278C9.92387 21.1222 9.51186 20.4722 9.22201 19.6778C8.93216 18.8833 8.92613 18.0167 9.20389 17.0778L10.6671 12.1667C10.8529 11.5407 11.184 11.0231 11.6606 10.6139C12.1372 10.2046 12.6886 10 13.3147 10H32.6843C33.3113 10 33.8571 10.1989 34.3216 10.5966C34.7861 10.9943 35.1229 11.5176 35.3319 12.1667L36.7951 17.0778C37.0738 18.0167 37.0682 18.8713 36.7784 19.6417C36.4885 20.412 36.076 21.0741 35.5409 21.6278V33.1111C35.5409 33.9056 35.2683 34.5859 34.7229 35.1521C34.1776 35.7183 33.5213 36.001 32.7539 36H13.245ZM26.0652 20.1111C26.6922 20.1111 27.1684 19.8887 27.4935 19.4438C27.8187 18.9989 27.9464 18.4991 27.8767 17.9444L27.1103 12.8889H24.393V18.2333C24.393 18.7389 24.5556 19.1785 24.8807 19.5521C25.2059 19.9257 25.6007 20.1121 26.0652 20.1111ZM19.7944 20.1111C20.3286 20.1111 20.7643 19.9243 21.1015 19.5507C21.4388 19.177 21.6069 18.7379 21.606 18.2333V12.8889H18.8887L18.1223 17.9444C18.0294 18.5222 18.1511 19.0278 18.4874 19.4611C18.8236 19.8944 19.2593 20.1111 19.7944 20.1111ZM13.5934 20.1111C14.0114 20.1111 14.377 19.9546 14.6901 19.6417C15.0032 19.3287 15.195 18.9315 15.2656 18.45L16.032 12.8889H13.3147L11.9212 17.7278C11.7819 18.2093 11.8571 18.7269 12.147 19.2806C12.4368 19.8343 12.9189 20.1111 13.5934 20.1111ZM32.4056 20.1111C33.0791 20.1111 33.5668 19.8343 33.8687 19.2806C34.1707 18.7269 34.2403 18.2093 34.0778 17.7278L32.6146 12.8889H29.967L30.7334 18.45C30.8031 18.9315 30.9949 19.3287 31.3089 19.6417C31.6229 19.9546 31.9884 20.1111 32.4056 20.1111Z" fill="#014085"/>
</svg>
