<svg width="154" height="215" viewBox="0 0 154 215" fill="none" xmlns="http://www.w3.org/2000/svg">
<path d="M22.1385 144.811C22.1435 144.724 22.1498 144.639 22.1572 144.557C22.1516 144.641 22.1453 144.725 22.1385 144.811C21.821 150.281 26.2901 164.518 42.35 164.362C26.2901 164.518 22.0976 178.839 22.521 184.302C22.5296 184.387 22.5375 184.472 22.5447 184.555C22.5357 184.473 22.5278 184.388 22.521 184.302C21.853 177.604 17.2046 165.003 3.67396 164.737C3.2426 164.754 2.80196 164.758 2.35188 164.75C2.80171 164.733 3.24236 164.729 3.67396 164.737C17.1969 164.209 21.6003 151.521 22.1385 144.811Z" fill="#FFB120" fill-opacity="0.6"/>
<path d="M91.7478 1.12741C91.7529 1.04051 91.7591 0.955822 91.7666 0.873439C91.7609 0.957098 91.7547 1.04177 91.7478 1.12741C91.4303 6.59744 95.8995 20.8343 111.959 20.6787C95.8995 20.8343 91.707 35.1552 92.1304 40.618C92.1389 40.7035 92.1468 40.788 92.1541 40.8716C92.145 40.7893 92.1371 40.7048 92.1304 40.618C91.4624 33.9199 86.8139 21.3192 73.2833 21.0534C72.852 21.0703 72.4113 21.0748 71.9613 21.0663C72.4111 21.049 72.8517 21.045 73.2833 21.0534C86.8062 20.5256 91.2097 7.83715 91.7478 1.12741Z" fill="#FFB120" fill-opacity="0.6"/>
<path d="M133.424 173.733C133.429 173.646 133.435 173.561 133.442 173.479C133.437 173.563 133.43 173.647 133.424 173.733C133.106 179.203 137.575 193.44 153.635 193.284C137.575 193.44 133.383 207.761 133.806 213.223C133.815 213.309 133.823 213.393 133.83 213.477C133.821 213.395 133.813 213.31 133.806 213.223C133.138 206.525 128.49 193.925 114.959 193.659C114.528 193.676 114.087 193.68 113.637 193.672C114.087 193.655 114.528 193.65 114.959 193.659C128.482 193.131 132.885 180.443 133.424 173.733Z" fill="#FFB120" fill-opacity="0.6"/>
</svg>
