<svg width="213" height="151" viewBox="0 0 213 151" fill="none" xmlns="http://www.w3.org/2000/svg">
<path d="M143.254 131.021C143.167 131.015 143.082 131.008 143 131C143.084 131.006 143.168 131.013 143.254 131.021C148.72 131.392 163 127.061 163 111C163 127.061 177.28 131.392 182.746 131.021C182.832 131.013 182.916 131.006 183 131C182.918 131.008 182.833 131.015 182.746 131.021C176.042 131.624 163.397 136.15 163 149.678C163.013 150.109 163.013 150.55 163 151C162.987 150.55 162.987 150.109 163 149.678C162.603 136.15 149.958 131.624 143.254 131.021Z" fill="#FFB120" fill-opacity="0.6"/>
<path d="M0.25378 60.0212C0.166932 60.0153 0.0823073 60.0082 0 60C0.0836002 60.0064 0.168206 60.0135 0.25378 60.0212C5.72047 60.3917 20 56.0606 20 40C20 56.0606 34.2795 60.3917 39.7462 60.0212C39.8318 60.0135 39.9164 60.0064 40 60C39.9177 60.0082 39.8331 60.0153 39.7462 60.0212C33.042 60.6243 20.3969 65.1505 20 78.6779C20.0127 79.1094 20.0129 79.55 20 80C19.9871 79.55 19.9873 79.1094 20 78.6779C19.6031 65.1505 6.95799 60.6243 0.25378 60.0212Z" fill="#FFB120" fill-opacity="0.6"/>
<path d="M173.254 20.0212C173.167 20.0153 173.082 20.0082 173 20C173.084 20.0064 173.168 20.0135 173.254 20.0212C178.72 20.3917 193 16.0606 193 0C193 16.0606 207.28 20.3917 212.746 20.0212C212.832 20.0135 212.916 20.0064 213 20C212.918 20.0082 212.833 20.0153 212.746 20.0212C206.042 20.6243 193.397 25.1505 193 38.6779C193.013 39.1094 193.013 39.55 193 40C192.987 39.55 192.987 39.1094 193 38.6779C192.603 25.1505 179.958 20.6243 173.254 20.0212Z" fill="#FFB120" fill-opacity="0.6"/>
</svg>
