<svg width="213" height="164" viewBox="0 0 213 164" fill="none" xmlns="http://www.w3.org/2000/svg">
<path d="M40.2538 144.021C40.1669 144.015 40.0823 144.008 40 144C40.0836 144.006 40.1682 144.013 40.2538 144.021C45.7205 144.392 60 140.061 60 124C60 140.061 74.2795 144.392 79.7462 144.021C79.8318 144.013 79.9164 144.006 80 144C79.9177 144.008 79.8331 144.015 79.7462 144.021C73.042 144.624 60.3969 149.15 60 162.678C60.0127 163.109 60.0129 163.55 60 164C59.9871 163.55 59.9873 163.109 60 162.678C59.6031 149.15 46.958 144.624 40.2538 144.021Z" fill="#FFB120" fill-opacity="0.6"/>
<path d="M0.25378 60.0212C0.166932 60.0153 0.0823073 60.0082 0 60C0.0836002 60.0064 0.168206 60.0135 0.25378 60.0212C5.72047 60.3917 20 56.0606 20 40C20 56.0606 34.2795 60.3917 39.7462 60.0212C39.8318 60.0135 39.9164 60.0064 40 60C39.9177 60.0082 39.8331 60.0153 39.7462 60.0212C33.042 60.6243 20.3969 65.1505 20 78.6779C20.0127 79.1094 20.0129 79.55 20 80C19.9871 79.55 19.9873 79.1094 20 78.6779C19.6031 65.1505 6.95799 60.6243 0.25378 60.0212Z" fill="#FFB120" fill-opacity="0.6"/>
<path d="M173.254 20.0212C173.167 20.0153 173.082 20.0082 173 20C173.084 20.0064 173.168 20.0135 173.254 20.0212C178.72 20.3917 193 16.0606 193 0C193 16.0606 207.28 20.3917 212.746 20.0212C212.832 20.0135 212.916 20.0064 213 20C212.918 20.0082 212.833 20.0153 212.746 20.0212C206.042 20.6243 193.397 25.1505 193 38.6779C193.013 39.1094 193.013 39.55 193 40C192.987 39.55 192.987 39.1094 193 38.6779C192.603 25.1505 179.958 20.6243 173.254 20.0212Z" fill="#FFB120" fill-opacity="0.6"/>
</svg>
