<svg width="69" height="137" viewBox="0 0 69 137" fill="none" xmlns="http://www.w3.org/2000/svg">
<path fill-rule="evenodd" clip-rule="evenodd" d="M46.3115 7.52619C46.6296 4.20604 44.5075 1.13774 41.2786 0.249256C38.0497 -0.639227 34.6461 0.908593 33.2065 3.92015L1.56055 70.1215C0.542686 72.2508 0.692403 74.7509 1.95717 76.7448C3.22193 78.7386 5.42512 79.9476 7.79369 79.9476H25.4093L12.5957 128.376C11.7212 131.681 13.4192 135.124 16.5807 136.456C19.7423 137.788 23.4067 136.604 25.1808 133.678L67.8051 63.3781C69.0921 61.2555 69.131 58.6074 67.9069 56.4482C66.6829 54.2891 64.3856 52.9537 61.8954 52.9537H41.9592L46.3115 7.52619Z" fill="#FFB515"/>
</svg>
