<svg width="118" height="118" viewBox="0 0 118 118" fill="none" xmlns="http://www.w3.org/2000/svg">
<path d="M59 31.9583C59 30.7783 59 30.1932 59.3933 29.8293C59.7965 29.4655 60.3472 29.5098 61.4583 29.6032C66.4112 30.0168 71.1793 31.6752 75.32 34.4243C79.4606 37.1733 82.8395 40.924 85.1431 45.3281C87.4467 49.7321 88.6002 54.6468 88.4966 59.6159C88.3929 64.585 87.0355 69.4473 84.5503 73.7515C82.0652 78.0557 78.5328 81.6622 74.2811 84.2363C70.0295 86.8103 65.1964 88.2684 60.2306 88.4753C55.2647 88.6821 50.3271 87.6309 45.8762 85.4193C41.4252 83.2077 37.6052 79.9074 34.7707 75.8248C34.1315 74.9103 33.8168 74.453 33.9348 73.9269C34.0528 73.4008 34.5642 73.1108 35.5819 72.5208L57.7708 59.7079C58.3707 59.3638 58.6706 59.1917 58.8328 58.9065C59 58.6213 59 58.2723 59 57.579V31.9583Z" fill="#8D8D8D"/>
<path fill-rule="evenodd" clip-rule="evenodd" d="M59 19.2883C37.0679 19.2883 19.2885 37.0678 19.2885 58.9999C19.2885 80.932 37.0679 98.7114 59 98.7114C80.9321 98.7114 98.7115 80.932 98.7115 58.9999C98.7115 37.0678 80.9321 19.2883 59 19.2883ZM10.2115 58.9999C10.2115 32.0548 32.0549 10.2114 59 10.2114C85.9451 10.2114 107.788 32.0548 107.788 58.9999C107.788 85.945 85.9451 107.788 59 107.788C32.0549 107.788 10.2115 85.945 10.2115 58.9999Z" fill="#8D8D8D"/>
</svg>
