<svg width="56" height="44" viewBox="0 0 56 44" fill="none" xmlns="http://www.w3.org/2000/svg">
<g id="Group 133">
<rect id="Rectangle 116" width="56" height="44" rx="12" fill="#FFFBDB"/>
<path id="Vector 27" d="M9.24109 22.0201C9.15858 22.0145 9.07819 22.0078 9 22C9.07942 22.0061 9.1598 22.0128 9.24109 22.0201C14.4345 22.3721 28 18.2576 28 3C28 18.2576 41.5655 22.3721 46.7589 22.0201C46.8402 22.0128 46.9206 22.0061 47 22C46.9218 22.0078 46.8414 22.0145 46.7589 22.0201C40.3899 22.5931 28.377 26.893 28 39.744C28.012 40.1539 28.0122 40.5725 28 41C27.9878 40.5725 27.988 40.1539 28 39.744C27.623 26.893 15.6101 22.5931 9.24109 22.0201Z" fill="#FFB120"/>
</g>
</svg>
