<svg width="159" height="159" viewBox="0 0 159 159" fill="none" xmlns="http://www.w3.org/2000/svg">
<g clip-path="url(#clip0_1610_7245)">
<ellipse cx="79.2247" cy="79.2188" rx="79.057" ry="79.057" transform="rotate(-21.2886 79.2247 79.2188)" fill="#D6EBFF"/>
<path d="M131.525 26.9196C160.389 55.7841 160.389 102.658 131.525 131.523C116.969 146.078 93.5323 146.078 79.2234 131.523C64.9145 116.967 64.6678 93.7767 79.2234 79.2211C93.779 64.6655 93.779 41.2285 79.2234 26.9196C64.6678 12.6107 41.2308 12.364 26.9219 26.9196C55.7864 -1.94489 102.66 -1.94489 131.525 26.9196Z" fill="#D6EBFF"/>
<path d="M26.9218 131.523C-1.94269 102.658 -1.94269 55.7841 26.9218 26.9196C41.4774 12.364 64.9144 12.364 79.2233 26.9196C93.7789 41.4752 93.7789 64.9122 79.2233 79.2211C64.6677 93.53 64.6677 117.214 79.2233 131.523C93.7789 145.832 117.216 146.078 131.525 131.523C102.66 160.387 55.7863 160.387 26.9218 131.523Z" fill="#7C20BE"/>
<path d="M105.37 119.187C113 119.187 119.186 113.002 119.186 105.372C119.186 97.7418 113 91.5564 105.37 91.5564C97.7401 91.5564 91.5547 97.7418 91.5547 105.372C91.5547 113.002 97.7401 119.187 105.37 119.187Z" fill="#7C20BE"/>
<path d="M53.0733 66.8859C60.7034 66.8859 66.8888 60.7005 66.8888 53.0704C66.8888 45.4403 60.7034 39.2549 53.0733 39.2549C45.4432 39.2549 39.2578 45.4403 39.2578 53.0704C39.2578 60.7005 45.4432 66.8859 53.0733 66.8859Z" fill="#D6EBFF"/>
</g>
<defs>
<clipPath id="clip0_1610_7245">
<rect width="157.891" height="157.891" fill="white" transform="translate(0.28125 0.275391)"/>
</clipPath>
</defs>
</svg>
