<svg width="414" height="438" viewBox="0 0 414 438" fill="none" xmlns="http://www.w3.org/2000/svg">
<path d="M74.4481 400.914C122.848 399.323 137.671 366.244 139.033 349.904L142.771 360.279L146.422 368.233L149.29 374.544L151.463 379.818C126.255 422.355 85.2269 429.618 46.8062 422.355C16.0697 416.545 1.83706 372.93 0.562099 352.843C-2.30639 331.921 5.69065 303.044 27.161 305.205C44.3374 306.935 40.6923 320.566 36.7228 327.166C29.1314 352.411 26.0484 402.505 74.4481 400.914Z" fill="#3D3D3D"/>
<path fill-rule="evenodd" clip-rule="evenodd" d="M4.77028 320.034C9.13681 310.322 16.671 303.368 27.7278 304.488C32.0828 304.929 35.1896 306.135 37.313 307.859C39.4462 309.591 40.539 311.807 40.9285 314.163C41.6945 318.797 39.7474 323.979 37.7525 327.339C33.9983 339.932 31.3882 358.633 35.6511 373.959C37.783 381.623 41.624 388.409 47.8678 393.185C54.1082 397.959 62.8113 400.772 74.759 400.377C98.7197 399.585 114.312 390.962 124.084 380.556C133.872 370.133 137.853 357.886 138.521 349.825L139.696 349.671L143.411 360.041L147.039 367.99L149.901 374.323L152.185 379.895L152.032 380.155C139.403 401.585 122.792 414.155 104.508 420.44C86.2371 426.721 66.3358 426.713 47.1262 423.061C31.5477 420.1 20.226 407.524 12.6603 393.292C5.09355 379.058 1.20734 363.031 0.562565 352.881C-0.874224 342.311 0.410468 329.731 4.77028 320.034ZM5.87605 320.531C1.62183 329.993 0.350492 342.349 1.76686 352.739L1.76983 352.76L1.77121 352.782C2.40089 362.759 6.23966 378.631 13.7308 392.722C21.2283 406.826 32.308 419.01 47.3525 421.87C66.4215 425.495 86.098 425.486 104.114 419.293C122.044 413.13 138.368 400.828 150.834 379.798L148.788 374.803L145.935 368.491L145.934 368.489L142.287 360.499L139.424 352.505C138.177 360.69 133.972 371.798 124.968 381.386C114.962 392.042 99.0591 400.787 74.799 401.589C62.6364 401.991 53.6407 399.128 47.1313 394.149C40.6253 389.172 36.6654 382.129 34.483 374.284C30.1255 358.618 32.8148 339.62 36.6124 326.92L36.6341 326.847L36.673 326.782C38.6194 323.528 40.435 318.612 39.7323 314.361C39.3849 312.26 38.4241 310.323 36.5488 308.801C34.6638 307.27 31.8072 306.12 27.6058 305.694C17.2716 304.648 10.1265 311.078 5.87605 320.531Z" fill="#202020"/>
<path d="M196.381 435.434C150.136 396.487 133.655 341.366 130.554 314.655C130.444 313.709 131.672 313.387 132.089 314.244L135.844 321.978C135.913 322.119 136.018 322.239 136.149 322.324L147.737 329.906L160.999 336.493L175.908 341.433L192.983 345.766L208.326 348.539L226.962 350.533L242.91 351.833L257.126 352.786H267.441H278.449L289.197 351.919H296.651L306.273 350.793L322.222 349.059L333.75 347.759L346.665 344.899L363.827 340.22L383.746 332.891C383.815 332.866 383.881 332.832 383.942 332.79L391.825 327.306L400.54 320.216C400.623 320.148 400.693 320.065 400.746 319.972L403.681 314.804C404.054 314.149 404.987 314.253 405.112 314.996C409.118 338.954 360.516 404.485 334.782 435.336C334.618 435.533 334.382 435.638 334.125 435.638H196.939C196.736 435.638 196.537 435.565 196.381 435.434Z" fill="#2ABCFF"/>
<path fill-rule="evenodd" clip-rule="evenodd" d="M133.789 322.602C138.964 350.909 156.192 398.773 197.342 433.636H333.596C346.417 418.22 364.742 394.403 379.415 371.455C386.825 359.866 393.27 348.551 397.606 338.682C400.886 331.217 402.854 324.808 403.266 319.818L402.637 320.927C402.456 321.245 402.218 321.527 401.934 321.758L393.153 328.908L385.201 334.443C384.995 334.586 384.771 334.703 384.535 334.79L364.52 342.159L347.212 346.882L334.133 349.78L322.484 351.095L306.539 352.829L306.521 352.831L296.791 353.971H289.294L278.54 354.839H257.05L242.742 353.879L226.743 352.574L207.994 350.567L192.498 347.764L175.269 343.388L160.141 338.372L146.629 331.656L134.931 323.997C134.485 323.704 134.126 323.297 133.893 322.816L133.789 322.602ZM130.509 311.678C131.762 311.346 133.213 311.877 133.881 313.253L137.492 320.695L148.702 328.036L161.73 334.511L176.438 339.388L193.381 343.69L208.587 346.441L227.133 348.426L243.051 349.725L257.19 350.674H278.372L289.127 349.806H296.548L306.063 348.691L322.022 346.955L322.03 346.954L333.448 345.666L346.214 342.837L363.251 338.187L382.951 330.934L390.647 325.578L399.129 318.671L401.954 313.695C402.559 312.629 403.705 312.087 404.83 312.228C406.001 312.374 407.028 313.254 407.248 314.572C408.36 321.228 405.824 330.33 401.417 340.359C396.958 350.506 390.387 362.024 382.922 373.7C367.986 397.059 349.334 421.259 336.422 436.75C335.842 437.446 335.008 437.802 334.165 437.802H196.898C196.2 437.802 195.527 437.553 194.998 437.107C148.202 397.667 131.549 341.912 128.405 314.814C128.223 313.245 129.231 312.018 130.509 311.678ZM399.017 318.87C399.018 318.868 399.019 318.866 399.02 318.865L399.017 318.87ZM383.095 330.881C383.096 330.881 383.097 330.881 383.098 330.88L383.517 332.021L383.517 332.021L383.098 330.88L383.095 330.881ZM383.517 332.021L383.517 332.021L383.517 332.021ZM383.517 332.021L383.517 332.021L383.815 332.831L383.517 332.021ZM383.517 332.021L384.012 332.733L383.517 332.021L383.517 332.021Z" fill="white" fill-opacity="0.5"/>
<path d="M150.021 342.596C154.246 376.743 186.126 413.563 201.537 427.704H326.303C347.775 411.741 374.962 364.314 385.871 342.596C304.969 383.198 194.928 359.513 150.021 342.596Z" fill="#0088A6"/>
<path d="M362.78 90.0844C369.086 124.556 334.495 159.763 285.52 168.722C236.544 177.681 191.73 156.998 185.425 122.526C179.119 88.0547 213.71 52.8473 262.685 43.8887C311.661 34.9301 356.475 55.6126 362.78 90.0844Z" fill="#3D3D3D"/>
<path fill-rule="evenodd" clip-rule="evenodd" d="M343.644 137.756C357.351 123.805 364.099 106.927 361.075 90.3963C358.051 73.8653 345.765 60.4695 328.008 52.274C310.255 44.081 287.176 41.1711 262.997 45.5939C238.818 50.0167 218.264 60.9083 204.561 74.855C190.854 88.806 184.106 105.684 187.13 122.215C190.154 138.746 202.44 152.141 220.197 160.337C237.95 168.53 261.029 171.44 285.208 167.017C309.387 162.594 329.942 151.703 343.644 137.756ZM285.52 168.722C334.495 159.763 369.086 124.556 362.78 90.0844C356.475 55.6126 311.661 34.9301 262.685 43.8887C213.71 52.8473 179.119 88.0547 185.425 122.526C191.73 156.998 236.544 177.681 285.52 168.722Z" fill="#202020"/>
<path fill-rule="evenodd" clip-rule="evenodd" d="M184.26 26.6864L184.755 26.8778C190.734 29.1905 199.843 33.3033 207.912 38.6944C215.948 44.0632 223.099 50.7961 224.926 58.3942L225.032 58.835L221.044 61.1049L219.338 62.5488L217.923 63.6064L214.291 66.0177L209.566 69.869L202.581 76.6543L199.152 80.6678L194.154 87.9645L190.726 93.8538L188.272 100.976L187.63 99.6513C184.223 92.6173 179.962 80.5799 178.223 67.2739C176.485 53.9744 177.256 39.3306 184.004 27.1493L184.26 26.6864ZM184.813 28.1986C178.475 39.9717 177.728 54.1177 179.427 67.1178C181.041 79.4663 184.853 90.7133 188.09 97.7794L189.616 93.3495L193.126 87.3196L198.186 79.9332L201.693 75.8279L208.756 68.9665L213.569 65.0444L217.221 62.6189L218.58 61.6036L220.343 60.1108L223.633 58.2382C221.754 51.2895 215.075 44.9358 207.236 39.6986C199.486 34.5206 190.741 30.5242 184.813 28.1986Z" fill="black"/>
<path d="M184.63 27.4077C171.351 51.513 181.518 85.5352 188.261 99.5332L190.249 93.732L193.707 87.7576L198.721 80.3979L202.179 76.3284L209.181 69.4881L213.936 65.5918L217.567 63.1674L218.95 62.1284L220.679 60.6564L224.31 58.5784C220.783 43.8243 196.502 32.0256 184.63 27.4077Z" fill="#3D3D3D"/>
<path fill-rule="evenodd" clip-rule="evenodd" d="M184.26 26.6864L184.755 26.8778C190.734 29.1905 199.843 33.3033 207.912 38.6944C215.948 44.0632 223.099 50.7961 224.926 58.3942L225.032 58.835L221.044 61.1049L219.338 62.5488L217.923 63.6064L214.291 66.0177L209.566 69.869L202.581 76.6543L199.152 80.6678L194.154 87.9645L190.726 93.8538L188.272 100.976L187.63 99.6513C184.223 92.6173 179.962 80.5799 178.223 67.2739C176.485 53.9744 177.256 39.3306 184.004 27.1493L184.26 26.6864ZM184.813 28.1986C178.475 39.9717 177.728 54.1177 179.427 67.1178C181.041 79.4663 184.853 90.7133 188.09 97.7794L189.616 93.3495L193.126 87.3196L198.186 79.9332L201.693 75.8279L208.756 68.9665L213.569 65.0444L217.221 62.6189L218.58 61.6036L220.343 60.1108L223.633 58.2382C221.754 51.2895 215.075 44.9358 207.236 39.6986C199.486 34.5206 190.741 30.5242 184.813 28.1986Z" fill="#202020"/>
<path d="M351.648 0.721313C328.732 4.12908 309.706 30.9449 302.927 44.1007H304.138L311.321 45.8394L317.379 47.4042L322.831 49.3167L326.292 50.7076L330.792 52.794L333.994 54.3588L338.581 57.2276L345.071 62.2697L347.58 64.443L349.311 66.3555C365.996 39.0239 357.821 11.2112 351.648 0.721313Z" fill="#3D3D3D"/>
<path fill-rule="evenodd" clip-rule="evenodd" d="M352.099 0L352.305 0.351015C358.54 10.9378 366.759 38.9041 349.97 66.388L349.55 67.0767L347.307 64.6002L344.844 62.4688L338.409 57.4726L333.888 54.6465L330.728 53.1036L326.261 51.0334L322.836 49.6581L317.436 47.765L311.428 46.2141L311.419 46.2119L304.335 44.4982H302.206L302.662 43.613C306.065 37.0127 312.532 27.0035 321.024 18.2104C329.506 9.42723 340.078 1.78645 351.697 0.0597129L352.099 0ZM304.199 43.2853H304.478L311.716 45.036L317.786 46.603L323.259 48.5219L326.738 49.919L331.246 52.0075L334.473 53.5835L339.099 56.4755L345.609 61.5291L348.152 63.7297L349.358 65.0617C365.111 38.5947 357.469 11.8146 351.471 1.32202C340.393 3.10694 330.198 10.453 321.891 19.0547C313.865 27.3655 307.663 36.7838 304.199 43.2853Z" fill="#202020"/>
<path d="M256.045 106.385C256.045 118.933 246.035 129.105 233.687 129.105C221.338 129.105 211.328 118.933 211.328 106.385C211.328 93.8374 221.338 83.6655 233.687 83.6655C246.035 83.6655 256.045 93.8374 256.045 106.385Z" fill="#DDDDDD"/>
<path fill-rule="evenodd" clip-rule="evenodd" d="M233.687 127.007C244.895 127.007 253.982 117.774 253.982 106.385C253.982 94.9956 244.895 85.7627 233.687 85.7627C222.478 85.7627 213.392 94.9956 213.392 106.385C213.392 117.774 222.478 127.007 233.687 127.007ZM233.687 129.105C246.035 129.105 256.045 118.933 256.045 106.385C256.045 93.8374 246.035 83.6655 233.687 83.6655C221.338 83.6655 211.328 93.8374 211.328 106.385C211.328 118.933 221.338 129.105 233.687 129.105Z" fill="#202020"/>
<path d="M325.286 97.73C325.286 110.278 315.275 120.45 302.927 120.45C290.578 120.45 280.568 110.278 280.568 97.73C280.568 85.1824 290.578 75.0105 302.927 75.0105C315.275 75.0105 325.286 85.1824 325.286 97.73Z" fill="#DDDDDD"/>
<path fill-rule="evenodd" clip-rule="evenodd" d="M302.927 118.352C314.135 118.352 323.222 109.119 323.222 97.73C323.222 86.3406 314.135 77.1077 302.927 77.1077C291.718 77.1077 282.632 86.3406 282.632 97.73C282.632 109.119 291.718 118.352 302.927 118.352ZM302.927 120.45C315.275 120.45 325.286 110.278 325.286 97.73C325.286 85.1824 315.275 75.0105 302.927 75.0105C290.578 75.0105 280.568 85.1824 280.568 97.73C280.568 110.278 290.578 120.45 302.927 120.45Z" fill="#202020"/>
<path d="M323.843 95.5663C323.843 106.122 315.286 114.68 304.73 114.68C294.174 114.68 285.617 106.122 285.617 95.5663C285.617 85.0103 294.174 76.453 304.73 76.453C315.286 76.453 323.843 85.0103 323.843 95.5663Z" fill="#007FFF"/>
<path d="M254.603 104.221C254.603 114.777 246.046 123.335 235.49 123.335C224.934 123.335 216.376 114.777 216.376 104.221C216.376 93.6653 224.934 85.108 235.49 85.108C246.046 85.108 254.603 93.6653 254.603 104.221Z" fill="#7C20BE"/>
<path d="M272.43 124.059L262.611 124.852C261.855 124.913 261.538 125.924 262.105 126.467L267.628 131.756C268.002 132.114 268.58 132.053 268.882 131.625L273.178 125.542C273.627 124.907 273.169 123.999 272.43 124.059Z" fill="#202020"/>
<path fill-rule="evenodd" clip-rule="evenodd" d="M262.349 124.047L272.502 123.34C274.335 123.213 275.471 125.154 274.358 126.512L269.916 131.93C269.164 132.847 267.731 132.976 266.803 132.211L261.092 127.499C259.684 126.338 260.471 124.178 262.349 124.047ZM262.442 125.198L272.595 124.491C273.359 124.438 273.832 125.247 273.368 125.813L268.926 131.231C268.613 131.613 268.016 131.667 267.629 131.348L261.918 126.637C261.332 126.153 261.659 125.253 262.442 125.198Z" fill="#202020"/>
<path fill-rule="evenodd" clip-rule="evenodd" d="M367.796 112.433C352.125 115.414 337.584 119.99 328.994 123.294C328.681 123.415 328.33 123.256 328.21 122.939C328.091 122.623 328.248 122.268 328.562 122.148C337.213 118.821 351.823 114.223 367.571 111.228C383.303 108.236 400.248 106.829 413.53 109.943C413.856 110.019 414.06 110.349 413.984 110.679C413.908 111.009 413.582 111.214 413.255 111.138C400.224 108.083 383.481 109.45 367.796 112.433Z" fill="white" fill-opacity="0.5"/>
<path fill-rule="evenodd" clip-rule="evenodd" d="M176.72 142.071C187.124 137.503 197.342 134.853 203.562 133.815C203.851 133.766 204.096 133.426 204.108 133.054C204.121 132.682 203.897 132.419 203.608 132.467C197.324 133.517 187.031 136.187 176.546 140.79C166.076 145.387 155.331 151.946 148.211 160.827C147.985 161.109 147.949 161.538 148.13 161.786C148.311 162.034 148.641 162.006 148.867 161.725C155.773 153.11 166.299 146.646 176.72 142.071Z" fill="white" fill-opacity="0.5"/>
<path fill-rule="evenodd" clip-rule="evenodd" d="M393.08 96.4691C393.114 96.7996 392.869 97.0941 392.534 97.1268C366.609 99.6576 338.474 113.189 327.653 119.641C327.365 119.813 326.99 119.722 326.816 119.438C326.642 119.153 326.734 118.784 327.022 118.612C337.914 112.118 366.23 98.4857 392.414 95.9297C392.749 95.897 393.047 96.1385 393.08 96.4691Z" fill="white" fill-opacity="0.5"/>
<path fill-rule="evenodd" clip-rule="evenodd" d="M156.402 139.227C156.48 139.565 156.77 139.708 157.048 139.545C173.455 129.983 194.691 129.232 203.263 130.062C203.544 130.09 203.829 129.808 203.899 129.434C203.97 129.06 203.799 128.735 203.519 128.707C194.881 127.871 173.432 128.606 156.765 138.321C156.486 138.483 156.324 138.889 156.402 139.227Z" fill="white" fill-opacity="0.5"/>
<path fill-rule="evenodd" clip-rule="evenodd" d="M383.61 131.226C364.494 123.581 338.668 124.907 328.139 126.535C327.811 126.585 327.506 126.355 327.456 126.02C327.406 125.686 327.632 125.374 327.959 125.323C338.565 123.683 364.64 122.324 384.047 130.085C384.355 130.208 384.508 130.564 384.387 130.879C384.266 131.194 383.918 131.349 383.61 131.226Z" fill="white" fill-opacity="0.5"/>
<path fill-rule="evenodd" clip-rule="evenodd" d="M190.087 146.433C196.187 141.343 201.982 137.779 205.438 136.061C205.721 135.92 205.901 135.524 205.841 135.177C205.78 134.829 205.501 134.661 205.218 134.802C201.682 136.56 195.809 140.175 189.634 145.327C183.462 150.477 176.952 157.192 172.175 165.163C171.984 165.483 172.004 165.901 172.221 166.097C172.438 166.293 172.769 166.193 172.961 165.873C177.61 158.116 183.983 151.526 190.087 146.433Z" fill="white" fill-opacity="0.5"/>
<path fill-rule="evenodd" clip-rule="evenodd" d="M393.083 326.947C399.71 321.887 402.6 316.906 402.6 312.303C402.6 307.701 399.71 302.719 393.083 297.66C386.509 292.641 376.778 287.972 364.443 283.989C339.811 276.035 305.567 271.059 267.585 271.059C229.604 271.059 195.359 276.035 170.728 283.989C158.393 287.972 148.662 292.641 142.088 297.66C135.461 302.719 132.571 307.701 132.571 312.303C132.571 316.906 135.461 321.887 142.088 326.947C148.662 331.966 158.393 336.634 170.728 340.618C195.359 348.572 229.604 353.548 267.585 353.548C305.567 353.548 339.811 348.572 364.443 340.618C376.778 336.634 386.509 331.966 393.083 326.947ZM267.585 357.021C344.066 357.021 406.066 337 406.066 312.303C406.066 287.606 344.066 267.585 267.585 267.585C191.105 267.585 129.104 287.606 129.104 312.303C129.104 337 191.105 357.021 267.585 357.021Z" fill="#DFDFE1" fill-opacity="0.5"/>
<path d="M248.813 169.018L240.511 167.892L233.334 166.159L228.694 164.61C228.084 164.406 227.462 164.917 227.494 165.56C228.24 180.622 214.324 234.477 206.513 262.224C206.3 262.98 205.262 263.076 204.869 262.396C199.238 252.662 186.375 238.518 172.194 247.601C160.393 255.159 161.292 269.06 164.528 279.027C164.847 280.012 164.176 280.413 163.399 279.73C155.044 272.398 138.118 274.019 132.587 289.101C127.144 303.944 133.717 318.414 139.181 324.036C139.225 324.082 139.273 324.121 139.326 324.155C172.668 345.666 220.035 349.75 243.106 352.088C297.846 354.514 336.588 349.575 367.287 338.659C391.198 330.156 404.3 317.836 405.77 305.649C407.298 299.036 403.003 269.434 390.896 259.037C379.389 249.156 363.222 261.97 355.534 270.703C355.06 271.242 354.168 271.023 354.005 270.324L326.9 153.577C326.77 153.02 326.148 152.739 325.646 153.011L317.217 157.582L307.791 161.308L299.835 164.167L289.285 167.026L279.167 169.018L270.433 169.885H262.477H254.244C254.198 169.885 254.152 169.881 254.106 169.874L248.813 169.018Z" fill="#3D3D3D"/>
<path fill-rule="evenodd" clip-rule="evenodd" d="M326.359 153.601C326.32 153.434 326.133 153.35 325.983 153.431L317.514 158.025L308.038 161.772L300.043 164.646L289.44 167.52L279.265 169.525L270.465 170.398H254.233C254.154 170.398 254.076 170.391 253.998 170.379L248.708 169.524L240.377 168.393L233.138 166.645L228.47 165.086C228.38 165.056 228.284 165.073 228.198 165.141C228.111 165.212 228.06 165.318 228.065 165.431C228.256 169.276 227.513 175.534 226.19 183.141C224.865 190.766 222.947 199.799 220.763 209.223C216.394 228.071 210.955 248.504 207.045 262.399C206.673 263.724 204.928 263.811 204.292 262.712C201.501 257.885 196.934 251.999 191.35 248.45C188.564 246.679 185.546 245.502 182.382 245.309C179.227 245.116 175.887 245.898 172.44 248.106C166.705 251.781 164.058 256.985 163.233 262.511C162.405 268.059 163.415 273.933 165.017 278.869C165.203 279.442 165.203 280.185 164.605 280.553C164.028 280.907 163.362 280.613 162.912 280.218C154.845 273.135 138.421 274.685 133.043 289.352C127.691 303.948 134.166 318.197 139.507 323.694C139.518 323.705 139.53 323.715 139.547 323.726C171.613 344.42 216.741 348.947 240.641 351.345C241.498 351.431 242.328 351.514 243.129 351.596C297.861 354.02 336.545 349.077 367.168 338.185C379.084 333.946 388.271 328.768 394.651 323.16C401.032 317.551 404.571 311.543 405.284 305.637L405.288 305.604L405.295 305.573C405.653 304.022 405.682 301.014 405.305 297.148C404.931 293.306 404.163 288.686 402.972 283.946C400.578 274.427 396.511 264.579 390.604 259.505C385.105 254.782 378.47 255.431 372.129 258.444C365.784 261.46 359.879 266.788 356.062 271.126C355.268 272.028 353.764 271.672 353.487 270.482L326.359 153.601ZM325.406 152.364C326.26 151.9 327.319 152.378 327.539 153.326L354.668 270.207C354.716 270.416 354.998 270.498 355.153 270.322C359.03 265.916 365.062 260.459 371.61 257.347C378.162 254.234 385.375 253.414 391.393 258.583C397.603 263.918 401.744 274.092 404.147 283.649C405.353 288.447 406.131 293.127 406.511 297.03C406.887 300.884 406.882 304.049 406.483 305.814C405.715 312.098 401.964 318.347 395.45 324.073C388.923 329.81 379.588 335.055 367.573 339.329C336.749 350.293 297.89 355.239 243.058 352.808L243.041 352.807L243.024 352.805C242.201 352.722 241.347 352.636 240.464 352.548C216.595 350.155 171.21 345.605 138.891 324.747C138.802 324.689 138.718 324.622 138.639 324.542C133.043 318.782 126.361 304.056 131.906 288.933C137.6 273.403 155.055 271.706 163.711 279.304C163.791 279.375 163.859 279.42 163.913 279.449C163.906 279.397 163.892 279.329 163.865 279.245C162.229 274.202 161.17 268.129 162.035 262.332C162.903 256.514 165.713 250.975 171.788 247.083C175.438 244.745 179.03 243.887 182.456 244.097C185.874 244.306 189.088 245.574 191.999 247.424C197.809 251.118 202.496 257.185 205.34 262.103C205.405 262.216 205.522 262.269 205.647 262.256C205.767 262.244 205.849 262.178 205.879 262.07C209.786 248.187 215.219 227.772 219.582 208.948C221.764 199.535 223.676 190.526 224.997 182.933C226.32 175.321 227.038 169.185 226.855 165.491C226.804 164.457 227.804 163.583 228.853 163.934L233.472 165.477L240.6 167.198L248.886 168.323L254.191 169.18C254.2 169.181 254.208 169.182 254.217 169.183C254.222 169.183 254.227 169.183 254.233 169.183H270.405L279.088 168.322L289.165 166.337L299.68 163.486L307.62 160.632L317.002 156.922L325.406 152.364Z" fill="#202020"/>
<path fill-rule="evenodd" clip-rule="evenodd" d="M233.687 127.007C244.895 127.007 253.982 117.774 253.982 106.385C253.982 94.9956 244.895 85.7627 233.687 85.7627C222.478 85.7627 213.392 94.9956 213.392 106.385C213.392 117.774 222.478 127.007 233.687 127.007ZM233.687 129.105C246.035 129.105 256.045 118.933 256.045 106.385C256.045 93.8374 246.035 83.6655 233.687 83.6655C221.338 83.6655 211.328 93.8374 211.328 106.385C211.328 118.933 221.338 129.105 233.687 129.105Z" fill="#202020"/>
<path fill-rule="evenodd" clip-rule="evenodd" d="M302.927 118.352C314.135 118.352 323.222 109.119 323.222 97.73C323.222 86.3406 314.135 77.1077 302.927 77.1077C291.718 77.1077 282.632 86.3406 282.632 97.73C282.632 109.119 291.718 118.352 302.927 118.352ZM302.927 120.45C315.275 120.45 325.286 110.278 325.286 97.73C325.286 85.1824 315.275 75.0105 302.927 75.0105C290.578 75.0105 280.568 85.1824 280.568 97.73C280.568 110.278 290.578 120.45 302.927 120.45Z" fill="#202020"/>
</svg>
