<svg width="1920" height="901" viewBox="0 0 1920 901" fill="none" xmlns="http://www.w3.org/2000/svg">
<path fill-rule="evenodd" clip-rule="evenodd" d="M1151.65 308.85C1042.85 320.984 941.351 393.625 853.175 502.717C738.27 644.879 594.432 713.254 470.014 674.985C339.81 634.937 279.296 495.357 298.539 326.018C302.592 290.349 334.794 264.72 370.463 268.773C406.132 272.826 431.761 305.028 427.708 340.697C411.951 479.359 463.686 537.029 508.232 550.73C558.565 566.211 651.977 544.836 752.072 420.997C850.432 299.304 979.934 197.195 1137.25 179.651C1297.6 161.767 1467.12 233.647 1639.09 417.448C1663.61 443.662 1662.25 484.795 1636.03 509.321C1609.82 533.848 1568.69 532.48 1544.16 506.266C1389.13 340.567 1257.42 297.054 1151.65 308.85Z" fill="#351D09"/>
<circle cx="1592.59" cy="463.991" r="52.9711" fill="#8B4A00"/>
<path d="M1551.16 464.064C1550.97 464.052 1550.8 464.037 1550.62 464.02C1550.8 464.033 1550.98 464.048 1551.16 464.064C1562.64 464.842 1592.62 455.747 1592.62 422.02C1592.62 455.747 1622.61 464.842 1634.09 464.064C1634.27 464.048 1634.45 464.033 1634.62 464.02C1634.45 464.037 1634.27 464.052 1634.09 464.064C1620.01 465.331 1593.46 474.836 1592.62 503.243C1592.65 504.149 1592.65 505.075 1592.62 506.02C1592.6 505.075 1592.6 504.149 1592.62 503.243C1591.79 474.836 1565.23 465.331 1551.16 464.064Z" fill="#FABE7A"/>
<circle cx="363.596" cy="330.991" r="52.9711" fill="#8B4A00"/>
<rect x="342.629" y="309.402" width="40.9957" height="43.2318" rx="10" fill="#FABE7A"/>
<path fill-rule="evenodd" clip-rule="evenodd" d="M363.498 313.66C364.167 313.66 364.709 314.202 364.709 314.871V329.81H379.648C380.317 329.81 380.859 330.352 380.859 331.021C380.859 331.69 380.317 332.232 379.648 332.232H364.709V347.171C364.709 347.84 364.167 348.382 363.498 348.382C362.829 348.382 362.287 347.84 362.287 347.171V332.232H347.348C346.679 332.232 346.137 331.69 346.137 331.021C346.137 330.352 346.679 329.81 347.348 329.81H362.287V314.871C362.287 314.202 362.829 313.66 363.498 313.66ZM353 315.275C353.669 315.275 354.212 315.817 354.212 316.486V319.313H357.038C357.707 319.313 358.249 319.855 358.249 320.524C358.249 321.193 357.707 321.735 357.038 321.735H354.212V324.561C354.212 325.23 353.669 325.773 353 325.773C352.331 325.773 351.789 325.23 351.789 324.561V321.735H348.963C348.294 321.735 347.752 321.193 347.752 320.524C347.752 319.855 348.294 319.313 348.963 319.313H351.789V316.486C351.789 315.817 352.331 315.275 353 315.275ZM368.746 321.331C368.746 320.662 369.289 320.12 369.958 320.12H376.418C377.087 320.12 377.629 320.662 377.629 321.331C377.629 322 377.087 322.543 376.418 322.543H369.958C369.289 322.543 368.746 322 368.746 321.331ZM368.746 336.674C368.746 336.005 369.289 335.462 369.958 335.462H376.418C377.087 335.462 377.629 336.005 377.629 336.674C377.629 337.343 377.087 337.885 376.418 337.885H369.958C369.289 337.885 368.746 337.343 368.746 336.674ZM349.721 336.625C350.194 336.152 350.961 336.152 351.434 336.625L353.808 338.998L356.181 336.625C356.654 336.152 357.421 336.152 357.894 336.625C358.367 337.098 358.367 337.865 357.894 338.338L355.521 340.711L357.894 343.085C358.367 343.558 358.367 344.325 357.894 344.798C357.421 345.271 356.654 345.271 356.181 344.798L353.808 342.424L351.434 344.798C350.961 345.271 350.194 345.271 349.721 344.798C349.248 344.325 349.248 343.558 349.721 343.085L352.095 340.711L349.721 338.338C349.248 337.865 349.248 337.098 349.721 336.625ZM368.746 341.519C368.746 340.85 369.289 340.307 369.958 340.307H376.418C377.087 340.307 377.629 340.85 377.629 341.519C377.629 342.188 377.087 342.73 376.418 342.73H369.958C369.289 342.73 368.746 342.188 368.746 341.519Z" fill="#8B4A00"/>
<circle cx="21" cy="21" r="21" transform="matrix(-1 0 0 1 389.625 444.02)" fill="#8B4A00"/>
<circle cx="21" cy="21" r="21" transform="matrix(-1 0 0 1 471.625 561.02)" fill="#8B4A00"/>
<circle cx="21" cy="21" r="21" transform="matrix(-1 0 0 1 753.625 519.02)" fill="#8B4A00"/>
<circle cx="21" cy="21" r="21" transform="matrix(-1 0 0 1 1088.62 249.02)" fill="#8B4A00"/>
<circle cx="21" cy="21" r="21" transform="matrix(-1 0 0 1 848.623 410.02)" fill="#8B4A00"/>
<circle cx="21" cy="21" r="21" transform="matrix(-1 0 0 1 1210.62 225.02)" fill="#8B4A00"/>
<circle cx="21" cy="21" r="21" transform="matrix(-1 0 0 1 1528.62 364.02)" fill="#8B4A00"/>
<circle cx="21" cy="21" r="21" transform="matrix(-1 0 0 1 1332.62 254.02)" fill="#8B4A00"/>
<circle cx="1415.59" cy="316.991" r="52.9711" fill="#8B4A00"/>
<path d="M1437.97 311.118C1438.46 310.475 1438.69 309.658 1438.61 308.841C1438.53 308.025 1438.14 307.274 1437.54 306.748C1436.94 306.223 1436.17 305.965 1435.38 306.029C1434.6 306.094 1433.88 306.476 1433.36 307.093L1426.17 316.132C1424.68 317.997 1423.77 319.134 1423.02 319.842C1422.82 320.041 1422.6 320.213 1422.37 320.353L1422.32 320.374L1422.29 320.358L1422.28 320.353C1422.04 320.213 1421.82 320.041 1421.62 319.842C1420.87 319.129 1419.96 317.997 1418.47 316.132L1417.31 314.665C1415.99 313.009 1414.8 311.52 1413.7 310.472C1412.49 309.332 1410.98 308.318 1408.97 308.318C1406.97 308.318 1405.46 309.332 1404.25 310.472C1403.14 311.52 1401.96 313.009 1400.65 314.665L1393.32 323.862C1393.07 324.18 1392.88 324.546 1392.76 324.94C1392.64 325.335 1392.6 325.749 1392.64 326.161C1392.71 326.991 1393.09 327.758 1393.7 328.291C1394.32 328.825 1395.11 329.082 1395.9 329.006C1396.69 328.931 1397.43 328.528 1397.93 327.887L1405.13 318.848C1406.61 316.983 1407.53 315.847 1408.28 315.138C1408.47 314.939 1408.69 314.768 1408.93 314.627L1408.96 314.614L1408.97 314.61C1408.98 314.61 1409 314.616 1409.02 314.627C1409.26 314.767 1409.48 314.939 1409.67 315.138C1410.42 315.851 1411.34 316.983 1412.82 318.848L1413.99 320.316C1415.31 321.972 1416.49 323.46 1417.6 324.508C1418.8 325.648 1420.32 326.663 1422.32 326.663C1424.32 326.663 1425.84 325.648 1427.05 324.508C1428.15 323.46 1429.34 321.972 1430.65 320.316L1437.97 311.118Z" fill="#FABE7A"/>
<circle cx="578" cy="412" r="53" fill="#FF0084"/>
<g clip-path="url(#clip0_3936_40037)">
<path d="M576.251 388.668C566.407 388.677 561.316 388.855 558.084 392.084C554.855 395.318 554.677 400.407 554.668 410.251H566.134C565.296 409.204 564.693 407.988 564.368 406.686C563.115 401.665 567.665 397.115 572.686 398.368C574.021 398.701 575.229 399.315 576.251 400.134V388.668ZM554.668 413.751C554.677 423.593 554.855 428.685 558.084 431.916C561.318 435.148 566.407 435.323 576.251 435.335V416.955C575.331 418.797 573.916 420.346 572.164 421.429C570.412 422.512 568.394 423.085 566.335 423.085C565.871 423.085 565.425 422.9 565.097 422.572C564.769 422.244 564.585 421.799 564.585 421.335C564.585 420.871 564.769 420.425 565.097 420.097C565.425 419.769 565.871 419.585 566.335 419.585C568.042 419.585 569.699 419.009 571.039 417.951C572.378 416.892 573.321 415.412 573.715 413.751H554.668ZM579.751 435.335C589.593 435.323 594.685 435.148 597.916 431.916C601.148 428.687 601.323 423.593 601.335 413.751H582.288C582.682 415.412 583.625 416.892 584.964 417.951C586.303 419.009 587.961 419.585 589.668 419.585C590.132 419.585 590.577 419.769 590.905 420.097C591.234 420.425 591.418 420.871 591.418 421.335C591.418 421.799 591.234 422.244 590.905 422.572C590.577 422.9 590.132 423.085 589.668 423.085C587.609 423.085 585.59 422.512 583.839 421.429C582.087 420.346 580.672 418.797 579.751 416.955V435.335ZM601.335 410.251C601.323 400.407 601.148 395.316 597.916 392.084C594.687 388.855 589.593 388.677 579.751 388.668V400.134C580.798 399.296 582.014 398.694 583.314 398.368C588.338 397.112 592.89 401.662 591.633 406.686C591.308 407.987 590.706 409.203 589.869 410.251H601.335Z" fill="#FAF0CA"/>
<path d="M571.835 401.764C573.095 402.08 574.214 402.807 575.013 403.831C575.813 404.855 576.248 406.116 576.25 407.415V410.25H573.415C572.116 410.249 570.854 409.814 569.831 409.014C568.807 408.214 568.079 407.096 567.763 405.836C567.624 405.273 567.631 404.684 567.787 404.126C567.942 403.567 568.238 403.059 568.648 402.649C569.058 402.239 569.567 401.942 570.125 401.787C570.684 401.632 571.273 401.624 571.835 401.764ZM579.75 407.415V410.25H582.585C585.256 410.25 587.587 408.43 588.236 405.836C588.376 405.273 588.368 404.684 588.213 404.125C588.058 403.566 587.761 403.057 587.351 402.648C586.941 402.238 586.431 401.941 585.873 401.786C585.314 401.631 584.725 401.624 584.162 401.764C582.902 402.08 581.784 402.808 580.985 403.832C580.186 404.855 579.751 406.117 579.75 407.415Z" fill="#FAF0CA"/>
</g>
<ellipse cx="1190" cy="452.971" rx="53" ry="52.9711" fill="#66D7D1"/>
<path d="M1198.56 456.217V451.539H1204.39C1205.13 451.539 1205.81 451.386 1206.42 451.079C1207.03 450.772 1207.52 450.325 1207.88 449.737C1208.24 449.149 1208.42 448.433 1208.42 447.589C1208.42 446.771 1208.24 446.068 1207.88 445.48C1207.52 444.892 1207.03 444.445 1206.42 444.138C1205.81 443.832 1205.13 443.678 1204.39 443.678H1198.56V439H1205.27C1206.98 439 1208.53 439.345 1209.91 440.035C1211.29 440.726 1212.38 441.723 1213.17 443.026C1213.99 444.304 1214.4 445.826 1214.4 447.589C1214.4 449.353 1213.99 450.887 1213.17 452.191C1212.38 453.469 1211.29 454.466 1209.91 455.182C1208.53 455.872 1206.98 456.217 1205.27 456.217H1198.56ZM1193.95 466.072V439H1199.97V466.072H1193.95Z" fill="#002952"/>
<path d="M1184.24 466.072L1176.68 453.993H1175.95L1165.51 439H1172.69L1180.13 450.35H1180.86L1191.3 466.072H1184.24ZM1165.02 466.072L1175.03 451.577L1179.67 454.185L1171.88 466.072H1165.02ZM1181.09 453.303L1176.45 450.695L1183.97 439H1190.84L1181.09 453.303Z" fill="#002952"/>
<circle cx="591.596" cy="612.991" r="52.9711" fill="#8B4A00"/>
<path d="M586.562 620.895C586.562 619.552 587.096 618.264 588.045 617.315C588.995 616.365 590.282 615.832 591.625 615.832C592.968 615.832 594.255 616.365 595.205 617.315C596.154 618.264 596.688 619.552 596.688 620.895C596.688 622.237 596.154 623.525 595.205 624.474C594.255 625.424 592.968 625.957 591.625 625.957C590.282 625.957 588.995 625.424 588.045 624.474C587.096 623.525 586.562 622.237 586.562 620.895Z" fill="#FABE7A"/>
<path fill-rule="evenodd" clip-rule="evenodd" d="M577.391 594.52C575.875 596.79 575.875 599.947 575.875 606.27V619.77C575.875 626.09 575.875 629.249 577.391 631.519C578.048 632.502 578.892 633.346 579.876 634.003C582.146 635.52 585.303 635.52 591.625 635.52C597.948 635.52 601.104 635.52 603.375 634.003C604.358 633.346 605.202 632.502 605.859 631.519C607.375 629.249 607.375 626.092 607.375 619.77V606.27C607.375 599.949 607.375 596.79 605.859 594.52C605.202 593.537 604.358 592.693 603.375 592.036C601.104 590.52 597.948 590.52 591.625 590.52C585.303 590.52 582.146 590.52 579.876 592.036C578.892 592.693 578.048 593.537 577.391 594.52ZM591.625 612.457C590.517 612.457 589.42 612.675 588.396 613.099C587.372 613.523 586.442 614.145 585.659 614.928C584.875 615.712 584.254 616.642 583.83 617.666C583.406 618.689 583.188 619.787 583.188 620.895C583.188 622.003 583.406 623.1 583.83 624.123C584.254 625.147 584.875 626.077 585.659 626.861C586.442 627.644 587.372 628.266 588.396 628.69C589.42 629.114 590.517 629.332 591.625 629.332C593.863 629.332 596.009 628.443 597.591 626.861C599.174 625.278 600.063 623.132 600.063 620.895C600.063 618.657 599.174 616.511 597.591 614.928C596.009 613.346 593.863 612.457 591.625 612.457ZM589.375 607.395C589.375 607.991 589.138 608.564 588.716 608.986C588.294 609.407 587.722 609.645 587.125 609.645C586.528 609.645 585.956 609.407 585.534 608.986C585.112 608.564 584.875 607.991 584.875 607.395C584.875 606.798 585.112 606.225 585.534 605.804C585.956 605.382 586.528 605.145 587.125 605.145C587.722 605.145 588.294 605.382 588.716 605.804C589.138 606.225 589.375 606.798 589.375 607.395ZM587.125 601.77C587.722 601.77 588.294 601.532 588.716 601.111C589.138 600.689 589.375 600.116 589.375 599.52C589.375 598.923 589.138 598.35 588.716 597.929C588.294 597.507 587.722 597.27 587.125 597.27C586.528 597.27 585.956 597.507 585.534 597.929C585.112 598.35 584.875 598.923 584.875 599.52C584.875 600.116 585.112 600.689 585.534 601.111C585.956 601.532 586.528 601.77 587.125 601.77ZM598.375 607.395C598.375 607.991 598.138 608.564 597.716 608.986C597.294 609.407 596.722 609.645 596.125 609.645C595.528 609.645 594.956 609.407 594.534 608.986C594.112 608.564 593.875 607.991 593.875 607.395C593.875 606.798 594.112 606.225 594.534 605.804C594.956 605.382 595.528 605.145 596.125 605.145C596.722 605.145 597.294 605.382 597.716 605.804C598.138 606.225 598.375 606.798 598.375 607.395ZM596.125 601.77C596.722 601.77 597.294 601.532 597.716 601.111C598.138 600.689 598.375 600.116 598.375 599.52C598.375 598.923 598.138 598.35 597.716 597.929C597.294 597.507 596.722 597.27 596.125 597.27C595.528 597.27 594.956 597.507 594.534 597.929C594.112 598.35 593.875 598.923 593.875 599.52C593.875 600.116 594.112 600.689 594.534 601.111C594.956 601.532 595.528 601.77 596.125 601.77Z" fill="#FABE7A"/>
<circle cx="940.594" cy="327.991" r="52.9711" fill="#8B4A00"/>
<g clip-path="url(#clip1_3936_40037)">
<path d="M935.748 335.602C935.748 334.309 936.262 333.069 937.176 332.154C938.09 331.24 939.33 330.727 940.623 330.727C941.916 330.727 943.156 331.24 944.07 332.154C944.984 333.069 945.498 334.309 945.498 335.602C945.498 336.894 944.984 338.134 944.07 339.049C943.156 339.963 941.916 340.477 940.623 340.477C939.33 340.477 938.09 339.963 937.176 339.049C936.262 338.134 935.748 336.894 935.748 335.602Z" fill="#FABE7A"/>
<path d="M917.977 340.028C917.977 341.514 918.573 342.94 919.635 343.991C920.696 345.042 922.136 345.632 923.638 345.632H957.606C959.107 345.632 960.547 345.042 961.609 343.991C962.67 342.94 963.267 341.514 963.267 340.028V324.617H917.977V340.028ZM924.649 332.422C924.649 331.626 924.968 330.863 925.537 330.3C926.106 329.736 926.877 329.42 927.682 329.42H932.534C933.339 329.42 934.11 329.736 934.679 330.3C935.247 330.863 935.567 331.626 935.567 332.422V334.424C935.567 335.22 935.247 335.984 934.679 336.547C934.11 337.11 933.339 337.426 932.534 337.426H927.682C926.877 337.426 926.106 337.11 925.537 336.547C924.968 335.984 924.649 335.22 924.649 334.424V332.422ZM957.606 310.406H923.638C922.136 310.406 920.696 310.997 919.635 312.048C918.573 313.099 917.977 314.524 917.977 316.01V318.612H963.267V316.01C963.267 314.524 962.67 313.099 961.609 312.048C960.547 310.997 959.107 310.406 957.606 310.406Z" fill="#FABE7A"/>
</g>
<path fill-rule="evenodd" clip-rule="evenodd" d="M-1149.79 284.41C-1208.41 347.721 -1249.92 446.086 -1269.09 519.21C-1278.2 553.935 -1313.73 574.703 -1348.45 565.598C-1383.18 556.493 -1403.95 520.962 -1394.84 486.238C-1372.85 402.362 -1323.96 281.177 -1245.18 196.087C-1205.21 152.929 -1154.34 115.615 -1092.01 100.758C-1028.23 85.5546 -960.065 95.7026 -890.659 134.261C-853.074 154.721 -806.113 196.074 -780.431 257.71C-753.356 322.689 -752.789 403.538 -799.969 493.035C-818.566 528.312 -820.554 555.516 -816.737 574.194C-812.958 592.691 -802.496 608.11 -786.082 619.367C-752.902 642.121 -688.176 650.306 -615.679 603.586C-552.875 563.112 -529.25 527.901 -517.818 497.714C-507.412 470.239 -505.217 444.327 -502.144 408.045C-501.282 397.864 -500.351 386.866 -499.149 374.789C-499.111 374.404 -499.069 374.019 -499.024 373.635C-495.14 340.587 -480.524 301.631 -457.881 267.965C-435.181 234.213 -399.352 198.431 -348.762 183.758C-295.311 168.255 -237.934 179.882 -182.26 218.255C-128.383 255.39 -73.9711 318.616 -18.1112 412.482C0.247314 443.331 -9.87842 483.222 -40.7275 501.58C-71.5767 519.939 -111.467 509.813 -129.826 478.964C-180.966 393.029 -223.846 347.481 -256.036 325.293C-286.43 304.344 -303.897 306.103 -312.55 308.613C-324.064 311.952 -337.6 322.064 -350.009 340.515C-362.292 358.778 -368.528 378.03 -369.856 388.352C-370.541 395.326 -371.144 402.861 -371.784 410.841C-374.845 449.052 -378.726 497.5 -396.244 543.757C-419.437 604.995 -464.062 660.534 -545.258 712.86C-652.761 782.14 -775.035 784.575 -859.605 726.579C-902.065 697.46 -933.167 653.754 -944.106 600.22C-955.008 546.867 -944.871 489.134 -914.968 432.411C-884.548 374.707 -889.314 334.391 -900.431 307.711C-912.861 277.879 -936.741 257.147 -952.932 248.375C-953.151 248.256 -953.369 248.137 -953.586 248.016C-998.673 222.915 -1033.81 220.528 -1061.86 227.215C-1091.46 234.27 -1121.04 253.368 -1149.79 284.41Z" fill="#00142B"/>
<defs>
<clipPath id="clip0_3936_40037">
<rect width="50" height="50" fill="white" transform="translate(553 387)"/>
</clipPath>
<clipPath id="clip1_3936_40037">
<rect width="52" height="52" fill="white" transform="translate(914.623 302.02)"/>
</clipPath>
</defs>
</svg>
