<svg width="181" height="181" viewBox="0 0 181 181" fill="none" xmlns="http://www.w3.org/2000/svg">
<path d="M124.73 89.9868C124.73 109.204 109.152 124.782 89.9355 124.782C70.7188 124.782 55.1406 109.204 55.1406 89.9868C55.1406 70.7701 70.7188 55.1919 89.9355 55.1919C109.152 55.1919 124.73 70.7701 124.73 89.9868Z" fill="#FF8800"/>
<path fill-rule="evenodd" clip-rule="evenodd" d="M89.9355 116.083C104.348 116.083 116.032 104.399 116.032 89.9868C116.032 75.5743 104.348 63.8906 89.9355 63.8906C75.523 63.8906 63.8394 75.5743 63.8394 89.9868C63.8394 104.399 75.523 116.083 89.9355 116.083ZM89.9355 124.782C109.152 124.782 124.73 109.204 124.73 89.9868C124.73 70.7701 109.152 55.1919 89.9355 55.1919C70.7188 55.1919 55.1406 70.7701 55.1406 89.9868C55.1406 109.204 70.7188 124.782 89.9355 124.782Z" fill="#FF8800"/>
<path fill-rule="evenodd" clip-rule="evenodd" d="M89.9902 3.89941C91.564 3.89941 92.8398 5.17522 92.8398 6.749V44.4935C92.8398 46.0673 91.564 47.3431 89.9902 47.3431C88.4164 47.3431 87.1406 46.0673 87.1406 44.4935V6.749C87.1406 5.17522 88.4164 3.89941 89.9902 3.89941ZM89.9902 132.681C91.564 132.681 92.8398 133.956 92.8398 135.53V173.275C92.8398 174.848 91.564 176.124 89.9902 176.124C88.4164 176.124 87.1406 174.848 87.1406 173.275V135.53C87.1406 133.956 88.4164 132.681 89.9902 132.681Z" fill="#FF8800"/>
<path fill-rule="evenodd" clip-rule="evenodd" d="M83.2344 6.74901C83.2344 3.02164 86.256 0 89.9834 0C93.7108 0 96.7324 3.02164 96.7324 6.74902V44.4935C96.7324 48.2209 93.7108 51.2425 89.9834 51.2425C86.256 51.2425 83.2344 48.2209 83.2344 44.4935V6.74901ZM83.2344 135.53C83.2344 131.803 86.256 128.781 89.9834 128.781C93.7108 128.781 96.7324 131.803 96.7324 135.53V173.275C96.7324 177.002 93.7108 180.024 89.9834 180.024C86.256 180.024 83.2344 177.002 83.2344 173.275V135.53Z" fill="#FF8800"/>
<path fill-rule="evenodd" clip-rule="evenodd" d="M176.125 89.9367C176.125 91.5105 174.849 92.7863 173.275 92.7863L135.531 92.7863C133.957 92.7863 132.681 91.5105 132.681 89.9367C132.681 88.363 133.957 87.0872 135.531 87.0872L173.275 87.0872C174.849 87.0872 176.125 88.363 176.125 89.9367ZM47.3438 89.9367C47.3438 91.5105 46.068 92.7863 44.4942 92.7863L6.74974 92.7863C5.17595 92.7863 3.90015 91.5105 3.90015 89.9367C3.90015 88.363 5.17595 87.0872 6.74974 87.0872L44.4942 87.0872C46.068 87.0872 47.3438 88.363 47.3438 89.9367Z" fill="#FF8800"/>
<path fill-rule="evenodd" clip-rule="evenodd" d="M173.274 83.188C177.002 83.188 180.023 86.2096 180.023 89.937C180.023 93.6644 177.002 96.686 173.274 96.686L135.53 96.686C131.803 96.686 128.781 93.6644 128.781 89.937C128.781 86.2096 131.803 83.188 135.53 83.188L173.274 83.188ZM44.4932 83.188C48.2206 83.188 51.2422 86.2096 51.2422 89.937C51.2422 93.6644 48.2206 96.686 44.4932 96.686L6.74875 96.686C3.02136 96.686 -0.000275116 93.6644 -0.000274953 89.937C-0.00027479 86.2096 3.02136 83.188 6.74875 83.188L44.4932 83.188Z" fill="#FF8800"/>
<path fill-rule="evenodd" clip-rule="evenodd" d="M150.813 150.893C149.7 152.006 147.896 152.006 146.783 150.893L120.094 124.204C118.981 123.091 118.981 121.287 120.094 120.174C121.207 119.061 123.011 119.061 124.124 120.174L150.813 146.863C151.926 147.976 151.926 149.78 150.813 150.893ZM59.7511 59.8311C58.6383 60.9439 56.834 60.9439 55.7212 59.8311L29.0318 33.1417C27.919 32.0289 27.919 30.2246 29.0318 29.1118C30.1446 27.9989 31.9489 27.9989 33.0617 29.1118L59.7511 55.8012C60.8639 56.914 60.8639 58.7183 59.7511 59.8311Z" fill="#FF8800"/>
<path fill-rule="evenodd" clip-rule="evenodd" d="M153.657 144.006C156.293 146.642 156.293 150.915 153.657 153.551C151.022 156.186 146.749 156.186 144.113 153.551L117.423 126.861C114.788 124.226 114.788 119.952 117.423 117.317C120.059 114.681 124.332 114.681 126.968 117.317L153.657 144.006ZM62.5954 52.944C65.231 55.5796 65.231 59.8529 62.5954 62.4885C59.9597 65.1242 55.6865 65.1242 53.0508 62.4885L26.3614 35.7992C23.7258 33.1635 23.7258 28.8903 26.3614 26.2546C28.9971 23.619 33.2703 23.619 35.906 26.2546L62.5954 52.944Z" fill="#FF8800"/>
<path fill-rule="evenodd" clip-rule="evenodd" d="M29.0319 150.863C27.9191 149.75 27.9191 147.946 29.0319 146.833L55.7213 120.143C56.8341 119.031 58.6384 119.031 59.7512 120.143C60.864 121.256 60.864 123.061 59.7512 124.173L33.0618 150.863C31.949 151.976 30.1447 151.976 29.0319 150.863ZM120.094 59.8007C118.981 58.6878 118.981 56.8836 120.094 55.7707L146.783 29.0814C147.896 27.9685 149.7 27.9685 150.813 29.0814C151.926 30.1942 151.926 31.9985 150.813 33.1113L124.124 59.8007C123.011 60.9135 121.207 60.9135 120.094 59.8007Z" fill="#FF8800"/>
<path fill-rule="evenodd" clip-rule="evenodd" d="M35.8191 153.605C33.1835 156.24 28.9103 156.24 26.2746 153.605C23.6389 150.969 23.6389 146.696 26.2746 144.06L52.964 117.371C55.5996 114.735 59.8729 114.735 62.5085 117.371C65.1442 120.006 65.1442 124.28 62.5085 126.915L35.8191 153.605ZM126.881 62.5426C124.246 65.1783 119.972 65.1783 117.337 62.5426C114.701 59.907 114.701 55.6337 117.337 52.9981L144.026 26.3087C146.662 23.673 150.935 23.673 153.571 26.3087C156.206 28.9443 156.206 33.2176 153.571 35.8532L126.881 62.5426Z" fill="#FF8800"/>
</svg>
